<svg width="86" height="29" viewBox="0 0 86 29" fill="none" xmlns="http://www.w3.org/2000/svg">
    <path d="M27.7684 22.2473H16.7694V25.0696C14.1648 26.7173 11.5131 27.5412 8.81042 27.5412C6.37839 27.5412 4.40924 26.8474 2.90687 25.4599C1.40059 24.0724 0.651367 22.0147 0.651367 19.2791C0.651367 17.6117 0.980867 15.897 1.63595 14.1311L4.70343 13.666L4.93487 13.8985C4.49161 15.5068 4.26802 16.8864 4.26802 18.0296C4.26802 19.7758 4.68774 21.0451 5.52719 21.8413C6.36663 22.6375 7.70424 23.0357 9.53611 23.0357C10.6344 23.0357 11.7171 22.9095 12.7762 22.6573V10.5559H16.7694V12.5031C20.2998 9.73203 22.8848 8.34451 24.5284 8.34451C26.2661 8.34451 27.6822 9.25901 28.7844 11.092C29.8827 12.9249 30.4829 15.1875 30.577 17.8837L27.7684 22.2473ZM16.7694 17.592H26.8702C26.6387 16.1572 26.2347 15.0417 25.6542 14.2454C25.0736 13.4492 24.3597 13.055 23.5124 13.055C22.0061 13.055 19.7585 14.0444 16.7694 16.0232V17.592V17.592ZM19.374 7.29599L16.8283 4.27261L20.0997 1.56853L22.5867 4.5919L19.374 7.29599V7.29599Z" fill="#177F5F" />
    <path d="M40.1562 10.2642V20.6785C40.1562 23.2367 39.6149 25.2431 38.5361 26.6976C37.4535 28.1522 35.8648 28.8775 33.7623 28.8775C32.9503 28.8775 32.103 28.6922 31.2165 28.3256L30.4634 24.3996L30.7223 24.167C31.7461 24.439 32.7503 24.573 33.7309 24.573C35.351 24.573 36.1629 23.5245 36.1629 21.4314V10.2642H40.1562V10.2642Z" fill="#177F5F" />
    <path d="M50.2607 17.9428V21.928L49.9704 22.2473H43.4863V0.433289H47.5384V17.592H49.9704L50.2607 17.9428Z" fill="#177F5F" />
    <path d="M49.9704 17.592H55.5837C55.9681 17.592 56.1643 17.7852 56.1643 18.1754V21.6639C56.1643 22.0502 55.972 22.2473 55.5837 22.2473H49.9704C49.586 22.2473 49.3899 22.0542 49.3899 21.6639V18.1754C49.3899 17.7891 49.5821 17.592 49.9704 17.592V17.592Z" fill="#177F5F" />
    <path d="M55.5837 17.592H61.197C61.5814 17.592 61.7775 17.7852 61.7775 18.1754V21.6639C61.7775 22.0502 61.5853 22.2473 61.197 22.2473H55.5837C55.1993 22.2473 55.0032 22.0542 55.0032 21.6639V18.1754C55.0032 17.7891 55.1954 17.592 55.5837 17.592V17.592Z" fill="#177F5F" />
    <path d="M61.2009 17.592H66.8142C67.1986 17.592 67.3947 17.7852 67.3947 18.1754V21.6639C67.3947 22.0502 67.2025 22.2473 66.8142 22.2473H61.2009C60.8165 22.2473 60.6204 22.0542 60.6204 21.6639V18.1754C60.6204 17.7891 60.8126 17.592 61.2009 17.592V17.592Z" fill="#177F5F" />
    <path d="M66.8142 17.592H72.4275C72.8119 17.592 73.008 17.7852 73.008 18.1754V21.6639C73.008 22.0502 72.8158 22.2473 72.4275 22.2473H66.8142C66.4298 22.2473 66.2336 22.0542 66.2336 21.6639V18.1754C66.2336 17.7891 66.4259 17.592 66.8142 17.592V17.592Z" fill="#177F5F" />
    <path d="M85.8585 17.8561L84.9916 22.2473H72.4314L72.1411 21.8413V18.002L72.4314 17.596H75.6715C74.6477 16.5474 73.9847 15.2979 73.6749 13.8434C74.1966 11.9237 75.2047 10.4297 76.6992 9.36546C78.1937 8.30117 79.8569 7.76508 81.6927 7.76508C82.6773 7.76508 83.6815 7.8991 84.7013 8.17109V12.6214L84.4425 12.8264C83.6109 12.5938 82.5596 12.4756 81.2887 12.4756C79.9393 12.4756 78.6644 12.8264 77.468 13.5241C77.7779 14.746 78.3977 15.7315 79.3352 16.4765C80.2688 17.2215 81.3553 17.596 82.591 17.596H85.5996L85.8585 17.8561V17.8561Z" fill="#177F5F" />
</svg>
    