<svg width="25" height="24" viewBox="0 0 25 24" fill="none" xmlns="http://www.w3.org/2000/svg">
    <path d="M8.5 2V5" stroke="#006C4F" stroke-width="1.5" stroke-miterlimit="10" stroke-linecap="round" stroke-linejoin="round" />
    <path d="M16.5 2V5" stroke="#006C4F" stroke-width="1.5" stroke-miterlimit="10" stroke-linecap="round" stroke-linejoin="round" />
    <path d="M18.7 21.4C20.4673 21.4 21.9 19.9673 21.9 18.2C21.9 16.4327 20.4673 15 18.7 15C16.9327 15 15.5 16.4327 15.5 18.2C15.5 19.9673 16.9327 21.4 18.7 21.4Z" stroke="#006C4F" stroke-width="1.5" stroke-linecap="round" stroke-linejoin="round" />
    <path d="M22.5 22L21.5 21" stroke="#006C4F" stroke-width="1.5" stroke-linecap="round" stroke-linejoin="round" />
    <path opacity="0.4" d="M4 9.08997H21" stroke="#006C4F" stroke-width="1.5" stroke-miterlimit="10" stroke-linecap="round" stroke-linejoin="round" />
    <path d="M13.87 22H8.5C5 22 3.5 20 3.5 17V8.5C3.5 5.5 5 3.5 8.5 3.5H16.5C20 3.5 21.5 5.5 21.5 8.5V13" stroke="#006C4F" stroke-width="1.5" stroke-miterlimit="10" stroke-linecap="round" stroke-linejoin="round" />
    <path opacity="0.4" d="M12.4955 13.7H12.5045" stroke="#006C4F" stroke-width="2" stroke-linecap="round" stroke-linejoin="round" />
    <path opacity="0.4" d="M8.79431 13.7H8.80329" stroke="#006C4F" stroke-width="2" stroke-linecap="round" stroke-linejoin="round" />
    <path opacity="0.4" d="M8.79492 16.7H8.8039" stroke="#006C4F" stroke-width="2" stroke-linecap="round" stroke-linejoin="round" />
</svg>
    