<svg width="25" height="24" viewBox="0 0 25 24" fill="none" xmlns="http://www.w3.org/2000/svg">
<path d="M16.7656 8.53125C12.5009 8.53125 9.03125 12.0009 9.03125 16.2656C9.03125 20.5304 12.5009 24 16.7656 24C21.0304 24 24.5 20.5304 24.5 16.2656C24.5 12.0009 21.0304 8.53125 16.7656 8.53125ZM16.7656 15.5625C17.9288 15.5625 18.875 16.5087 18.875 17.6719C18.875 18.5873 18.2854 19.3605 17.4688 19.6517V21.1875H16.0625V19.6517C15.2458 19.3605 14.6562 18.5873 14.6562 17.6719H16.0625C16.0625 18.0598 16.3777 18.375 16.7656 18.375C17.1536 18.375 17.4688 18.0598 17.4688 17.6719C17.4688 17.2839 17.1536 16.9688 16.7656 16.9688C15.6025 16.9688 14.6562 16.0225 14.6562 14.8594C14.6562 13.9439 15.2458 13.1707 16.0625 12.8795V11.3438H17.4688V12.8795C18.2854 13.1707 18.875 13.9439 18.875 14.8594H17.4688C17.4688 14.4714 17.1536 14.1562 16.7656 14.1562C16.3777 14.1562 16.0625 14.4714 16.0625 14.8594C16.0625 15.2473 16.3777 15.5625 16.7656 15.5625ZM8.32812 8.53125C12.665 8.53125 16.0625 6.678 16.0625 4.3125C16.0625 1.947 12.665 0 8.32812 0C3.99125 0 0.5 1.947 0.5 4.3125C0.5 6.678 3.99125 8.53125 8.32812 8.53125ZM0.5 15.8231V16.9688C0.5 19.3342 3.99125 21.1875 8.32812 21.1875C8.57413 21.1875 8.81248 21.1649 9.05469 21.153C8.50796 20.294 8.1096 19.3492 7.87625 18.3581C4.74008 18.2715 2.01697 17.3078 0.5 15.8231ZM7.6588 16.9329C7.64267 16.7118 7.625 16.4909 7.625 16.2656C7.625 15.5326 7.72105 14.8232 7.88483 14.1397C4.74477 14.0546 2.01833 13.0904 0.5 11.6043V12.75C0.5 14.99 3.65291 16.7504 7.6588 16.9329ZM8.32812 12.75L8.33028 12.7499C8.79084 11.6493 9.46169 10.6491 10.3053 9.80541C9.67025 9.88566 9.014 9.9375 8.32812 9.9375C4.98983 9.9375 2.09028 8.94202 0.5 7.38558V8.53125C0.5 10.8968 3.99125 12.75 8.32812 12.75Z" fill="white"/>
</svg>
