<svg width="200" height="72" viewBox="0 0 200 72" fill="none" xmlns="http://www.w3.org/2000/svg">
<g clip-path="url(#clip0_309_2211)">
<path d="M76.0137 50.6995C75.3841 50.5596 74.7258 50.6101 74.1262 50.8444C73.5267 51.0787 73.0143 51.4856 72.6571 52.0111C72.4493 52.2843 72.3092 52.6008 72.2476 52.9357C72.1228 53.4648 72.1488 54.0172 72.3228 54.5329C72.4967 55.0485 72.8121 55.5077 73.2344 55.8606C73.7618 56.3101 74.4286 56.5734 75.1276 56.6082C75.6735 56.6376 76.2176 56.5243 76.7037 56.28C77.1899 56.0356 77.6006 55.669 77.8934 55.2179C78.0894 54.9477 78.2224 54.6388 78.2828 54.3129C78.4249 53.7036 78.3724 53.0664 78.1324 52.4871C77.8923 51.9078 77.4762 51.4144 76.9401 51.0733C76.6613 50.8871 76.3458 50.7598 76.0137 50.6995Z" fill="white"/>
<path d="M66.4682 50.6673C66.0051 50.6111 65.535 50.6593 65.094 50.8082C64.6529 50.9572 64.2527 51.2028 63.9239 51.5264C63.3516 52.0869 63.0303 52.8463 63.0303 53.638C63.0303 54.4297 63.3516 55.1891 63.9239 55.7497C64.2567 56.0658 64.6586 56.3039 65.0994 56.4459C65.5402 56.5879 66.0083 56.6302 66.4682 56.5694C67.0253 56.5265 67.5562 56.3208 67.9921 55.9792C68.3654 55.6987 68.6677 55.3382 68.8757 54.9254C69.0838 54.5127 69.192 54.0587 69.192 53.5987C69.192 53.1386 69.0838 52.6847 68.8757 52.272C68.6677 51.8592 68.3654 51.4987 67.9921 51.2181C67.5527 50.8885 67.0215 50.6965 66.4682 50.6673Z" fill="white"/>
<path d="M96.2474 15.6666C96.7693 15.6699 97.2834 15.5435 97.7415 15.2991C98.1995 15.0547 98.5864 14.7005 98.8655 14.2697C99.0563 14.0005 99.1846 13.6939 99.2415 13.3713C99.3884 12.7507 99.3328 12.1008 99.0823 11.5127C98.8319 10.9246 98.3992 10.4279 97.8451 10.0923C97.5613 9.90875 97.241 9.78582 96.9053 9.73158C96.2666 9.59811 95.6014 9.66068 95.0005 9.91072C94.3997 10.1608 93.8926 10.5861 93.5487 11.1284C93.367 11.3955 93.2457 11.6973 93.1929 12.0138C93.0808 12.5062 93.0984 13.0183 93.244 13.5023C93.3896 13.9863 93.6584 14.4263 94.0253 14.7812C94.3134 15.0702 94.6594 15.298 95.0418 15.4503C95.4241 15.6027 95.8346 15.6763 96.2474 15.6666Z" fill="white"/>
<path d="M104.955 15.6673C105.501 15.6967 106.046 15.5827 106.532 15.3371C107.019 15.0914 107.429 14.7231 107.72 14.2704C107.917 14.0036 108.048 13.6962 108.103 13.372C108.247 12.7626 108.196 12.1247 107.955 11.545C107.715 10.9654 107.298 10.4721 106.76 10.1323C106.487 9.94562 106.176 9.81817 105.847 9.75851C105.218 9.62142 104.561 9.6733 103.962 9.90733C103.363 10.1414 102.85 10.5467 102.491 11.0701C102.287 11.3421 102.149 11.6562 102.088 11.9882C101.96 12.5182 101.984 13.0726 102.158 13.59C102.332 14.1074 102.65 14.5676 103.075 14.9196C103.598 15.3677 104.26 15.631 104.955 15.6673Z" fill="white"/>
<path d="M121.349 39.059C120.799 39.0273 120.25 39.1379 119.757 39.3797C119.264 39.6215 118.846 39.9859 118.543 40.4362C118.337 40.7074 118.199 41.0218 118.14 41.3543C118.045 41.7836 118.047 42.2279 118.145 42.6565C118.244 43.085 118.436 43.4876 118.709 43.8363C118.983 44.185 119.33 44.4715 119.728 44.6759C120.126 44.8803 120.565 44.9979 121.014 45.0203C121.561 45.0523 122.107 44.9401 122.595 44.6956C123.082 44.451 123.494 44.083 123.786 43.63C123.983 43.3632 124.114 43.0557 124.169 42.7315C124.295 42.2063 124.273 41.6576 124.105 41.1438C123.937 40.6299 123.63 40.1701 123.215 39.8132C122.702 39.3573 122.042 39.0906 121.349 39.059Z" fill="white"/>
<path d="M115.004 36.3439C125.779 36.2718 123.577 29.1302 123.799 21.5491C123.797 20.9398 123.548 20.356 123.106 19.9257C122.664 19.4955 122.066 19.2538 121.442 19.2539H120.549C119.207 19.2539 118.535 19.9577 118.535 21.3655V28.3694C118.554 28.7956 118.469 29.2201 118.287 29.6078C118.105 29.9955 117.831 30.3353 117.488 30.5991C116.575 31.432 114.662 31.4123 113.326 31.3795H107.687C110.453 28.4153 110.07 22.9198 107.331 20.231C105.814 18.6243 103.511 17.8242 100.443 17.8242C97.6909 17.8242 95.2406 18.48 93.4817 20.231C90.7964 23.1231 90.6219 28.4022 93.2938 31.3795H87.6479C83.9691 31.5566 81.5658 30.7828 78.1488 29.0842C76.504 28.4285 75.8394 29.222 75.4232 30.5073C75.0473 31.5828 74.6713 32.5469 74.2954 33.3994C76.88 34.2716 80.5588 35.6291 80.8273 38.6458C80.7938 40.7968 79.3907 42.1018 76.9739 42.0494H68.6294C64.6753 42.2199 61.1375 39.4983 61.3859 35.2947C61.3873 33.3987 61.6561 31.5119 62.1847 29.6876C62.4035 29.1167 62.4035 28.4878 62.1847 27.9169C62.0127 27.7232 61.7953 27.5732 61.5509 27.4795C61.3066 27.3858 61.0426 27.3514 60.7817 27.3792C56.4785 27.2283 56.1898 32.1862 56.1361 35.2947C55.8743 42.3117 60.7011 47.1515 67.7097 46.9613C70.9455 46.8105 79.0685 47.5122 81.7269 46.0432C85.6407 44.3906 86.6745 39.8393 85.6273 36.3505L115.004 36.3439ZM104.23 27.9104C103.31 29.504 101.249 31.8911 99.2215 30.5336C96.6839 28.9859 95.4286 26.1528 97.3418 23.7133C98.4227 22.2049 102.075 22.1262 103.458 23.6215C104.022 24.1722 104.399 24.8794 104.537 25.6468C104.675 26.4143 104.568 27.2046 104.23 27.9104Z" fill="white"/>
<path d="M112.647 39.0666C112.184 39.0119 111.714 39.0609 111.273 39.2097C110.832 39.3586 110.432 39.6034 110.102 39.9257C109.531 40.4883 109.211 41.2484 109.211 42.0407C109.211 42.8329 109.531 43.5931 110.102 44.1556C110.433 44.4781 110.835 44.723 111.277 44.8718C111.719 45.0206 112.189 45.0695 112.653 45.0147C113.211 44.9679 113.741 44.7601 114.177 44.418C114.551 44.1367 114.853 43.7756 115.061 43.3623C115.269 42.949 115.377 42.4947 115.377 42.0341C115.377 41.5736 115.269 41.1192 115.061 40.7059C114.853 40.2926 114.551 39.9315 114.177 39.6503C113.737 39.3127 113.205 39.1096 112.647 39.0666Z" fill="white"/>
<path d="M186.244 15.6668C186.767 15.6707 187.283 15.5431 187.741 15.2962C188.2 15.0493 188.586 14.6914 188.862 14.2569C189.05 13.991 189.178 13.6893 189.238 13.3716C189.368 12.8108 189.331 12.2254 189.133 11.6841C188.934 11.1428 188.582 10.668 188.117 10.3155C187.677 9.96483 187.138 9.75423 186.573 9.7122C186.11 9.65602 185.64 9.70425 185.198 9.85317C184.757 10.0021 184.357 10.2477 184.028 10.5713C183.456 11.1319 183.135 11.8913 183.135 12.683C183.135 13.4747 183.456 14.234 184.028 14.7946C184.317 15.0801 184.663 15.3048 185.044 15.4548C185.425 15.6048 185.833 15.677 186.244 15.6668Z" fill="white"/>
<path d="M197.711 11.0898C197.418 10.6372 197.007 10.2696 196.519 10.0251C196.031 9.78059 195.486 9.66815 194.939 9.69947C194.242 9.73474 193.577 9.99809 193.052 10.4471C192.628 10.7986 192.311 11.2577 192.137 11.7738C191.963 12.2899 191.938 12.8429 192.065 13.3719C192.127 13.7036 192.265 14.0174 192.468 14.29C192.771 14.7399 193.19 15.104 193.682 15.3457C194.175 15.5874 194.724 15.6983 195.274 15.6672C195.967 15.6351 196.627 15.3685 197.14 14.9131C197.554 14.5558 197.861 14.0959 198.029 13.5822C198.196 13.0685 198.219 12.52 198.094 11.9948C198.039 11.6685 197.908 11.3589 197.711 11.0898Z" fill="white"/>
<path d="M193.589 21.3659V28.3698C193.615 28.7965 193.537 29.2231 193.36 29.6143C193.184 30.0055 192.915 30.35 192.575 30.6192C191.798 31.1717 190.85 31.4472 189.89 31.3996H186.634C185.769 31.415 184.905 31.3623 184.049 31.2422C183.418 31.1307 183.109 30.9274 183.109 30.5864V22.2971C183.108 21.4895 182.778 20.7155 182.193 20.1451C181.607 19.5746 180.814 19.2542 179.988 19.2542H179.921C178.542 19.2542 177.853 19.9581 177.853 21.3659V29.2683C177.881 29.8266 177.697 30.3754 177.336 30.8094C177.104 31.0199 176.83 31.1797 176.53 31.2781C176.23 31.3765 175.912 31.4112 175.597 31.3799H175.409C174.735 31.3727 174.062 31.3201 173.395 31.2226C172.639 31.1227 171.934 30.7922 171.381 30.2782V24.5203C171.381 23.8785 171.12 23.263 170.656 22.8092C170.191 22.3554 169.561 22.1004 168.904 22.1004H168.139C166.796 22.1004 166.125 22.8087 166.125 24.2121V29.7273C166.14 30.046 166.029 30.3581 165.816 30.5995C165.608 30.8167 165.35 30.983 165.064 31.0848C164.745 31.1965 164.414 31.2734 164.077 31.3144C163.741 31.3576 163.403 31.3795 163.064 31.3799C162.26 31.4153 161.456 31.3155 160.687 31.0848C160.332 30.9647 159.994 30.8016 159.68 30.5995V24.2842C159.68 23.705 159.445 23.1496 159.025 22.74C158.606 22.3305 158.038 22.1004 157.445 22.1004H156.485C155.102 22.1004 154.41 22.8087 154.41 24.2121V29.1765C154.428 29.7286 154.273 30.2728 153.967 30.7372C153.767 30.9745 153.509 31.1589 153.217 31.2735C152.925 31.3881 152.608 31.4292 152.296 31.393H146.791V23.1956C146.797 22.1655 146.444 21.1642 145.79 20.3562C145.136 19.5482 144.22 18.9815 143.193 18.7493H143.146C141.794 18.4582 140.414 18.3131 139.03 18.3165C135.705 18.3165 133.167 19.0881 131.418 20.6314C129.668 22.1747 128.788 24.5116 128.779 27.6419C128.779 30.6455 129.556 32.8511 131.109 34.2589C132.662 35.6667 135.036 36.3706 138.231 36.3706H141.528C141.528 37.5313 141.494 38.3839 141.434 38.9216C141.373 39.4359 141.214 39.9343 140.964 40.3906C140.703 40.8368 140.319 41.2026 139.856 41.4464C139.2 41.738 138.481 41.8707 137.762 41.8333C136.915 41.8234 136.072 41.7311 135.244 41.5579L134.835 41.4792C134.224 41.3461 133.584 41.455 133.056 41.7821C132.527 42.1091 132.153 42.6275 132.015 43.2236L131.888 43.8139C131.809 44.0762 131.791 44.3524 131.835 44.6223C131.879 44.8923 131.984 45.1493 132.143 45.3747C132.624 45.8033 133.22 46.0898 133.861 46.201C134.531 46.3936 135.216 46.5318 135.909 46.6141C136.538 46.6986 137.173 46.7446 137.809 46.7518C139.069 46.7698 140.326 46.6243 141.548 46.319C142.585 46.0478 143.538 45.5347 144.327 44.8238C145.153 44.017 145.758 43.0202 146.086 41.9252C146.566 40.1118 146.792 38.2432 146.757 36.3706H153.202C154.177 36.3915 155.147 36.2427 156.068 35.9312C156.813 35.6779 157.498 35.2809 158.082 34.7639C158.869 35.3181 159.751 35.7291 160.687 35.9771C161.489 36.2153 162.32 36.3476 163.158 36.3706H164.05C165.209 36.296 166.345 36.023 167.407 35.5639C168.122 35.2524 168.787 34.8416 169.381 34.3441C170.05 34.8711 170.785 35.3119 171.569 35.6557C172.762 36.1613 174.056 36.3967 175.356 36.3443H176.577C177.565 36.3616 178.544 36.1644 179.444 35.7672C180.193 35.4461 180.892 35.0221 181.518 34.5081C182.328 35.0643 183.214 35.5059 184.15 35.8197C184.93 36.118 185.756 36.2887 186.593 36.3247H190.031C192.971 36.3247 195.18 35.7213 196.636 34.5081C198.093 33.2949 198.818 31.4258 198.818 28.8813V22.0348C198.818 21.3075 198.527 20.609 198.006 20.0892C197.485 19.5694 196.777 19.2697 196.032 19.2542H195.636C194.271 19.2542 193.589 19.9581 193.589 21.3659ZM141.528 31.3799H138.044C137.038 31.4235 136.043 31.1599 135.197 30.6258C134.465 30.1208 134.096 29.0519 134.096 27.432C134.096 25.8122 134.499 24.658 135.318 23.9825C136.137 23.3071 137.433 22.9726 139.218 22.9726C139.997 22.9716 140.772 23.0642 141.528 23.2481V31.3799Z" fill="white"/>
<path d="M84.5935 55.3036V57.3694H89.0309V70.1508H92.4614V57.3694H95.5898C95.7732 57.3818 95.9572 57.3541 96.1282 57.2883C96.2993 57.2224 96.4532 57.1201 96.5786 56.9888C96.7041 56.8575 96.7979 56.7004 96.8533 56.5291C96.9087 56.3578 96.9242 56.1766 96.8988 55.9987V54.0314H85.9362C85.7586 54.0125 85.579 54.0321 85.4101 54.0888C85.2412 54.1455 85.0871 54.2379 84.9589 54.3594C84.8307 54.4809 84.7315 54.6285 84.6684 54.7917C84.6052 54.9549 84.5796 55.1297 84.5935 55.3036Z" fill="#E5B32C"/>
<path d="M106.318 55.3754C105.606 53.4408 103.176 53.408 102.545 55.3754C99.8595 62.3706 98.1611 66.771 97.4495 68.5766C97.1743 69.4029 97.3622 70.203 98.5907 70.2358H100.605L101.759 67.0092H107.023L108.224 70.2358H110.198C111.473 70.203 111.661 69.4291 111.393 68.5832L106.318 55.3754ZM105.828 63.7237H103.035L104.425 59.7889L105.828 63.7237Z" fill="#E5B32C"/>
<path d="M126.625 62.596C124.779 59.2186 118.657 61.3696 118.368 58.7333C118.368 56.6348 121.093 57.166 122.879 57.3693C125.611 58.025 126.907 58.6809 126.632 55.1002C123.242 53.8739 117.616 52.7065 115.394 56.4118C114.051 58.9628 115.354 62.6091 118.462 63.0944C120.154 63.6321 122.255 63.1337 123.557 64.406C125.115 67.7899 119.355 67.2456 117.327 66.6225C114.642 65.4946 115.186 67.8948 115.152 69.5474C121.147 71.4164 129.881 70.7213 126.625 62.596Z" fill="#E5B32C"/>
<path d="M148.583 54.1299C148.058 54.1297 147.547 54.3033 147.135 54.6224C146.723 54.9415 146.434 55.3873 146.314 55.8874L144.3 64.4128L141.796 58.2549L142.172 57.2843C142.931 54.7791 139.084 55.3562 138.655 57.1466L136.077 64.0652L134.11 55.7825C133.787 53.8151 130.082 53.3954 130.652 55.9268L133.599 68.3738C134.009 70.0264 134.942 70.3412 135.667 70.3412C136.688 70.3412 137.453 69.6854 137.936 68.4066L140.064 62.7012L142.448 68.4459C143.314 70.7609 146.066 71.2987 146.804 68.341L149.778 55.7956C150.047 54.8316 149.637 54.1299 148.583 54.1299Z" fill="#E5B32C"/>
<path d="M153.31 56.8903V67.7765C153.31 68.911 153.806 70.2554 156.163 70.2554H163.057C163.249 70.2773 163.444 70.2583 163.628 70.1997C163.812 70.1412 163.981 70.0444 164.124 69.9161C164.266 69.7878 164.378 69.6309 164.452 69.4563C164.527 69.2817 164.561 69.0935 164.554 68.9045V66.9371H156.74V63.5204H160.922C161.306 63.5464 161.685 63.4239 161.976 63.1794C162.601 62.6875 162.292 60.871 162.359 60.1758H156.74V57.4805H163.198C163.382 57.4953 163.568 57.47 163.741 57.4063C163.914 57.3427 164.07 57.2423 164.199 57.1124C164.327 56.9825 164.424 56.8264 164.484 56.6553C164.543 56.4842 164.562 56.3024 164.541 56.123V54.1556H156.371C153.84 54.1294 153.31 55.6311 153.31 56.8903Z" fill="#E5B32C"/>
<path d="M180.766 56.4709C178.645 53.028 171.529 53.0149 169.414 56.4709C167.629 59.4286 167.494 66.6227 170.395 68.9966C171.105 69.5947 171.96 70.0055 172.878 70.1902L179.988 71.9543C182.002 72.315 181.532 70.3017 181.585 69.0557L180.102 68.7343C182.539 66.216 182.498 59.3433 180.766 56.4709ZM173.254 57.4284C175.436 56.4971 178.162 57.3169 178.37 59.9794C178.558 62.1304 179.001 65.6127 176.879 66.9178C175.711 67.3573 174.416 67.3573 173.248 66.9178C172.261 66.4062 171.952 65.475 171.764 64.3602C171.61 62.2354 171.12 58.7268 173.254 57.4284Z" fill="#E5B32C"/>
<path d="M199.926 54.8374C199.825 54.6055 199.65 54.4114 199.428 54.2839C199.206 54.1563 198.947 54.1021 198.691 54.1292H196.784L192.615 60.0314L188.433 54.1292C187.849 54.1816 186.164 53.9652 185.707 54.3522C185.578 54.4498 185.47 54.5727 185.392 54.7132C185.314 54.8536 185.267 55.0084 185.254 55.1677C185.241 55.327 185.262 55.4872 185.315 55.6381C185.369 55.789 185.455 55.9273 185.566 56.0441L190.937 63.671V70.229H193.051C193.236 70.2474 193.422 70.2247 193.597 70.1628C193.771 70.1008 193.928 70.001 194.058 69.8711C194.187 69.7411 194.284 69.5843 194.342 69.4123C194.401 69.2403 194.418 69.0577 194.394 68.8781V63.7169L199.832 55.9261C199.93 55.7632 199.99 55.5807 200.006 55.3922C200.022 55.2038 199.995 55.0141 199.926 54.8374Z" fill="#E5B32C"/>
<path d="M83.0151 70.2555H56.5449L58.1091 62.9434H84.5726L83.0151 70.2555Z" fill="#C7C7C7"/>
<path d="M58.4791 1.17551e-05L49.9131 18.8542H73.933L80.0823 6.1973C80.4029 5.53482 80.5467 4.80382 80.5003 4.07242C80.4538 3.34101 80.2186 2.63301 79.8165 2.01437C79.4144 1.39572 78.8585 0.886556 78.2007 0.534338C77.5429 0.18212 76.8045 -0.00169333 76.0543 1.17551e-05H58.4791Z" fill="#C7C7C7"/>
<path d="M6.136 5.3513L0.00683594 18.8542H24.0267L33.1835 0H14.5544C12.7715 0.000370468 11.0271 0.506187 9.5328 1.45608C8.03848 2.40598 6.85849 3.75911 6.136 5.3513Z" fill="white"/>
<path d="M10.8281 46.3586L20.8979 68.0393C21.1398 68.5593 21.5291 69.0008 22.0197 69.3115C22.5103 69.6222 23.0818 69.7892 23.6665 69.7926C24.2512 69.7961 24.8246 69.6359 25.3191 69.331C25.8135 69.0261 26.2082 68.5892 26.4565 68.0721L49.9527 18.8545H24.0196L10.8281 46.3586Z" fill="#E5B32C"/>
</g>
<defs>
<clipPath id="clip0_309_2211">
<rect width="200" height="72" fill="white"/>
</clipPath>
</defs>
</svg>
