<svg width="112" height="120" viewBox="0 0 112 120" fill="none" xmlns="http://www.w3.org/2000/svg">
<path fill-rule="evenodd" clip-rule="evenodd" d="M44.5678 10.9781C55.691 10.9781 64.8106 20.0742 64.8106 31.1686V46.4927H75.817V31.1686C75.8173 14.0102 61.7639 0 44.5678 0C27.3717 0 13.3184 14.0102 13.3184 31.1686V46.4927H24.3248V31.1686C24.3251 20.0742 33.4446 10.9781 44.5678 10.9781Z" fill="#DEDBEE"/>
<path fill-rule="evenodd" clip-rule="evenodd" d="M75.8173 31.1686C75.8173 14.0102 61.7639 6.82536e-06 44.5678 6.82536e-06C41.1409 -0.00226374 37.7372 0.561983 34.4944 1.66993C35.7714 1.51043 37.0571 1.43044 38.344 1.4304C55.5401 1.4304 69.5934 15.4474 69.5934 32.599V46.4927H75.8173V31.1686Z" fill="#D2CFE9"/>
<path fill-rule="evenodd" clip-rule="evenodd" d="M11.9942 44.0837C5.5027 44.0837 0.191528 49.3811 0.191528 55.8559V73.3703C0.191528 97.7153 20.1598 117.632 44.5679 117.632C52.8708 117.632 60.6591 115.326 67.3154 111.329L88.9442 69.5101V55.8559C88.9442 49.3813 83.633 44.0837 77.1415 44.0837H11.9942Z" fill="#ECB154"/>
<path fill-rule="evenodd" clip-rule="evenodd" d="M44.5679 61.3037C39.2635 61.3037 34.9611 65.5881 34.9611 70.8789C34.9611 74.2942 36.7519 77.285 39.4418 78.9892L37.4255 92.0936C37.4101 92.1938 37.4165 92.2961 37.4444 92.3936C37.4722 92.491 37.5208 92.5813 37.5868 92.6583C37.6528 92.7352 37.7347 92.797 37.8268 92.8393C37.9189 92.8816 38.0191 92.9036 38.1204 92.9036H51.0148C51.1162 92.9036 51.2164 92.8816 51.3085 92.8393C51.4006 92.797 51.4824 92.7352 51.5484 92.6583C51.6144 92.5813 51.663 92.491 51.6909 92.3936C51.7187 92.2961 51.7251 92.1938 51.7097 92.0936L49.6934 78.9892C52.3833 77.285 54.1742 74.2939 54.1742 70.8789C54.1747 65.5881 49.8722 61.3037 44.5679 61.3037Z" fill="white"/>
<path fill-rule="evenodd" clip-rule="evenodd" d="M86.4328 69.3867C72.4207 69.3867 61.0641 80.7138 61.0641 94.6898C61.0641 101.062 63.4247 106.879 67.3153 111.328C71.9677 116.639 78.8091 120 86.4328 120C100.445 120 111.808 108.666 111.808 94.6898C111.808 81.5625 101.783 70.7693 88.9444 69.51C88.1098 69.4272 87.2716 69.3861 86.4328 69.3867Z" fill="#0D5E3F"/>
<path fill-rule="evenodd" clip-rule="evenodd" d="M42.9896 61.427C46.599 62.83 49.1654 66.3754 49.1654 70.5231C49.1689 72.1621 48.7604 73.7757 47.9775 75.2156C47.1945 76.6555 46.0622 77.8755 44.6846 78.7635L46.8256 92.9036H51.0153C51.1167 92.9036 51.2169 92.8816 51.309 92.8393C51.4011 92.797 51.4829 92.7352 51.5489 92.6583C51.6149 92.5813 51.6635 92.491 51.6914 92.3936C51.7192 92.2961 51.7257 92.1938 51.7103 92.0936L49.6939 78.9892C52.3838 77.285 54.1747 74.2939 54.1747 70.8789C54.1747 65.5883 49.8723 61.3037 44.5679 61.3037C44.0328 61.3037 43.5043 61.3447 42.9896 61.427Z" fill="#3A3A3A"/>
<path fill-rule="evenodd" clip-rule="evenodd" d="M111.808 94.6898C111.808 81.5625 101.783 70.7693 88.9444 69.51C88.121 69.428 87.2839 69.3867 86.4328 69.3867C84.642 69.3867 82.8851 69.5714 81.1971 69.9274C94.0015 71.2141 103.999 81.9937 103.999 95.1073C103.999 107.29 95.3602 117.461 83.8664 119.87C84.7104 119.952 85.5682 120 86.4328 120C100.445 120 111.808 108.666 111.808 94.6898Z" fill="#075638"/>
<path fill-rule="evenodd" clip-rule="evenodd" d="M88.9441 55.8557C88.9441 49.3811 83.633 44.0835 77.1415 44.0835H64.8103C71.3018 44.0835 76.613 49.3808 76.613 55.8557V71.3512C78.0745 70.742 79.6115 70.2562 81.1969 69.9276C82.9187 69.5665 84.6733 69.3853 86.4326 69.3869C87.2833 69.3869 88.1205 69.4279 88.9441 69.5101V55.8557Z" fill="#C0904D"/>
<path d="M86.4328 104.612C86.195 104.612 85.9595 104.565 85.7398 104.474C85.5201 104.383 85.3205 104.249 85.1523 104.081C84.9842 103.913 84.8508 103.714 84.7598 103.494C84.6688 103.274 84.622 103.039 84.622 102.801V94.656C84.622 94.1758 84.8128 93.7152 85.1524 93.3756C85.492 93.036 85.9526 92.8453 86.4328 92.8453C88.0997 92.8453 89.6487 92.1801 90.7952 90.9728C91.9331 89.7742 92.5125 88.2039 92.4265 86.5509C92.2634 83.4396 89.6869 80.9524 86.561 80.8893C86.5192 80.8884 86.4774 80.8879 86.4356 80.8879C83.4471 80.8879 80.9044 83.0777 80.4931 86.0292C80.4552 86.3069 80.4358 86.5869 80.4352 86.8673C80.4352 87.3475 80.2444 87.8081 79.9048 88.1477C79.5652 88.4873 79.1046 88.6781 78.6244 88.6781C78.1441 88.6781 77.6836 88.4873 77.344 88.1477C77.0044 87.8081 76.8136 87.3475 76.8136 86.8673C76.8136 86.4349 76.8445 85.987 76.9052 85.5365C77.5767 80.7196 81.7577 77.1726 86.6349 77.268C91.6481 77.3692 95.7813 81.3637 96.0436 86.3617C96.1819 89.0172 95.2509 91.54 93.4224 93.4661C92.032 94.9303 90.2077 95.9151 88.2441 96.2934V102.801C88.2439 103.281 88.053 103.741 87.7133 104.081C87.3737 104.421 86.9131 104.611 86.4328 104.612ZM86.4349 112.12C86.1717 112.12 85.9117 112.063 85.6728 111.953C85.4339 111.842 85.222 111.681 85.0517 111.48C84.8815 111.279 84.7571 111.044 84.6871 110.79C84.6172 110.537 84.6034 110.271 84.6467 110.011L84.6534 109.97C84.6923 109.735 84.777 109.511 84.9028 109.309C85.0286 109.107 85.193 108.932 85.3866 108.794C85.5801 108.655 85.7991 108.557 86.0308 108.503C86.2626 108.449 86.5027 108.442 86.7373 108.482C87.2109 108.561 87.6338 108.825 87.913 109.215C88.1921 109.606 88.3046 110.092 88.2258 110.565L88.219 110.606C88.1485 111.029 87.9307 111.413 87.6041 111.69C87.2775 111.967 86.8632 112.119 86.4349 112.12Z" fill="#F4EAFA"/>
</svg>
