<svg width="24" height="24" viewBox="0 0 24 24" fill="none" xmlns="http://www.w3.org/2000/svg">
    <path d="M11.9997 5.83771C8.59687 5.83771 5.83781 8.59729 5.83781 12C5.83781 15.4035 8.59687 18.1619 11.9997 18.1619C15.4031 18.1619 18.1627 15.4035 18.1627 12C18.1627 8.59729 15.4031 5.83771 11.9997 5.83771ZM11.9997 16.0002C9.79092 16.0002 7.99955 14.2094 7.99955 12C7.99955 9.79077 9.79087 7.99996 11.9997 7.99996C14.2089 7.99996 16.0003 9.79077 16.0003 12C16.0003 14.2093 14.2089 16.0002 11.9997 16.0002ZM19.8457 5.59457C19.8457 6.38919 19.2008 7.03405 18.4057 7.03405C17.6106 7.03405 16.9657 6.38919 16.9657 5.59457C16.9657 4.79962 17.6105 4.15457 18.4057 4.15457C19.2008 4.15457 19.8457 4.79962 19.8457 5.59457ZM23.37 4.1398C23.0632 3.35034 22.653 2.68143 21.9862 2.01421C20.6412 0.668194 18.801 0.156507 16.9479 0.0726006C15.6678 0.0134443 15.2591 0.000366211 11.9997 0.000366211C8.74134 0.000366211 8.33269 0.0134443 7.05253 0.0726006C5.19502 0.156694 3.35691 0.671569 2.01436 2.01416C0.666562 3.36196 0.157266 5.19651 0.0720469 7.0529C0.0137344 8.33305 0 8.74124 0 12C0 15.2589 0.0137344 15.6677 0.0720469 16.9484C0.157641 18.8112 0.666047 20.6388 2.01427 21.9861C3.3623 23.3331 5.19628 23.8431 7.05253 23.9281C8.33269 23.9866 8.74134 23.9998 11.9997 23.9998C15.2592 23.9998 15.6678 23.9866 16.948 23.9281C18.8085 23.8429 20.6408 23.3324 21.9862 21.9861C23.3306 20.6406 23.8436 18.8006 23.9278 16.9483C23.9863 15.6677 24 15.2588 24 12C24 8.74115 23.9863 8.33301 23.9278 7.05285C23.8698 5.77527 23.6669 4.9033 23.37 4.1398ZM21.7677 16.8491C21.7085 18.1525 21.4057 19.5082 20.4573 20.4577C19.4965 21.4198 18.1609 21.7084 16.8494 21.7682C15.5837 21.8256 15.2047 21.8381 11.9997 21.8381C8.79586 21.8381 8.41683 21.8255 7.15102 21.7682C5.83617 21.7083 4.50272 21.4148 3.54267 20.4578C2.58539 19.5036 2.29078 18.1516 2.23214 16.8491C2.17481 15.584 2.16225 15.2045 2.16225 12C2.16225 8.79618 2.17486 8.41668 2.23214 7.15087C2.29059 5.85351 2.59927 4.48785 3.54248 3.54304C4.49883 2.5851 5.84616 2.29199 7.15111 2.23246C8.41683 2.17466 8.79586 2.16257 11.9997 2.16257C15.2042 2.16257 15.5837 2.17466 16.8495 2.23246C18.1635 2.29241 19.4992 2.58454 20.4572 3.54285C21.4156 4.50163 21.7083 5.8439 21.7677 7.15096C21.8257 8.41668 21.8383 8.79618 21.8383 12C21.8383 15.2046 21.8257 15.5841 21.7677 16.8491Z" fill="url(#paint0_linear_763_4777)" />
    <defs>
        <linearGradient id="paint0_linear_763_4777" x1="2.01431" y1="21.9861" x2="21.9862" y2="2.01421" gradientUnits="userSpaceOnUse">
            <stop stop-color="#FDD91D" />
            <stop offset="0.05" stop-color="#FDD91D" />
            <stop offset="0.4972" stop-color="#EC1C24" />
            <stop offset="0.95" stop-color="#A43A94" />
            <stop offset="1" stop-color="#A43A94" />
        </linearGradient>
    </defs>
</svg>
    