<svg width="20" height="21" viewBox="0 0 20 21" fill="none" xmlns="http://www.w3.org/2000/svg">
<path d="M9.99935 7.79199C9.28105 7.79199 8.59218 8.07733 8.08427 8.58525C7.57636 9.09316 7.29102 9.78203 7.29102 10.5003C7.29102 11.2186 7.57636 11.9075 8.08427 12.4154C8.59218 12.9233 9.28105 13.2087 9.99935 13.2087C10.7176 13.2087 11.4065 12.9233 11.9144 12.4154C12.4223 11.9075 12.7077 11.2186 12.7077 10.5003C12.7077 9.78203 12.4223 9.09316 11.9144 8.58525C11.4065 8.07733 10.7176 7.79199 9.99935 7.79199Z" fill="white"/>
<path fill-rule="evenodd" clip-rule="evenodd" d="M5.64168 3.06796C8.53837 2.74688 11.4617 2.74688 14.3583 3.06796C15.9408 3.24463 17.2167 4.49046 17.4025 6.07879C17.746 9.01601 17.746 11.9832 17.4025 14.9205C17.2167 16.5088 15.9408 17.7546 14.3592 17.9321C11.4622 18.2533 8.53864 18.2533 5.64168 17.9321C4.05918 17.7546 2.78335 16.5088 2.59751 14.9213C2.25395 11.9838 2.25395 9.01628 2.59751 6.07879C2.78335 4.49046 4.05918 3.24463 5.64168 3.06796ZM14.1667 5.49963C13.9457 5.49963 13.7337 5.58742 13.5774 5.74371C13.4211 5.89999 13.3333 6.11195 13.3333 6.33296C13.3333 6.55397 13.4211 6.76594 13.5774 6.92222C13.7337 7.0785 13.9457 7.16629 14.1667 7.16629C14.3877 7.16629 14.5997 7.0785 14.7559 6.92222C14.9122 6.76594 15 6.55397 15 6.33296C15 6.11195 14.9122 5.89999 14.7559 5.74371C14.5997 5.58742 14.3877 5.49963 14.1667 5.49963ZM6.04168 10.4996C6.04168 9.44981 6.45872 8.44299 7.20105 7.70066C7.94338 6.95833 8.9502 6.54129 10 6.54129C11.0498 6.54129 12.0566 6.95833 12.799 7.70066C13.5413 8.44299 13.9583 9.44981 13.9583 10.4996C13.9583 11.5494 13.5413 12.5563 12.799 13.2986C12.0566 14.0409 11.0498 14.458 10 14.458C8.9502 14.458 7.94338 14.0409 7.20105 13.2986C6.45872 12.5563 6.04168 11.5494 6.04168 10.4996Z" fill="white"/>
</svg>
