<svg width="766" height="621" viewBox="0 0 766 621" fill="none" xmlns="http://www.w3.org/2000/svg">
    <path d="M-313.207 131.874L-306.136 124.802L178.939 616.949L-313.207 131.874Z" fill="url(#paint0_linear_67_1610)" />
    <path d="M-289.872 108.539L-282.801 101.468L202.274 593.614L-289.872 108.539Z" fill="url(#paint1_linear_67_1610)" />
    <path d="M-266.538 85.2046L-259.467 78.1335L225.608 570.28L-266.538 85.2046Z" fill="url(#paint2_linear_67_1610)" />
    <path d="M-243.203 61.8701L-236.132 54.799L248.943 546.945L-243.203 61.8701Z" fill="url(#paint3_linear_67_1610)" />
    <path d="M-219.869 38.5356L-212.798 31.4646L272.277 523.611L-219.869 38.5356Z" fill="url(#paint4_linear_67_1610)" />
    <path d="M-196.534 15.2007L-189.463 8.12962L295.612 500.276L-196.534 15.2007Z" fill="url(#paint5_linear_67_1610)" />
    <path d="M-173.2 -8.13379L-166.129 -15.2049L318.946 476.941L-173.2 -8.13379Z" fill="url(#paint6_linear_67_1610)" />
    <path d="M-149.865 -31.4683L-142.794 -38.5393L342.281 453.607L-149.865 -31.4683Z" fill="url(#paint7_linear_67_1610)" />
    <path d="M-126.531 -54.8027L-119.46 -61.8738L365.615 430.273L-126.531 -54.8027Z" fill="url(#paint8_linear_67_1610)" />
    <path d="M-103.196 -78.1372L-96.1252 -85.2083L388.95 406.938L-103.196 -78.1372Z" fill="url(#paint9_linear_67_1610)" />
    <path d="M-79.8613 -101.472L-72.7903 -108.543L412.285 383.604L-79.8613 -101.472Z" fill="url(#paint10_linear_67_1610)" />
    <path d="M-56.5273 -124.806L-49.4563 -131.877L435.619 360.269L-56.5273 -124.806Z" fill="url(#paint11_linear_67_1610)" />
    <path d="M-33.1924 -148.141L-26.1213 -155.212L458.954 336.935L-33.1924 -148.141Z" fill="url(#paint12_linear_67_1610)" />
    <path d="M-9.8584 -171.475L-2.78733 -178.546L482.288 313.6L-9.8584 -171.475Z" fill="url(#paint13_linear_67_1610)" />
    <path d="M13.4766 -194.81L20.5476 -201.881L505.623 290.266L13.4766 -194.81Z" fill="url(#paint14_linear_67_1610)" />
    <path d="M36.8105 -218.145L43.8816 -225.216L528.957 266.931L36.8105 -218.145Z" fill="url(#paint15_linear_67_1610)" />
    <path d="M60.1455 -241.479L67.2166 -248.55L552.292 243.596L60.1455 -241.479Z" fill="url(#paint16_linear_67_1610)" />
    <path d="M83.4795 -264.813L90.5506 -271.885L575.626 220.262L83.4795 -264.813Z" fill="url(#paint17_linear_67_1610)" />
    <path d="M106.814 -288.148L113.886 -295.219L598.961 196.927L106.814 -288.148Z" fill="url(#paint18_linear_67_1610)" />
    <path d="M130.148 -311.482L137.22 -318.553L622.295 173.593L130.148 -311.482Z" fill="url(#paint19_linear_67_1610)" />
    <path d="M153.483 -334.817L160.554 -341.888L645.63 150.258L153.483 -334.817Z" fill="url(#paint20_linear_67_1610)" />
    <path d="M176.818 -358.151L183.889 -365.222L668.965 126.924L176.818 -358.151Z" fill="url(#paint21_linear_67_1610)" />
    <path d="M200.152 -381.486L207.223 -388.557L692.299 103.589L200.152 -381.486Z" fill="url(#paint22_linear_67_1610)" />
    <path d="M223.487 -404.821L230.558 -411.892L715.634 80.2547L223.487 -404.821Z" fill="url(#paint23_linear_67_1610)" />
    <path d="M246.821 -428.155L253.892 -435.226L738.968 56.9202L246.821 -428.155Z" fill="url(#paint24_linear_67_1610)" />
    <path d="M270.156 -451.49L277.227 -458.561L762.303 33.5857L270.156 -451.49Z" fill="url(#paint25_linear_67_1610)" />
    <defs>
        <linearGradient id="paint0_linear_67_1610" x1="-309.671" y1="128.338" x2="178.939" y2="616.949" gradientUnits="userSpaceOnUse">
            <stop stop-color="#577C8E" />
            <stop offset="1" stop-color="#577C8E" stop-opacity="0" />
        </linearGradient>
        <linearGradient id="paint1_linear_67_1610" x1="-286.337" y1="105.004" x2="202.274" y2="593.614" gradientUnits="userSpaceOnUse">
            <stop stop-color="#577C8E" />
            <stop offset="1" stop-color="#577C8E" stop-opacity="0" />
        </linearGradient>
        <linearGradient id="paint2_linear_67_1610" x1="-263.003" y1="81.6691" x2="225.608" y2="570.28" gradientUnits="userSpaceOnUse">
            <stop stop-color="#577C8E" />
            <stop offset="1" stop-color="#577C8E" stop-opacity="0" />
        </linearGradient>
        <linearGradient id="paint3_linear_67_1610" x1="-239.668" y1="58.3346" x2="248.943" y2="546.945" gradientUnits="userSpaceOnUse">
            <stop stop-color="#577C8E" />
            <stop offset="1" stop-color="#577C8E" stop-opacity="0" />
        </linearGradient>
        <linearGradient id="paint4_linear_67_1610" x1="-216.334" y1="35.0001" x2="272.277" y2="523.611" gradientUnits="userSpaceOnUse">
            <stop stop-color="#577C8E" />
            <stop offset="1" stop-color="#577C8E" stop-opacity="0" />
        </linearGradient>
        <linearGradient id="paint5_linear_67_1610" x1="-192.999" y1="11.6651" x2="295.612" y2="500.276" gradientUnits="userSpaceOnUse">
            <stop stop-color="#577C8E" />
            <stop offset="1" stop-color="#577C8E" stop-opacity="0" />
        </linearGradient>
        <linearGradient id="paint6_linear_67_1610" x1="-169.665" y1="-11.6693" x2="318.946" y2="476.941" gradientUnits="userSpaceOnUse">
            <stop stop-color="#577C8E" />
            <stop offset="1" stop-color="#577C8E" stop-opacity="0" />
        </linearGradient>
        <linearGradient id="paint7_linear_67_1610" x1="-146.33" y1="-35.0038" x2="342.281" y2="453.607" gradientUnits="userSpaceOnUse">
            <stop stop-color="#577C8E" />
            <stop offset="1" stop-color="#577C8E" stop-opacity="0" />
        </linearGradient>
        <linearGradient id="paint8_linear_67_1610" x1="-122.996" y1="-58.3383" x2="365.615" y2="430.273" gradientUnits="userSpaceOnUse">
            <stop stop-color="#577C8E" />
            <stop offset="1" stop-color="#577C8E" stop-opacity="0" />
        </linearGradient>
        <linearGradient id="paint9_linear_67_1610" x1="-99.6608" y1="-81.6727" x2="388.95" y2="406.938" gradientUnits="userSpaceOnUse">
            <stop stop-color="#577C8E" />
            <stop offset="1" stop-color="#577C8E" stop-opacity="0" />
        </linearGradient>
        <linearGradient id="paint10_linear_67_1610" x1="-76.3258" y1="-105.007" x2="412.285" y2="383.604" gradientUnits="userSpaceOnUse">
            <stop stop-color="#577C8E" />
            <stop offset="1" stop-color="#577C8E" stop-opacity="0" />
        </linearGradient>
        <linearGradient id="paint11_linear_67_1610" x1="-52.9918" y1="-128.342" x2="435.619" y2="360.269" gradientUnits="userSpaceOnUse">
            <stop stop-color="#577C8E" />
            <stop offset="1" stop-color="#577C8E" stop-opacity="0" />
        </linearGradient>
        <linearGradient id="paint12_linear_67_1610" x1="-29.6568" y1="-151.676" x2="458.954" y2="336.935" gradientUnits="userSpaceOnUse">
            <stop stop-color="#577C8E" />
            <stop offset="1" stop-color="#577C8E" stop-opacity="0" />
        </linearGradient>
        <linearGradient id="paint13_linear_67_1610" x1="-6.32286" y1="-175.011" x2="482.288" y2="313.6" gradientUnits="userSpaceOnUse">
            <stop stop-color="#577C8E" />
            <stop offset="1" stop-color="#577C8E" stop-opacity="0" />
        </linearGradient>
        <linearGradient id="paint14_linear_67_1610" x1="17.0121" y1="-198.345" x2="505.623" y2="290.266" gradientUnits="userSpaceOnUse">
            <stop stop-color="#577C8E" />
            <stop offset="1" stop-color="#577C8E" stop-opacity="0" />
        </linearGradient>
        <linearGradient id="paint15_linear_67_1610" x1="40.3461" y1="-221.68" x2="528.957" y2="266.931" gradientUnits="userSpaceOnUse">
            <stop stop-color="#577C8E" />
            <stop offset="1" stop-color="#577C8E" stop-opacity="0" />
        </linearGradient>
        <linearGradient id="paint16_linear_67_1610" x1="63.681" y1="-245.015" x2="552.292" y2="243.596" gradientUnits="userSpaceOnUse">
            <stop stop-color="#577C8E" />
            <stop offset="1" stop-color="#577C8E" stop-opacity="0" />
        </linearGradient>
        <linearGradient id="paint17_linear_67_1610" x1="87.015" y1="-268.349" x2="575.626" y2="220.262" gradientUnits="userSpaceOnUse">
            <stop stop-color="#577C8E" />
            <stop offset="1" stop-color="#577C8E" stop-opacity="0" />
        </linearGradient>
        <linearGradient id="paint18_linear_67_1610" x1="110.35" y1="-291.683" x2="598.961" y2="196.927" gradientUnits="userSpaceOnUse">
            <stop stop-color="#577C8E" />
            <stop offset="1" stop-color="#577C8E" stop-opacity="0" />
        </linearGradient>
        <linearGradient id="paint19_linear_67_1610" x1="133.684" y1="-315.018" x2="622.295" y2="173.593" gradientUnits="userSpaceOnUse">
            <stop stop-color="#577C8E" />
            <stop offset="1" stop-color="#577C8E" stop-opacity="0" />
        </linearGradient>
        <linearGradient id="paint20_linear_67_1610" x1="157.019" y1="-338.352" x2="645.63" y2="150.258" gradientUnits="userSpaceOnUse">
            <stop stop-color="#577C8E" />
            <stop offset="1" stop-color="#577C8E" stop-opacity="0" />
        </linearGradient>
        <linearGradient id="paint21_linear_67_1610" x1="180.354" y1="-361.687" x2="668.965" y2="126.924" gradientUnits="userSpaceOnUse">
            <stop stop-color="#577C8E" />
            <stop offset="1" stop-color="#577C8E" stop-opacity="0" />
        </linearGradient>
        <linearGradient id="paint22_linear_67_1610" x1="203.688" y1="-385.022" x2="692.299" y2="103.589" gradientUnits="userSpaceOnUse">
            <stop stop-color="#577C8E" />
            <stop offset="1" stop-color="#577C8E" stop-opacity="0" />
        </linearGradient>
        <linearGradient id="paint23_linear_67_1610" x1="227.023" y1="-408.356" x2="715.634" y2="80.2547" gradientUnits="userSpaceOnUse">
            <stop stop-color="#577C8E" />
            <stop offset="1" stop-color="#577C8E" stop-opacity="0" />
        </linearGradient>
        <linearGradient id="paint24_linear_67_1610" x1="250.357" y1="-431.691" x2="738.968" y2="56.9202" gradientUnits="userSpaceOnUse">
            <stop stop-color="#577C8E" />
            <stop offset="1" stop-color="#577C8E" stop-opacity="0" />
        </linearGradient>
        <linearGradient id="paint25_linear_67_1610" x1="273.692" y1="-455.025" x2="762.303" y2="33.5857" gradientUnits="userSpaceOnUse">
            <stop stop-color="#577C8E" />
            <stop offset="1" stop-color="#577C8E" stop-opacity="0" />
        </linearGradient>
    </defs>
</svg>
    