<svg width="24" height="24" viewBox="0 0 24 24" fill="none" xmlns="http://www.w3.org/2000/svg">
    <path d="M19.0909 19.0908H16.084V14.3819C16.084 13.259 16.064 11.8135 14.5201 11.8135C12.954 11.8135 12.7145 13.037 12.7145 14.3002V19.0905H9.70762V9.40712H12.5942V10.7304H12.6346C13.2232 9.72409 14.3176 9.12301 15.4827 9.16623C18.5303 9.16623 19.0922 11.1708 19.0922 13.7786L19.0909 19.0908ZM6.31481 8.08346C5.3511 8.08365 4.56974 7.30253 4.56956 6.33887C4.56937 5.37517 5.35049 4.59381 6.31415 4.59362C7.27785 4.59343 8.05921 5.37456 8.0594 6.33821C8.05959 7.30192 7.27851 8.08332 6.31481 8.08346ZM7.81823 19.0908H4.80824V9.40712H7.81823V19.0908ZM20.5899 1.80132H3.29727C2.48001 1.79209 1.80979 2.44675 1.7998 3.26401V20.6284C1.80946 21.4461 2.47959 22.1014 3.29727 22.0927H20.5899C21.4093 22.1029 22.082 21.4477 22.0934 20.6284V3.26279C22.0817 2.44389 21.4088 1.78928 20.5899 1.80006V1.80132Z" fill="#0066C5" />
</svg>
    