<svg width="198" height="72" viewBox="0 0 198 72" fill="none" xmlns="http://www.w3.org/2000/svg">
<g clip-path="url(#clip0_44_1012)">
<path d="M75.2536 50.6997C74.6303 50.5598 73.9785 50.6104 73.385 50.8447C72.7914 51.0789 72.2842 51.4858 71.9306 52.0113C71.7249 52.2845 71.5861 52.601 71.5251 52.936C71.4016 53.4651 71.4273 54.0174 71.5996 54.5331C71.7718 55.0487 72.084 55.508 72.5021 55.8609C73.0242 56.3103 73.6843 56.5736 74.3763 56.6085C74.9168 56.6379 75.4554 56.5246 75.9367 56.2802C76.418 56.0358 76.8246 55.6692 77.1145 55.2182C77.3086 54.948 77.4402 54.639 77.5 54.3132C77.6407 53.7038 77.5887 53.0666 77.351 52.4874C77.1134 51.9081 76.7014 51.4146 76.1708 51.0735C75.8947 50.8874 75.5823 50.7601 75.2536 50.6997Z" fill="#0D5E3F"/>
<path d="M65.8029 50.6669C65.3444 50.6107 64.879 50.659 64.4424 50.8079C64.0057 50.9568 63.6095 51.2025 63.284 51.526C62.7174 52.0866 62.3993 52.846 62.3993 53.6377C62.3993 54.4294 62.7174 55.1888 63.284 55.7493C63.6134 56.0655 64.0114 56.3035 64.4477 56.4455C64.8841 56.5876 65.3475 56.6298 65.8029 56.5691C66.3544 56.5261 66.88 56.3205 67.3115 55.9789C67.6811 55.6983 67.9804 55.3378 68.1863 54.925C68.3922 54.5123 68.4994 54.0584 68.4994 53.5983C68.4994 53.1383 68.3922 52.6843 68.1863 52.2716C67.9804 51.8589 67.6811 51.4983 67.3115 51.2178C66.8765 50.8882 66.3506 50.6961 65.8029 50.6669Z" fill="#0D5E3F"/>
<path d="M95.2848 15.667C95.8015 15.6704 96.3105 15.5439 96.764 15.2995C97.2175 15.0551 97.6004 14.7009 97.8768 14.2701C98.0656 14.001 98.1927 13.6943 98.249 13.3717C98.3945 12.7511 98.3394 12.1012 98.0914 11.5131C97.8435 10.9251 97.4152 10.4284 96.8666 10.0927C96.5856 9.90917 96.2686 9.78625 95.9361 9.73201C95.3039 9.59854 94.6453 9.66111 94.0504 9.91115C93.4556 10.1612 92.9536 10.5865 92.6131 11.1289C92.4333 11.3959 92.3132 11.6977 92.2609 12.0142C92.15 12.5066 92.1674 13.0187 92.3115 13.5027C92.4556 13.9867 92.7217 14.4267 93.085 14.7817C93.3702 15.0706 93.7128 15.2984 94.0913 15.4508C94.4698 15.6031 94.8761 15.6767 95.2848 15.667Z" fill="#0D5E3F"/>
<path d="M103.905 15.667C104.446 15.6964 104.985 15.5824 105.467 15.3368C105.948 15.0912 106.354 14.7229 106.643 14.2702C106.838 14.0034 106.967 13.696 107.022 13.3717C107.164 12.7624 107.113 12.1245 106.876 11.5448C106.638 10.9651 106.225 10.4718 105.693 10.1321C105.422 9.94537 105.114 9.81792 104.789 9.75827C104.165 9.62118 103.515 9.67305 102.922 9.90709C102.329 10.1411 101.821 10.5464 101.466 11.0699C101.263 11.3419 101.127 11.6559 101.067 11.988C100.94 12.518 100.964 13.0723 101.136 13.5897C101.309 14.1071 101.623 14.5673 102.044 14.9194C102.562 15.3675 103.217 15.6308 103.905 15.667Z" fill="#0D5E3F"/>
<path d="M120.135 39.0593C119.59 39.0275 119.046 39.1381 118.558 39.3799C118.07 39.6217 117.656 39.9861 117.356 40.4365C117.153 40.7076 117.016 41.022 116.958 41.3546C116.864 41.7838 116.865 42.2281 116.963 42.6567C117.06 43.0853 117.25 43.4878 117.521 43.8365C117.792 44.1852 118.136 44.4717 118.53 44.6762C118.924 44.8806 119.358 44.9981 119.802 45.0205C120.344 45.0525 120.885 44.9404 121.367 44.6958C121.85 44.4512 122.258 44.0832 122.547 43.6302C122.742 43.3634 122.871 43.056 122.926 42.7318C123.051 42.2066 123.029 41.6579 122.863 41.144C122.696 40.6301 122.392 40.1703 121.982 39.8135C121.474 39.3576 120.821 39.0909 120.135 39.0593Z" fill="#0D5E3F"/>
<path d="M113.854 36.3443C124.521 36.2722 122.341 29.1305 122.56 21.5495C122.559 20.9402 122.312 20.3563 121.875 19.9261C121.437 19.4958 120.845 19.2542 120.228 19.2542H119.344C118.014 19.2542 117.35 19.9581 117.35 21.3659V28.3698C117.369 28.796 117.284 29.2204 117.104 29.6081C116.924 29.9958 116.653 30.3356 116.313 30.5995C115.409 31.4324 113.515 31.4127 112.192 31.3799H106.61C109.348 28.4157 108.969 22.9201 106.258 20.2314C104.755 18.6246 102.476 17.8246 99.4386 17.8246C96.7137 17.8246 94.2879 18.4804 92.5466 20.2314C89.8882 23.1234 89.7154 28.4026 92.3606 31.3799H86.7712C83.1292 31.557 80.7499 30.7831 77.367 29.0846C75.7387 28.4288 75.0808 29.2223 74.6687 30.5077C74.2965 31.5832 73.9243 32.5472 73.5522 33.3998C76.1109 34.272 79.753 35.6295 80.0188 38.6462C79.9856 40.7972 78.5965 42.1022 76.2039 42.0497H67.9429C64.0283 42.2202 60.5258 39.4987 60.7717 35.295C60.7732 33.399 61.0393 31.5123 61.5626 29.688C61.7792 29.1171 61.7792 28.4882 61.5626 27.9173C61.3923 27.7236 61.177 27.5735 60.9351 27.4799C60.6932 27.3862 60.4319 27.3518 60.1736 27.3795C55.9135 27.2287 55.6277 32.1865 55.5745 35.295C55.3153 42.312 60.0939 47.1518 67.0324 46.9617C70.2358 46.8108 78.2775 47.5125 80.9094 46.0435C84.784 44.3909 85.8075 39.8397 84.7707 36.3509L113.854 36.3443ZM103.187 27.9107C102.277 29.5043 100.236 31.8914 98.2291 30.5339C95.7168 28.9862 94.474 26.1532 96.3681 23.7136C97.4382 22.2053 101.054 22.1266 102.423 23.6218C102.981 24.1725 103.355 24.8797 103.491 25.6472C103.628 26.4146 103.522 27.205 103.187 27.9107Z" fill="#0D5E3F"/>
<path d="M111.521 39.0659C111.063 39.0112 110.598 39.0601 110.161 39.209C109.725 39.3578 109.329 39.6027 109.002 39.925C108.437 40.4875 108.12 41.2477 108.12 42.04C108.12 42.8322 108.437 43.5924 109.002 44.1549C109.33 44.4774 109.727 44.7222 110.165 44.871C110.602 45.0199 111.068 45.0687 111.528 45.014C112.08 44.9671 112.605 44.7594 113.037 44.4172C113.406 44.136 113.705 43.7749 113.911 43.3616C114.117 42.9483 114.224 42.4939 114.224 42.0334C114.224 41.5729 114.117 41.1185 113.911 40.7052C113.705 40.2919 113.406 39.9308 113.037 39.6496C112.601 39.3119 112.074 39.1089 111.521 39.0659Z" fill="#0D5E3F"/>
<path d="M184.382 15.667C184.9 15.6709 185.411 15.5432 185.865 15.2963C186.319 15.0494 186.701 14.6916 186.974 14.2571C187.16 13.9912 187.287 13.6895 187.346 13.3717C187.475 12.8109 187.439 12.2255 187.242 11.6843C187.046 11.143 186.697 10.6682 186.236 10.3157C185.801 9.96501 185.268 9.75442 184.708 9.71238C184.249 9.6562 183.784 9.70443 183.347 9.85335C182.911 10.0023 182.514 10.2479 182.189 10.5715C181.622 11.1321 181.304 11.8914 181.304 12.6831C181.304 13.4748 181.622 14.2342 182.189 14.7948C182.475 15.0803 182.817 15.305 183.194 15.455C183.571 15.605 183.976 15.6772 184.382 15.667Z" fill="#0D5E3F"/>
<path d="M195.734 11.0895C195.444 10.637 195.036 10.2693 194.553 10.0248C194.071 9.78034 193.53 9.66791 192.989 9.69922C192.299 9.7345 191.641 9.99784 191.121 10.4468C190.701 10.7984 190.388 11.2575 190.215 11.7735C190.043 12.2896 190.018 12.8427 190.144 13.3717C190.206 13.7034 190.342 14.0171 190.543 14.2898C190.843 14.7397 191.258 15.1037 191.745 15.3454C192.233 15.5872 192.776 15.6981 193.321 15.667C194.007 15.6349 194.66 15.3682 195.169 14.9128C195.578 14.5555 195.882 14.0957 196.048 13.582C196.214 13.0682 196.236 12.5197 196.112 11.9945C196.058 11.6683 195.928 11.3587 195.734 11.0895Z" fill="#0D5E3F"/>
<path d="M191.653 21.3659V28.3698C191.679 28.7964 191.601 29.223 191.427 29.6142C191.252 30.0054 190.986 30.3499 190.649 30.6191C189.88 31.1717 188.941 31.4471 187.991 31.3995H184.768C183.912 31.4149 183.056 31.3623 182.209 31.2422C181.584 31.1307 181.278 30.9274 181.278 30.5864V22.2971C181.277 21.4894 180.95 20.7155 180.371 20.145C179.792 19.5746 179.006 19.2542 178.188 19.2542H178.122C176.757 19.2542 176.075 19.9581 176.075 21.3659V29.2682C176.102 29.8266 175.92 30.3754 175.563 30.8093C175.334 31.0198 175.061 31.1796 174.765 31.278C174.468 31.3764 174.153 31.4111 173.841 31.3799H173.655C172.988 31.3726 172.322 31.32 171.662 31.2225C170.913 31.1227 170.215 30.7922 169.668 30.2781V24.5202C169.668 23.8784 169.409 23.2629 168.949 22.8091C168.49 22.3553 167.866 22.1003 167.215 22.1003H166.458C165.128 22.1003 164.464 22.8086 164.464 24.212V29.7273C164.479 30.0459 164.369 30.3581 164.158 30.5995C163.952 30.8166 163.697 30.9829 163.414 31.0848C163.098 31.1964 162.77 31.2734 162.437 31.3143C162.104 31.3575 161.769 31.3794 161.433 31.3799C160.638 31.4152 159.842 31.3154 159.081 31.0848C158.729 30.9646 158.394 30.8016 158.084 30.5995V24.2841C158.084 23.705 157.85 23.1495 157.435 22.74C157.02 22.3304 156.457 22.1003 155.87 22.1003H154.92C153.551 22.1003 152.866 22.8086 152.866 24.212V29.1764C152.884 29.7285 152.731 30.2727 152.428 30.7372C152.23 30.9745 151.974 31.1589 151.685 31.2734C151.396 31.388 151.082 31.4291 150.773 31.393H145.323V23.1955C145.329 22.1655 144.979 21.1642 144.332 20.3561C143.685 19.5481 142.778 18.9814 141.761 18.7492H141.714C140.376 18.4582 139.01 18.3131 137.64 18.3164C134.348 18.3164 131.836 19.0881 130.104 20.6314C128.371 22.1747 127.501 24.5115 127.492 27.6418C127.492 30.6454 128.26 32.8511 129.798 34.2588C131.335 35.6666 133.686 36.3705 136.849 36.3705H140.113C140.113 37.5313 140.079 38.3838 140.02 38.9215C139.96 39.4358 139.802 39.9342 139.554 40.3905C139.296 40.8367 138.916 41.2025 138.458 41.4464C137.808 41.7379 137.097 41.8706 136.384 41.8333C135.546 41.8233 134.711 41.731 133.892 41.5578L133.486 41.4792C132.882 41.3461 132.249 41.455 131.725 41.782C131.202 42.109 130.832 42.6274 130.695 43.2236L130.569 43.8138C130.491 44.0761 130.473 44.3523 130.517 44.6223C130.561 44.8922 130.665 45.1492 130.821 45.3746C131.298 45.8032 131.888 46.0898 132.523 46.2009C133.186 46.3935 133.864 46.5317 134.55 46.6141C135.173 46.6986 135.801 46.7446 136.431 46.7518C137.679 46.7698 138.923 46.6242 140.133 46.3189C141.159 46.0478 142.103 45.5347 142.884 44.8237C143.702 44.017 144.3 43.0202 144.625 41.9251C145.1 40.1117 145.324 38.2432 145.29 36.3705H151.67C152.635 36.3915 153.596 36.2427 154.508 35.9311C155.245 35.6778 155.923 35.2809 156.502 34.7638C157.28 35.3181 158.154 35.7291 159.081 35.977C159.874 36.2152 160.697 36.3475 161.526 36.3705H162.41C163.557 36.296 164.682 36.0229 165.733 35.5639C166.441 35.2523 167.099 34.8415 167.687 34.3441C168.349 34.8711 169.078 35.3119 169.854 35.6557C171.035 36.1612 172.316 36.3966 173.602 36.3443H174.812C175.789 36.3615 176.759 36.1644 177.65 35.7672C178.391 35.4461 179.083 35.0221 179.703 34.508C180.505 35.0643 181.382 35.5058 182.309 35.8196C183.081 36.118 183.899 36.2886 184.728 36.3246H188.131C191.042 36.3246 193.228 35.7212 194.67 34.508C196.112 33.2948 196.83 31.4258 196.83 28.8813V22.0348C196.83 21.3074 196.542 20.609 196.026 20.0892C195.511 19.5694 194.809 19.2696 194.072 19.2542H193.68C192.329 19.2542 191.653 19.9581 191.653 21.3659ZM140.113 31.3799H136.663C135.667 31.4234 134.682 31.1598 133.845 30.6257C133.121 30.1207 132.755 29.0518 132.755 27.432C132.755 25.8122 133.154 24.658 133.965 23.9825C134.776 23.307 136.058 22.9725 137.826 22.9725C138.597 22.9716 139.365 23.0641 140.113 23.248V31.3799Z" fill="#0D5E3F"/>
<path d="M83.7473 55.3034V57.3691H88.1403V70.1506H91.5365V57.3691H94.6336C94.8152 57.3816 94.9973 57.3539 95.1667 57.288C95.336 57.2222 95.4884 57.1199 95.6126 56.9885C95.7367 56.8572 95.8297 56.7002 95.8845 56.5289C95.9393 56.3576 95.9547 56.1764 95.9295 55.9985V54.0311H85.0765C84.9007 54.0123 84.7229 54.0319 84.5557 54.0886C84.3885 54.1453 84.236 54.2377 84.109 54.3592C83.9821 54.4806 83.8839 54.6282 83.8214 54.7914C83.7589 54.9546 83.7336 55.1294 83.7473 55.3034Z" fill="#C0904D"/>
<path d="M105.254 55.3755C104.549 53.4409 102.144 53.4081 101.519 55.3755C98.8605 62.3707 97.179 66.7711 96.4745 68.5767C96.202 69.403 96.3881 70.2031 97.6044 70.2359H99.5982L100.741 67.0094H105.952L107.141 70.2359H109.095C110.358 70.2031 110.544 69.4293 110.278 68.5833L105.254 55.3755ZM104.769 63.7238H102.004L103.38 59.789L104.769 63.7238Z" fill="#C0904D"/>
<path d="M125.358 62.5958C123.531 59.2185 117.469 61.3695 117.184 58.7332C117.184 56.6346 119.882 57.1658 121.65 57.3691C124.355 58.0249 125.637 58.6807 125.365 55.1001C122.009 53.8737 116.439 52.7064 114.239 56.4117C112.91 58.9627 114.2 62.609 117.277 63.0942C118.951 63.632 121.032 63.1336 122.321 64.4058C123.863 67.7898 118.161 67.2454 116.153 66.6224C113.495 65.4945 114.033 67.8947 114 69.5473C119.935 71.4163 128.582 70.7212 125.358 62.5958Z" fill="#C0904D"/>
<path d="M147.098 54.1295C146.577 54.1294 146.072 54.3029 145.664 54.622C145.256 54.9411 144.97 55.3869 144.851 55.887L142.857 64.4124L140.378 58.2545L140.751 57.2839C141.502 54.7788 137.693 55.3559 137.268 57.1462L134.716 64.0648L132.769 55.7821C132.45 53.8147 128.781 53.395 129.346 55.9264L132.264 68.3734C132.669 70.026 133.593 70.3408 134.311 70.3408C135.321 70.3408 136.078 69.685 136.557 68.4062L138.664 62.7008L141.023 68.4456C141.881 70.7605 144.605 71.2983 145.336 68.3407L148.281 55.7952C148.547 54.8312 148.141 54.1295 147.098 54.1295Z" fill="#C0904D"/>
<path d="M151.776 56.8904V67.7766C151.776 68.9112 152.268 70.2556 154.601 70.2556H161.427C161.617 70.2774 161.81 70.2584 161.992 70.1999C162.174 70.1413 162.342 70.0445 162.482 69.9162C162.623 69.7879 162.734 69.631 162.808 69.4564C162.881 69.2818 162.916 69.0936 162.909 68.9046V66.9372H155.173V63.5205H159.313C159.693 63.5465 160.068 63.424 160.357 63.1795C160.975 62.6876 160.669 60.8711 160.735 60.176H155.173V57.4806H161.566C161.749 57.4955 161.932 57.4701 162.103 57.4064C162.275 57.3428 162.429 57.2424 162.557 57.1125C162.684 56.9826 162.78 56.8265 162.839 56.6554C162.897 56.4843 162.917 56.3025 162.895 56.1231V54.1557H154.807C152.302 54.1295 151.776 55.6313 151.776 56.8904Z" fill="#C0904D"/>
<path d="M178.959 56.4707C176.859 53.0277 169.814 53.0146 167.72 56.4707C165.953 59.4283 165.82 66.6224 168.691 68.9964C169.394 69.5944 170.24 70.0053 171.15 70.1899L178.188 71.954C180.182 72.3147 179.717 70.3014 179.77 69.0554L178.301 68.7341C180.714 66.2158 180.674 59.3431 178.959 56.4707ZM171.522 57.4281C173.682 56.4969 176.38 57.3167 176.586 59.9792C176.772 62.1302 177.211 65.6125 175.111 66.9175C173.954 67.357 172.672 67.357 171.515 66.9175C170.538 66.406 170.233 65.4748 170.047 64.3599C169.894 62.2351 169.409 58.7266 171.522 57.4281Z" fill="#C0904D"/>
<path d="M197.927 54.8378C197.827 54.6059 197.654 54.4118 197.434 54.2843C197.214 54.1567 196.958 54.1025 196.704 54.1295H194.816L190.689 60.0317L186.549 54.1295C185.971 54.182 184.302 53.9656 183.85 54.3525C183.722 54.4501 183.616 54.5731 183.539 54.7135C183.461 54.854 183.415 55.0088 183.402 55.1681C183.389 55.3273 183.409 55.4876 183.462 55.6385C183.516 55.7894 183.6 55.9277 183.711 56.0445L189.028 63.6714V70.2294H191.121C191.304 70.2478 191.488 70.2251 191.661 70.1631C191.833 70.1011 191.989 70.0014 192.117 69.8714C192.245 69.7415 192.342 69.5846 192.399 69.4126C192.457 69.2407 192.474 69.058 192.45 68.8784V63.7173L197.834 55.9264C197.931 55.7635 197.99 55.5811 198.006 55.3926C198.022 55.2041 197.995 55.0145 197.927 54.8378Z" fill="#C0904D"/>
<path d="M82.1855 70.2556H55.98L57.5285 62.9435H83.7274L82.1855 70.2556Z" fill="#E7EFEC"/>
<path d="M57.894 1.17551e-05L49.4136 18.8542H73.1932L79.2811 6.1973C79.5985 5.53482 79.7409 4.80382 79.6949 4.07242C79.6489 3.34101 79.416 2.63301 79.0179 2.01437C78.6199 1.39572 78.0696 0.886556 77.4183 0.534338C76.7671 0.18212 76.0361 -0.00169333 75.2934 1.17551e-05H57.894Z" fill="#E7EFEC"/>
<path d="M6.07447 5.3513L0.0065918 18.8542H23.7863L32.8515 0H14.4087C12.6436 0.000370468 10.9167 0.506187 9.4373 1.45608C7.95792 2.40598 6.78973 3.75911 6.07447 5.3513Z" fill="#0D5E3F"/>
<path d="M10.7201 46.3583L20.6892 68.039C20.9287 68.559 21.314 69.0005 21.7998 69.3112C22.2855 69.6219 22.8512 69.7889 23.4301 69.7923C24.0089 69.7958 24.5767 69.6356 25.0661 69.3307C25.5556 69.0258 25.9464 68.5889 26.1922 68.0718L49.4534 18.8542H23.7796L10.7201 46.3583Z" fill="#C0904D"/>
</g>
<defs>
<clipPath id="clip0_44_1012">
<rect width="198" height="72" fill="white"/>
</clipPath>
</defs>
</svg>
