<svg width="112" height="40" viewBox="0 0 112 40" fill="none" xmlns="http://www.w3.org/2000/svg">
<g clip-path="url(#clip0_15_1148)">
<path d="M42.5676 28.1665C42.215 28.0888 41.8463 28.1169 41.5106 28.2471C41.1748 28.3772 40.8879 28.6033 40.6879 28.8952C40.5715 29.047 40.493 29.2228 40.4585 29.4089C40.3886 29.7028 40.4032 30.0097 40.5006 30.2962C40.5981 30.5827 40.7746 30.8378 41.0112 31.0338C41.3065 31.2835 41.6799 31.4298 42.0713 31.4492C42.377 31.4655 42.6817 31.4026 42.954 31.2668C43.2262 31.131 43.4562 30.9274 43.6202 30.6768C43.73 30.5267 43.8044 30.355 43.8382 30.174C43.9178 29.8355 43.8884 29.4815 43.754 29.1597C43.6196 28.8379 43.3865 28.5637 43.0864 28.3742C42.9302 28.2708 42.7535 28.2001 42.5676 28.1665Z" fill="white"/>
<path d="M37.2216 28.1484C36.9623 28.1172 36.699 28.144 36.4521 28.2267C36.2051 28.3094 35.9809 28.4459 35.7968 28.6257C35.4764 28.9371 35.2964 29.359 35.2964 29.7988C35.2964 30.2386 35.4764 30.6605 35.7968 30.9719C35.9832 31.1476 36.2083 31.2798 36.4551 31.3587C36.7019 31.4376 36.9641 31.4611 37.2216 31.4274C37.5336 31.4035 37.8309 31.2892 38.075 31.0995C38.2841 30.9436 38.4533 30.7433 38.5698 30.514C38.6863 30.2847 38.7469 30.0325 38.7469 29.7769C38.7469 29.5214 38.6863 29.2692 38.5698 29.0399C38.4533 28.8106 38.2841 28.6103 38.075 28.4544C37.8289 28.2713 37.5315 28.1646 37.2216 28.1484Z" fill="white"/>
<path d="M53.8987 8.70392C54.191 8.70579 54.4789 8.63553 54.7354 8.49977C54.9919 8.36401 55.2086 8.1672 55.3649 7.92789C55.4717 7.77834 55.5436 7.608 55.5754 7.42876C55.6577 7.08401 55.6265 6.72293 55.4863 6.39622C55.3461 6.06951 55.1038 5.79356 54.7935 5.6071C54.6345 5.50513 54.4552 5.43684 54.2671 5.40671C53.9095 5.33255 53.537 5.36732 53.2005 5.50623C52.864 5.64514 52.58 5.88142 52.3874 6.18274C52.2857 6.3311 52.2178 6.49878 52.1882 6.67459C52.1255 6.94815 52.1353 7.23266 52.2168 7.50154C52.2984 7.77041 52.4489 8.01487 52.6544 8.21207C52.8157 8.37261 53.0095 8.49916 53.2236 8.58379C53.4377 8.66842 53.6675 8.70932 53.8987 8.70392Z" fill="white"/>
<path d="M58.7743 8.70414C59.0804 8.72049 59.3855 8.65715 59.6579 8.52069C59.9302 8.38424 60.1599 8.17963 60.3232 7.92811C60.4332 7.77991 60.5066 7.60911 60.5375 7.42898C60.6182 7.09046 60.5893 6.73606 60.4547 6.41402C60.3202 6.09198 60.0866 5.81794 59.7856 5.62918C59.6324 5.52545 59.458 5.45465 59.2743 5.4215C58.9217 5.34534 58.5536 5.37416 58.2182 5.50418C57.8828 5.6342 57.5957 5.85936 57.3946 6.15017C57.2802 6.30128 57.2031 6.47575 57.169 6.66023C57.0971 6.95467 57.1107 7.26266 57.2082 7.55009C57.3057 7.83753 57.4835 8.0932 57.7217 8.2888C58.0146 8.53773 58.3853 8.68402 58.7743 8.70414Z" fill="white"/>
<path d="M67.9548 21.6997C67.6466 21.6821 67.3391 21.7435 67.0632 21.8779C66.7873 22.0122 66.5528 22.2147 66.3834 22.4648C66.2682 22.6155 66.191 22.7902 66.1579 22.9749C66.1047 23.2134 66.1056 23.4602 66.1606 23.6983C66.2156 23.9364 66.3234 24.16 66.4764 24.3538C66.6295 24.5475 66.8242 24.7066 67.047 24.8202C67.2698 24.9338 67.5154 24.9991 67.7669 25.0115C68.0733 25.0293 68.3791 24.967 68.6522 24.8311C68.9253 24.6953 69.1558 24.4908 69.3195 24.2391C69.4296 24.0909 69.5029 23.9201 69.5338 23.74C69.6043 23.4482 69.5919 23.1434 69.4979 22.8579C69.4039 22.5724 69.2318 22.317 69 22.1187C68.7125 21.8655 68.3429 21.7173 67.9548 21.6997Z" fill="white"/>
<path d="M64.402 20.1911C70.4359 20.151 69.2028 16.1834 69.3268 11.9717C69.3258 11.6332 69.1864 11.3089 68.939 11.0698C68.6917 10.8308 68.3566 10.6966 68.0073 10.6966H67.5073C66.7554 10.6966 66.3795 11.0876 66.3795 11.8697V15.7608C66.3901 15.9976 66.3425 16.2334 66.2405 16.4488C66.1385 16.6641 65.9851 16.8529 65.793 16.9995C65.2817 17.4622 64.2103 17.4513 63.4622 17.4331H60.3043C61.8532 15.7863 61.6389 12.7332 60.105 11.2394C59.2554 10.3468 57.9659 9.90234 56.2479 9.90234C54.7065 9.90234 53.3344 10.2667 52.3494 11.2394C50.8456 12.8461 50.7479 15.779 52.2441 17.4331H49.0825C47.0223 17.5314 45.6765 17.1015 43.7629 16.1579C42.8419 15.7936 42.4697 16.2344 42.2366 16.9485C42.0261 17.546 41.8156 18.0816 41.605 18.5552C43.0524 19.0398 45.1126 19.794 45.2629 21.4699C45.2441 22.6649 44.4584 23.3899 43.105 23.3608H38.4321C36.2178 23.4555 34.2366 21.9435 34.3757 19.6081C34.3765 18.5548 34.5271 17.5066 34.8231 16.4931C34.9456 16.176 34.9456 15.8266 34.8231 15.5094C34.7268 15.4018 34.605 15.3184 34.4681 15.2664C34.3313 15.2144 34.1835 15.1952 34.0374 15.2107C31.6276 15.1269 31.4659 17.8812 31.4359 19.6081C31.2892 23.5065 33.9923 26.1953 37.9171 26.0896C39.7291 26.0058 44.278 26.3956 45.7667 25.5795C47.9584 24.6614 48.5374 22.133 47.9509 20.1947L64.402 20.1911ZM58.3682 15.5058C57.8532 16.3911 56.699 17.7173 55.5637 16.9631C54.1426 16.1033 53.4396 14.5294 54.511 13.174C55.1163 12.3361 57.1614 12.2924 57.9359 13.123C58.2519 13.429 58.463 13.8219 58.5403 14.2482C58.6177 14.6746 58.5576 15.1137 58.3682 15.5058Z" fill="white"/>
<path d="M63.0827 21.7035C62.8235 21.6731 62.5604 21.7003 62.3136 21.783C62.0667 21.8656 61.8425 22.0017 61.6579 22.1807C61.3381 22.4933 61.1587 22.9156 61.1587 23.3557C61.1587 23.7959 61.3381 24.2182 61.6579 24.5307C61.8433 24.7098 62.0681 24.8459 62.3156 24.9285C62.563 25.0112 62.8266 25.0384 63.0865 25.008C63.3986 24.9819 63.6957 24.8665 63.9399 24.6764C64.149 24.5202 64.3183 24.3196 64.4348 24.09C64.5512 23.8604 64.6118 23.6079 64.6118 23.3521C64.6118 23.0962 64.5512 22.8438 64.4348 22.6142C64.3183 22.3846 64.149 22.184 63.9399 22.0277C63.6934 21.8402 63.3952 21.7273 63.0827 21.7035Z" fill="white"/>
<path d="M104.297 8.70408C104.59 8.70622 104.879 8.63531 105.136 8.49814C105.393 8.36097 105.609 8.16215 105.763 7.92076C105.869 7.77305 105.94 7.60543 105.974 7.42891C106.047 7.11736 106.026 6.79214 105.915 6.49142C105.804 6.19071 105.606 5.92696 105.346 5.73113C105.1 5.53629 104.798 5.41929 104.481 5.39594C104.222 5.36473 103.959 5.39152 103.712 5.47425C103.465 5.55699 103.241 5.69346 103.057 5.87321C102.736 6.18464 102.556 6.60653 102.556 7.04636C102.556 7.48619 102.736 7.90807 103.057 8.21951C103.218 8.3781 103.412 8.50292 103.625 8.58626C103.839 8.6696 104.067 8.7097 104.297 8.70408Z" fill="white"/>
<path d="M110.718 6.16097C110.554 5.90956 110.324 5.70532 110.051 5.56949C109.778 5.43366 109.472 5.3712 109.165 5.38859C108.775 5.40819 108.403 5.55449 108.109 5.80394C107.872 5.99922 107.694 6.25428 107.597 6.54099C107.499 6.82771 107.485 7.13495 107.556 7.42885C107.591 7.61311 107.668 7.78743 107.782 7.93892C107.952 8.18883 108.186 8.39109 108.462 8.52538C108.738 8.65968 109.045 8.72129 109.353 8.70402C109.741 8.68617 110.111 8.53805 110.399 8.28504C110.63 8.08655 110.802 7.83107 110.896 7.54566C110.99 7.26026 111.003 6.95553 110.932 6.66375C110.902 6.4825 110.828 6.3105 110.718 6.16097Z" fill="white"/>
<path d="M108.41 11.87V15.761C108.425 15.998 108.381 16.235 108.282 16.4524C108.183 16.6697 108.033 16.8611 107.842 17.0107C107.407 17.3176 106.876 17.4707 106.338 17.4442H104.515C104.031 17.4528 103.547 17.4235 103.068 17.3568C102.714 17.2949 102.542 17.1819 102.542 16.9925V12.3873C102.541 11.9386 102.356 11.5086 102.028 11.1917C101.7 10.8748 101.256 10.6968 100.793 10.6968H100.756C99.9839 10.6968 99.5979 11.0879 99.5979 11.87V16.2601C99.6135 16.5704 99.5105 16.8752 99.3084 17.1163C99.1788 17.2333 99.0248 17.3221 98.8569 17.3767C98.689 17.4314 98.511 17.4507 98.3347 17.4333H98.2295C97.8519 17.4293 97.4751 17.4 97.1017 17.3459C96.6781 17.2904 96.2834 17.1068 95.9739 16.8212V13.6224C95.9739 13.2658 95.8277 12.9239 95.5675 12.6718C95.3074 12.4196 94.9545 12.278 94.5866 12.278H94.1581C93.4062 12.278 93.0302 12.6715 93.0302 13.4512V16.5152C93.0387 16.6922 92.9768 16.8656 92.8573 16.9997C92.7407 17.1204 92.5965 17.2128 92.4362 17.2694C92.2574 17.3314 92.0721 17.3741 91.8836 17.3969C91.6954 17.4209 91.5058 17.433 91.316 17.4333C90.8659 17.4529 90.4158 17.3975 89.9851 17.2694C89.7863 17.2026 89.5969 17.112 89.4212 16.9997V13.4912C89.4212 13.1695 89.2893 12.8609 89.0545 12.6334C88.8198 12.4058 88.5013 12.278 88.1693 12.278H87.6317C86.8573 12.278 86.4701 12.6715 86.4701 13.4512V16.2091C86.4799 16.5159 86.3933 16.8182 86.222 17.0762C86.1099 17.2081 85.9654 17.3105 85.8019 17.3742C85.6383 17.4378 85.4609 17.4607 85.2859 17.4406H82.2032V12.8864C82.2064 12.3142 82.0087 11.7579 81.6425 11.309C81.2763 10.8601 80.7634 10.5453 80.1881 10.4163H80.1618C79.405 10.2546 78.6322 10.174 77.8573 10.1758C75.9951 10.1758 74.5741 10.6045 73.5941 11.4619C72.6142 12.3193 72.1217 13.6175 72.1167 15.3566C72.1167 17.0253 72.5515 18.2506 73.4212 19.0327C74.2909 19.8148 75.6205 20.2059 77.4099 20.2059H79.2558C79.2558 20.8507 79.237 21.3244 79.2032 21.6231C79.1694 21.9088 79.0801 22.1857 78.94 22.4392C78.7939 22.6871 78.579 22.8903 78.3197 23.0258C77.9522 23.1878 77.5499 23.2615 77.1468 23.2408C76.6728 23.2352 76.2005 23.1839 75.737 23.0877L75.5077 23.044C75.1657 22.9701 74.8075 23.0306 74.5115 23.2123C74.2155 23.3939 74.0059 23.6819 73.9287 24.0131L73.8573 24.341C73.8133 24.4868 73.8032 24.6402 73.8279 24.7902C73.8526 24.9402 73.9115 25.0829 74.0002 25.2081C74.2697 25.4463 74.6034 25.6055 74.9626 25.6672C75.3376 25.7742 75.7211 25.851 76.1092 25.8967C76.4618 25.9437 76.8171 25.9692 77.1731 25.9732C77.879 25.9832 78.5831 25.9024 79.2671 25.7328C79.8476 25.5821 80.3817 25.2971 80.8235 24.9021C81.286 24.4539 81.6247 23.9001 81.8084 23.2918C82.0772 22.2843 82.2036 21.2462 82.1844 20.2059H85.7934C86.3392 20.2175 86.8828 20.1348 87.3987 19.9618C87.8157 19.8211 88.1992 19.6005 88.5265 19.3133C88.9669 19.6212 89.461 19.8495 89.9851 19.9873C90.4342 20.1196 90.8994 20.1931 91.3686 20.2059H91.8686C92.5174 20.1645 93.1537 20.0128 93.7483 19.7577C94.1485 19.5847 94.5208 19.3564 94.8535 19.0801C95.2282 19.3728 95.6401 19.6177 96.0791 19.8087C96.7471 20.0896 97.4719 20.2204 98.1994 20.1913H98.8836C99.4366 20.2009 99.9849 20.0914 100.489 19.8707C100.908 19.6923 101.3 19.4567 101.651 19.1712C102.104 19.4802 102.6 19.7255 103.124 19.8998C103.561 20.0656 104.024 20.1604 104.493 20.1804H106.417C108.064 20.1804 109.301 19.8452 110.117 19.1712C110.932 18.4971 111.339 17.4588 111.339 16.0452V12.2416C111.339 11.8375 111.175 11.4495 110.884 11.1607C110.592 10.8719 110.195 10.7054 109.778 10.6968H109.557C108.792 10.6968 108.41 11.0879 108.41 11.87ZM79.2558 17.4333H77.3047C76.7413 17.4575 76.1842 17.3111 75.7107 17.0143C75.3009 16.7338 75.0941 16.1399 75.0941 15.24C75.0941 14.3401 75.3197 13.6989 75.7783 13.3236C76.237 12.9484 76.9626 12.7626 77.9626 12.7626C78.3985 12.762 78.8328 12.8134 79.2558 12.9156V17.4333Z" fill="white"/>
<path d="M47.3722 30.7243V31.872H49.8571V38.9728H51.7782V31.872H53.5301C53.6328 31.8789 53.7358 31.8635 53.8316 31.8269C53.9274 31.7904 54.0136 31.7335 54.0838 31.6605C54.1541 31.5876 54.2066 31.5003 54.2377 31.4052C54.2687 31.31 54.2774 31.2094 54.2631 31.1105V30.0175H48.1241C48.0246 30.0071 47.924 30.018 47.8294 30.0495C47.7349 30.081 47.6486 30.1323 47.5768 30.1998C47.505 30.2673 47.4495 30.3493 47.4141 30.4399C47.3787 30.5306 47.3644 30.6277 47.3722 30.7243Z" fill="#C0904D"/>
<path d="M59.5374 30.7641C59.1389 29.6893 57.778 29.6711 57.4246 30.7641C55.9209 34.6503 54.9697 37.095 54.5712 38.0981C54.4171 38.5572 54.5224 39.0016 55.2103 39.0199H56.3382L56.9848 37.2274H59.9321L60.6051 39.0199H61.7103C62.4246 39.0016 62.5299 38.5717 62.3795 38.1018L59.5374 30.7641ZM59.263 35.4021H57.6991L58.4772 33.2161L59.263 35.4021Z" fill="#C0904D"/>
<path d="M70.9096 34.7754C69.8758 32.8991 66.4472 34.0941 66.2855 32.6294C66.2855 31.4636 67.8118 31.7587 68.8118 31.8716C70.3419 32.236 71.0675 32.6003 70.9133 30.6111C69.0149 29.9298 65.8645 29.2812 64.6201 31.3397C63.8682 32.757 64.5976 34.7827 66.3382 35.0523C67.2855 35.351 68.4622 35.0741 69.1915 35.7809C70.0637 37.6609 66.8382 37.3585 65.7028 37.0124C64.1991 36.3857 64.5036 37.7192 64.4848 38.6373C67.8419 39.6756 72.7329 39.2894 70.9096 34.7754Z" fill="#C0904D"/>
<path d="M83.2066 30.0718C82.9122 30.0717 82.6264 30.1681 82.3957 30.3454C82.165 30.5227 82.0029 30.7703 81.9359 31.0482L80.8081 35.7845L79.4058 32.3634L79.6163 31.8242C80.0412 30.4325 77.887 30.7531 77.6464 31.7477L76.2028 35.5914L75.1013 30.9899C74.9209 29.8969 72.8457 29.6637 73.1652 31.07L74.8156 37.9851C75.0449 38.9032 75.5675 39.0781 75.9735 39.0781C76.5449 39.0781 76.9735 38.7137 77.2442 38.0033L78.4359 34.8336L79.7705 38.0251C80.2554 39.3112 81.7968 39.61 82.2103 37.9669L83.8758 30.9972C84.0261 30.4616 83.7968 30.0718 83.2066 30.0718Z" fill="#C0904D"/>
<path d="M85.8535 31.6059V37.6538C85.8535 38.2841 86.1317 39.031 87.4513 39.031H91.3122C91.4198 39.0431 91.529 39.0326 91.632 39C91.7351 38.9675 91.8297 38.9137 91.9093 38.8424C91.989 38.7711 92.0517 38.684 92.0934 38.587C92.135 38.49 92.1545 38.3854 92.1505 38.2804V37.1874H87.7746V35.2893H90.1167C90.3315 35.3037 90.5435 35.2356 90.7069 35.0998C91.0565 34.8266 90.8836 33.8174 90.9212 33.4312H87.7746V31.9338H91.3911C91.4943 31.942 91.5981 31.9279 91.695 31.8926C91.7919 31.8572 91.8794 31.8014 91.9514 31.7293C92.0233 31.6571 92.0778 31.5704 92.1109 31.4753C92.1441 31.3803 92.155 31.2793 92.143 31.1796V30.0866H87.5678C86.1505 30.072 85.8535 30.9064 85.8535 31.6059Z" fill="#C0904D"/>
<path d="M101.229 31.3728C100.041 29.4601 96.0562 29.4528 94.872 31.3728C93.872 33.016 93.7968 37.0127 95.4208 38.3316C95.8187 38.6638 96.2975 38.8921 96.8118 38.9947L100.793 39.9747C101.921 40.1751 101.658 39.0566 101.688 38.3644L100.857 38.1858C102.222 36.7868 102.199 32.9686 101.229 31.3728ZM97.0224 31.9048C98.2442 31.3874 99.7705 31.8428 99.887 33.322C99.9923 34.517 100.24 36.4516 99.0524 37.1766C98.3979 37.4208 97.6731 37.4208 97.0186 37.1766C96.466 36.8925 96.293 36.3751 96.1878 35.7557C96.1013 34.5753 95.8269 32.6261 97.0224 31.9048Z" fill="#C0904D"/>
<path d="M111.959 30.4652C111.902 30.3363 111.804 30.2285 111.68 30.1577C111.555 30.0868 111.411 30.0567 111.267 30.0717H110.199L107.865 33.3507L105.523 30.0717C105.195 30.1009 104.252 29.9806 103.996 30.1956C103.924 30.2498 103.864 30.3181 103.82 30.3962C103.776 30.4742 103.75 30.5602 103.742 30.6487C103.735 30.7372 103.747 30.8262 103.777 30.91C103.807 30.9939 103.855 31.0707 103.917 31.1356L106.925 35.3727V39.0161H108.109C108.212 39.0263 108.317 39.0137 108.414 38.9793C108.512 38.9448 108.6 38.8894 108.672 38.8172C108.745 38.745 108.799 38.6579 108.832 38.5623C108.865 38.4668 108.875 38.3653 108.861 38.2655V35.3982L111.906 31.07C111.961 30.9795 111.994 30.8781 112.004 30.7734C112.013 30.6687 111.997 30.5634 111.959 30.4652Z" fill="#C0904D"/>
<path d="M46.4888 39.031H31.6655L32.5415 34.9688H47.361L46.4888 39.031Z" fill="#E7EFEC"/>
<path d="M32.7482 6.53061e-06L27.9512 10.4745H41.4023L44.8459 3.44294C45.0255 3.0749 45.106 2.66879 45.08 2.26245C45.054 1.85612 44.9222 1.46279 44.6971 1.11909C44.4719 0.775398 44.1606 0.492531 43.7922 0.296855C43.4239 0.101178 43.0104 -0.000940738 42.5903 6.53061e-06H32.7482Z" fill="#E7EFEC"/>
<path d="M3.43624 2.97294L0.00390625 10.4745H13.455L18.5829 0H8.15053C7.15214 0.000205815 6.17527 0.281215 5.33845 0.808934C4.50163 1.33665 3.84083 2.08839 3.43624 2.97294Z" fill="white"/>
<path d="M6.06396 25.7547L11.7031 37.7995C11.8385 38.0884 12.0565 38.3337 12.3313 38.5063C12.606 38.6789 12.926 38.7717 13.2534 38.7736C13.5809 38.7755 13.902 38.6865 14.1789 38.5171C14.4558 38.3477 14.6768 38.105 14.8158 37.8177L27.9737 10.4746H13.4512L6.06396 25.7547Z" fill="#C0904D"/>
</g>
<defs>
<clipPath id="clip0_15_1148">
<rect width="112" height="40" fill="white"/>
</clipPath>
</defs>
</svg>
