<svg width="112" height="40" viewBox="0 0 112 40" fill="none" xmlns="http://www.w3.org/2000/svg">
<g clip-path="url(#clip0_15_705)">
<path d="M42.5676 28.1665C42.215 28.0888 41.8463 28.1169 41.5106 28.2471C41.1748 28.3772 40.8879 28.6033 40.6879 28.8952C40.5715 29.047 40.493 29.2228 40.4585 29.4089C40.3886 29.7028 40.4032 30.0097 40.5006 30.2962C40.5981 30.5827 40.7746 30.8378 41.0112 31.0338C41.3065 31.2835 41.6799 31.4298 42.0713 31.4492C42.377 31.4655 42.6817 31.4026 42.954 31.2668C43.2262 31.131 43.4562 30.9274 43.6202 30.6768C43.73 30.5267 43.8044 30.355 43.8382 30.174C43.9178 29.8355 43.8884 29.4815 43.754 29.1597C43.6196 28.8379 43.3865 28.5637 43.0864 28.3742C42.9302 28.2708 42.7535 28.2001 42.5676 28.1665Z" fill="#2C5E79"/>
<path d="M37.2216 28.1483C36.9623 28.117 36.699 28.1438 36.4521 28.2266C36.2051 28.3093 35.9809 28.4458 35.7968 28.6255C35.4764 28.937 35.2964 29.3588 35.2964 29.7987C35.2964 30.2385 35.4764 30.6604 35.7968 30.9718C35.9832 31.1475 36.2083 31.2797 36.4551 31.3586C36.7019 31.4375 36.9641 31.461 37.2216 31.4272C37.5336 31.4034 37.8309 31.2891 38.075 31.0993C38.2841 30.9435 38.4533 30.7432 38.5698 30.5139C38.6863 30.2846 38.7469 30.0324 38.7469 29.7768C38.7469 29.5212 38.6863 29.2691 38.5698 29.0397C38.4533 28.8104 38.2841 28.6101 38.075 28.4543C37.8289 28.2712 37.5315 28.1645 37.2216 28.1483Z" fill="#2C5E79"/>
<path d="M53.8987 8.70392C54.191 8.70579 54.4789 8.63553 54.7354 8.49977C54.9919 8.36401 55.2086 8.1672 55.3649 7.92789C55.4717 7.77834 55.5436 7.608 55.5754 7.42876C55.6577 7.08401 55.6265 6.72293 55.4863 6.39622C55.3461 6.06951 55.1038 5.79356 54.7935 5.6071C54.6345 5.50513 54.4552 5.43684 54.2671 5.40671C53.9095 5.33255 53.537 5.36732 53.2005 5.50623C52.864 5.64514 52.58 5.88142 52.3874 6.18274C52.2857 6.3311 52.2178 6.49878 52.1882 6.67459C52.1255 6.94815 52.1353 7.23266 52.2168 7.50154C52.2984 7.77041 52.4489 8.01487 52.6544 8.21207C52.8157 8.37261 53.0095 8.49916 53.2236 8.58379C53.4377 8.66842 53.6675 8.70932 53.8987 8.70392Z" fill="#2C5E79"/>
<path d="M58.7743 8.70389C59.0804 8.72025 59.3855 8.65691 59.6579 8.52045C59.9302 8.38399 60.1599 8.17939 60.3232 7.92787C60.4332 7.77966 60.5066 7.60886 60.5375 7.42873C60.6182 7.09022 60.5893 6.73582 60.4547 6.41378C60.3202 6.09174 60.0866 5.81769 59.7856 5.62893C59.6324 5.52521 59.458 5.4544 59.2743 5.42126C58.9217 5.3451 58.5536 5.37392 58.2182 5.50394C57.8828 5.63396 57.5957 5.85912 57.3946 6.14992C57.2802 6.30104 57.2031 6.47551 57.169 6.65999C57.0971 6.95443 57.1107 7.26241 57.2082 7.54985C57.3057 7.83728 57.4835 8.09295 57.7217 8.28855C58.0146 8.53748 58.3853 8.68377 58.7743 8.70389Z" fill="#2C5E79"/>
<path d="M67.9548 21.6996C67.6466 21.682 67.3391 21.7434 67.0632 21.8777C66.7873 22.0121 66.5528 22.2145 66.3834 22.4647C66.2682 22.6154 66.191 22.79 66.1579 22.9748C66.1047 23.2133 66.1056 23.4601 66.1606 23.6982C66.2156 23.9363 66.3234 24.1599 66.4764 24.3536C66.6295 24.5474 66.8242 24.7065 67.047 24.8201C67.2698 24.9337 67.5154 24.999 67.7669 25.0114C68.0733 25.0292 68.3791 24.9669 68.6522 24.831C68.9253 24.6951 69.1558 24.4907 69.3195 24.239C69.4296 24.0908 69.5029 23.92 69.5338 23.7399C69.6043 23.4481 69.5919 23.1433 69.4979 22.8578C69.4039 22.5723 69.2318 22.3169 69 22.1186C68.7125 21.8653 68.3429 21.7172 67.9548 21.6996Z" fill="#2C5E79"/>
<path d="M64.402 20.1913C70.4359 20.1512 69.2028 16.1837 69.3268 11.972C69.3258 11.6335 69.1864 11.3091 68.939 11.0701C68.6917 10.8311 68.3566 10.6968 68.0073 10.6968H67.5073C66.7554 10.6968 66.3795 11.0879 66.3795 11.87V15.761C66.3901 15.9978 66.3425 16.2336 66.2405 16.449C66.1385 16.6644 65.9851 16.8532 65.793 16.9998C65.2817 17.4625 64.2103 17.4515 63.4622 17.4333H60.3043C61.8532 15.7865 61.6389 12.7334 60.105 11.2397C59.2554 10.3471 57.9659 9.90259 56.2479 9.90259C54.7065 9.90259 53.3344 10.2669 52.3494 11.2397C50.8456 12.8464 50.7479 15.7793 52.2441 17.4333H49.0825C47.0223 17.5317 45.6765 17.1018 43.7629 16.1582C42.8419 15.7938 42.4697 16.2347 42.2366 16.9488C42.0261 17.5463 41.8156 18.0818 41.605 18.5555C43.0524 19.04 45.1126 19.7942 45.2629 21.4701C45.2441 22.6651 44.4584 23.3901 43.105 23.361H38.4321C36.2178 23.4557 34.2366 21.9438 34.3757 19.6084C34.3765 18.5551 34.5271 17.5069 34.8231 16.4934C34.9456 16.1762 34.9456 15.8268 34.8231 15.5097C34.7268 15.402 34.605 15.3187 34.4681 15.2666C34.3313 15.2146 34.1835 15.1955 34.0374 15.2109C31.6276 15.1271 31.4659 17.8815 31.4359 19.6084C31.2892 23.5067 33.9923 26.1955 37.9171 26.0899C39.7291 26.0061 44.278 26.3959 45.7667 25.5798C47.9584 24.6617 48.5374 22.1332 47.9509 20.195L64.402 20.1913ZM58.3682 15.506C57.8532 16.3913 56.699 17.7175 55.5637 16.9633C54.1426 16.1035 53.4396 14.5296 54.511 13.1743C55.1163 12.3363 57.1614 12.2926 57.9359 13.1233C58.2519 13.4292 58.463 13.8221 58.5403 14.2485C58.6177 14.6748 58.5576 15.1139 58.3682 15.506Z" fill="#2C5E79"/>
<path d="M63.0827 21.7032C62.8235 21.6728 62.5604 21.7 62.3136 21.7827C62.0667 21.8654 61.8425 22.0014 61.6579 22.1805C61.3381 22.493 61.1587 22.9153 61.1587 23.3555C61.1587 23.7956 61.3381 24.2179 61.6579 24.5304C61.8433 24.7096 62.0681 24.8456 62.3156 24.9283C62.563 25.011 62.8266 25.0381 63.0865 25.0077C63.3986 24.9817 63.6957 24.8663 63.9399 24.6762C64.149 24.52 64.3183 24.3193 64.4348 24.0897C64.5512 23.8601 64.6118 23.6077 64.6118 23.3518C64.6118 23.096 64.5512 22.8435 64.4348 22.6139C64.3183 22.3843 64.149 22.1837 63.9399 22.0275C63.6934 21.8399 63.3952 21.7271 63.0827 21.7032Z" fill="#2C5E79"/>
<path d="M104.297 8.70395C104.59 8.7061 104.879 8.63518 105.136 8.49802C105.393 8.36085 105.609 8.16203 105.763 7.92064C105.869 7.77293 105.94 7.6053 105.974 7.42879C106.047 7.11723 106.026 6.79202 105.915 6.4913C105.804 6.19058 105.606 5.92684 105.346 5.731C105.1 5.53617 104.798 5.41917 104.481 5.39581C104.222 5.3646 103.959 5.3914 103.712 5.47413C103.465 5.55687 103.241 5.69334 103.057 5.87309C102.736 6.18452 102.556 6.6064 102.556 7.04624C102.556 7.48607 102.736 7.90795 103.057 8.21939C103.218 8.37798 103.412 8.5028 103.625 8.58614C103.839 8.66948 104.067 8.70958 104.297 8.70395Z" fill="#2C5E79"/>
<path d="M110.718 6.16085C110.554 5.90944 110.324 5.7052 110.051 5.56937C109.778 5.43354 109.472 5.37107 109.165 5.38847C108.775 5.40807 108.403 5.55437 108.109 5.80381C107.872 5.9991 107.694 6.25416 107.597 6.54087C107.499 6.82759 107.485 7.13483 107.556 7.42873C107.591 7.61299 107.668 7.7873 107.782 7.93879C107.952 8.18871 108.186 8.39097 108.462 8.52526C108.738 8.65956 109.045 8.72117 109.353 8.70389C109.741 8.68605 110.111 8.53792 110.399 8.28491C110.63 8.08643 110.802 7.83095 110.896 7.54554C110.99 7.26013 111.003 6.95541 110.932 6.66363C110.902 6.48237 110.828 6.31038 110.718 6.16085Z" fill="#2C5E79"/>
<path d="M108.41 11.87V15.761C108.425 15.998 108.381 16.235 108.282 16.4524C108.183 16.6697 108.033 16.8611 107.842 17.0107C107.407 17.3176 106.876 17.4707 106.338 17.4442H104.515C104.031 17.4528 103.547 17.4235 103.068 17.3568C102.714 17.2949 102.542 17.1819 102.542 16.9925V12.3873C102.541 11.9386 102.356 11.5086 102.028 11.1917C101.7 10.8748 101.256 10.6968 100.793 10.6968H100.756C99.9839 10.6968 99.5979 11.0879 99.5979 11.87V16.2601C99.6135 16.5704 99.5105 16.8752 99.3084 17.1163C99.1788 17.2333 99.0248 17.3221 98.8569 17.3767C98.689 17.4314 98.511 17.4507 98.3347 17.4333H98.2295C97.8519 17.4293 97.4751 17.4 97.1017 17.3459C96.6781 17.2904 96.2834 17.1068 95.9739 16.8212V13.6224C95.9739 13.2658 95.8277 12.9239 95.5675 12.6718C95.3074 12.4196 94.9545 12.278 94.5866 12.278H94.1581C93.4062 12.278 93.0302 12.6715 93.0302 13.4512V16.5152C93.0387 16.6922 92.9768 16.8656 92.8573 16.9997C92.7407 17.1204 92.5965 17.2128 92.4362 17.2694C92.2574 17.3314 92.0721 17.3741 91.8836 17.3969C91.6954 17.4209 91.5058 17.433 91.316 17.4333C90.8659 17.4529 90.4158 17.3975 89.9851 17.2694C89.7863 17.2026 89.5969 17.112 89.4212 16.9997V13.4912C89.4212 13.1695 89.2893 12.8609 89.0545 12.6334C88.8198 12.4058 88.5013 12.278 88.1693 12.278H87.6317C86.8573 12.278 86.4701 12.6715 86.4701 13.4512V16.2091C86.4799 16.5159 86.3933 16.8182 86.222 17.0762C86.1099 17.2081 85.9654 17.3105 85.8019 17.3742C85.6383 17.4378 85.4609 17.4607 85.2859 17.4406H82.2032V12.8864C82.2064 12.3142 82.0087 11.7579 81.6425 11.309C81.2763 10.8601 80.7634 10.5453 80.1881 10.4163H80.1618C79.405 10.2546 78.6322 10.174 77.8573 10.1758C75.9951 10.1758 74.5741 10.6045 73.5941 11.4619C72.6142 12.3193 72.1217 13.6175 72.1167 15.3566C72.1167 17.0253 72.5515 18.2506 73.4212 19.0327C74.2909 19.8148 75.6205 20.2059 77.4099 20.2059H79.2558C79.2558 20.8507 79.237 21.3244 79.2032 21.6231C79.1694 21.9088 79.0801 22.1857 78.94 22.4392C78.7939 22.6871 78.579 22.8903 78.3197 23.0258C77.9522 23.1878 77.5499 23.2615 77.1468 23.2408C76.6728 23.2352 76.2005 23.1839 75.737 23.0877L75.5077 23.044C75.1657 22.9701 74.8075 23.0306 74.5115 23.2123C74.2155 23.3939 74.0059 23.6819 73.9287 24.0131L73.8573 24.341C73.8133 24.4868 73.8032 24.6402 73.8279 24.7902C73.8526 24.9402 73.9115 25.0829 74.0002 25.2081C74.2697 25.4463 74.6034 25.6055 74.9626 25.6672C75.3376 25.7742 75.7211 25.851 76.1092 25.8967C76.4618 25.9437 76.8171 25.9692 77.1731 25.9732C77.879 25.9832 78.5831 25.9024 79.2671 25.7328C79.8476 25.5821 80.3817 25.2971 80.8235 24.9021C81.286 24.4539 81.6247 23.9001 81.8084 23.2918C82.0772 22.2843 82.2036 21.2462 82.1844 20.2059H85.7934C86.3392 20.2175 86.8828 20.1348 87.3987 19.9618C87.8157 19.8211 88.1992 19.6005 88.5265 19.3133C88.9669 19.6212 89.461 19.8495 89.9851 19.9873C90.4342 20.1196 90.8994 20.1931 91.3686 20.2059H91.8686C92.5174 20.1645 93.1537 20.0128 93.7483 19.7577C94.1485 19.5847 94.5208 19.3564 94.8535 19.0801C95.2282 19.3728 95.6401 19.6177 96.0791 19.8087C96.7471 20.0896 97.4719 20.2204 98.1994 20.1913H98.8836C99.4366 20.2009 99.9849 20.0914 100.489 19.8707C100.908 19.6923 101.3 19.4567 101.651 19.1712C102.104 19.4802 102.6 19.7255 103.124 19.8998C103.561 20.0656 104.024 20.1604 104.493 20.1804H106.417C108.064 20.1804 109.301 19.8452 110.117 19.1712C110.932 18.4971 111.339 17.4588 111.339 16.0452V12.2416C111.339 11.8375 111.175 11.4495 110.884 11.1607C110.592 10.8719 110.195 10.7054 109.778 10.6968H109.557C108.792 10.6968 108.41 11.0879 108.41 11.87ZM79.2558 17.4333H77.3047C76.7413 17.4575 76.1842 17.3111 75.7107 17.0143C75.3009 16.7338 75.0941 16.1399 75.0941 15.24C75.0941 14.3401 75.3197 13.6989 75.7783 13.3236C76.237 12.9484 76.9626 12.7626 77.9626 12.7626C78.3985 12.762 78.8328 12.8134 79.2558 12.9156V17.4333Z" fill="#2C5E79"/>
<path d="M47.3722 30.7241V31.8717H49.8571V38.9726H51.7782V31.8717H53.5301C53.6328 31.8787 53.7358 31.8633 53.8316 31.8267C53.9274 31.7901 54.0136 31.7333 54.0838 31.6603C54.1541 31.5873 54.2066 31.5001 54.2377 31.4049C54.2687 31.3098 54.2774 31.2091 54.2631 31.1103V30.0173H48.1241C48.0246 30.0068 47.924 30.0177 47.8294 30.0492C47.7349 30.0807 47.6486 30.132 47.5768 30.1995C47.505 30.267 47.4495 30.349 47.4141 30.4397C47.3787 30.5303 47.3644 30.6275 47.3722 30.7241Z" fill="#E5B32C"/>
<path d="M59.5374 30.7642C59.1389 29.6894 57.778 29.6712 57.4246 30.7642C55.9209 34.6504 54.9697 37.0951 54.5712 38.0982C54.4171 38.5573 54.5224 39.0018 55.2103 39.02H56.3382L56.9848 37.2275H59.9321L60.6051 39.02H61.7103C62.4246 39.0018 62.5299 38.5719 62.3795 38.1019L59.5374 30.7642ZM59.263 35.4022H57.6991L58.4772 33.2162L59.263 35.4022Z" fill="#E5B32C"/>
<path d="M70.9096 34.7755C69.8758 32.8992 66.4472 34.0942 66.2855 32.6296C66.2855 31.4637 67.8118 31.7588 68.8118 31.8718C70.3419 32.2361 71.0675 32.6004 70.9133 30.6112C69.0149 29.9299 65.8645 29.2814 64.6201 31.3398C63.8682 32.7571 64.5976 34.7828 66.3382 35.0524C67.2855 35.3511 68.4622 35.0742 69.1915 35.7811C70.0637 37.661 66.8382 37.3586 65.7028 37.0125C64.1991 36.3858 64.5036 37.7193 64.4848 38.6374C67.8419 39.6758 72.7329 39.2896 70.9096 34.7755Z" fill="#E5B32C"/>
<path d="M83.2066 30.072C82.9122 30.0719 82.6264 30.1683 82.3957 30.3456C82.165 30.5228 82.0029 30.7705 81.9359 31.0484L80.8081 35.7847L79.4058 32.3636L79.6163 31.8244C80.0412 30.4326 77.887 30.7533 77.6464 31.7479L76.2028 35.5916L75.1013 30.9901C74.9209 29.8971 72.8457 29.6639 73.1652 31.0702L74.8156 37.9852C75.0449 38.9034 75.5675 39.0782 75.9735 39.0782C76.5449 39.0782 76.9735 38.7139 77.2442 38.0035L78.4359 34.8338L79.7705 38.0253C80.2554 39.3114 81.7968 39.6102 82.2103 37.967L83.8758 30.9974C84.0261 30.4618 83.7968 30.072 83.2066 30.072Z" fill="#E5B32C"/>
<path d="M85.8535 31.6058V37.6537C85.8535 38.284 86.1317 39.0309 87.4513 39.0309H91.3122C91.4198 39.043 91.529 39.0325 91.632 39C91.7351 38.9674 91.8297 38.9137 91.9093 38.8424C91.989 38.7711 92.0517 38.6839 92.0934 38.5869C92.135 38.4899 92.1545 38.3854 92.1505 38.2804V37.1874H87.7746V35.2892H90.1167C90.3315 35.3036 90.5435 35.2356 90.7069 35.0998C91.0565 34.8265 90.8836 33.8173 90.9212 33.4311H87.7746V31.9337H91.3911C91.4943 31.942 91.5981 31.9279 91.695 31.8925C91.7919 31.8571 91.8794 31.8014 91.9514 31.7292C92.0233 31.657 92.0778 31.5703 92.1109 31.4753C92.1441 31.3802 92.155 31.2792 92.143 31.1795V30.0866H87.5678C86.1505 30.072 85.8535 30.9063 85.8535 31.6058Z" fill="#E5B32C"/>
<path d="M101.229 31.3726C100.041 29.4599 96.0562 29.4526 94.872 31.3726C93.872 33.0157 93.7968 37.0125 95.4208 38.3313C95.8187 38.6636 96.2975 38.8918 96.8118 38.9944L100.793 39.9745C101.921 40.1748 101.658 39.0564 101.688 38.3641L100.857 38.1856C102.222 36.7866 102.199 32.9684 101.229 31.3726ZM97.0224 31.9045C98.2442 31.3872 99.7705 31.8426 99.887 33.3218C99.9923 34.5168 100.24 36.4514 99.0524 37.1764C98.3979 37.4206 97.6731 37.4206 97.0186 37.1764C96.466 36.8922 96.293 36.3749 96.1878 35.7555C96.1013 34.5751 95.8269 32.6259 97.0224 31.9045Z" fill="#E5B32C"/>
<path d="M111.959 30.4654C111.902 30.3366 111.804 30.2288 111.68 30.1579C111.555 30.087 111.411 30.0569 111.267 30.072H110.199L107.865 33.3509L105.523 30.072C105.195 30.1011 104.252 29.9809 103.996 30.1958C103.924 30.2501 103.864 30.3184 103.82 30.3964C103.776 30.4744 103.75 30.5604 103.742 30.6489C103.735 30.7374 103.747 30.8264 103.777 30.9103C103.807 30.9941 103.855 31.0709 103.917 31.1358L106.925 35.373V39.0163H108.109C108.212 39.0265 108.317 39.0139 108.414 38.9795C108.512 38.9451 108.6 38.8897 108.672 38.8174C108.745 38.7452 108.799 38.6581 108.832 38.5626C108.865 38.467 108.875 38.3656 108.861 38.2658V35.3985L111.906 31.0702C111.961 30.9797 111.994 30.8784 112.004 30.7736C112.013 30.6689 111.997 30.5636 111.959 30.4654Z" fill="#E5B32C"/>
<path d="M46.4888 39.0309H31.6655L32.5415 34.9686H47.361L46.4888 39.0309Z" fill="#C7C7C7"/>
<path d="M32.7482 6.53061e-06L27.9512 10.4745H41.4023L44.8459 3.44294C45.0255 3.0749 45.106 2.66879 45.08 2.26245C45.054 1.85612 44.9222 1.46279 44.6971 1.11909C44.4719 0.775398 44.1606 0.492531 43.7922 0.296855C43.4239 0.101178 43.0104 -0.000940738 42.5903 6.53061e-06H32.7482Z" fill="#C7C7C7"/>
<path d="M3.43575 2.97294L0.00341797 10.4745H13.4545L18.5824 0H8.15004C7.15165 0.000205815 6.17478 0.281215 5.33796 0.808934C4.50114 1.33665 3.84035 2.08839 3.43575 2.97294Z" fill="#2C5E79"/>
<path d="M6.06396 25.7546L11.7031 37.7994C11.8385 38.0883 12.0565 38.3335 12.3313 38.5062C12.606 38.6788 12.926 38.7715 13.2534 38.7735C13.5809 38.7754 13.902 38.6864 14.1789 38.517C14.4558 38.3476 14.6768 38.1049 14.8158 37.8176L27.9737 10.4745H13.4512L6.06396 25.7546Z" fill="#E5B32C"/>
</g>
<defs>
<clipPath id="clip0_15_705">
<rect width="112" height="40" fill="white"/>
</clipPath>
</defs>
</svg>
