<svg width="80" height="80" viewBox="0 0 80 80" fill="none" xmlns="http://www.w3.org/2000/svg">
<circle cx="40" cy="40" r="40" fill="#525CDD" fill-opacity="0.1"/>
<g clip-path="url(#clip0_93_8342)">
<path d="M55.8203 60H58.75C59.3972 60 59.9219 59.4753 59.9219 58.8281V30.5469C59.9219 29.8997 59.3972 29.375 58.75 29.375H21.25C20.6028 29.375 20.0781 29.8997 20.0781 30.5469V58.8281C20.0781 59.4753 20.6028 60 21.25 60H24.1797L25.3125 59.6875L26.5234 60H30.625L40 58.75L49.375 60H53.4766L54.6875 59.0625L55.8203 60Z" fill="#525CDD"/>
<path d="M59.9219 58.8281V30.5469C59.9219 29.8997 59.3972 29.375 58.75 29.375H40V58.75L49.375 60H53.4766L54.6875 59.0625L55.8203 60H58.75C59.3972 60 59.9219 59.4753 59.9219 58.8281Z" fill="#00337A"/>
<path d="M54.6484 52.8125C54.0012 52.8125 53.4766 53.3372 53.4766 53.9844V60H55.8203V53.9844C55.8203 53.3372 55.2956 52.8125 54.6484 52.8125Z" fill="#FFB454"/>
<path d="M25.3516 52.8125C24.7044 52.8125 24.1797 53.3372 24.1797 53.9844V60H26.5234V53.9844C26.5234 53.3372 25.9987 52.8125 25.3516 52.8125Z" fill="#FFDD54"/>
<path d="M30.625 21.1719V60H34.9219L40 58.9844L45.0781 60H49.375V21.1719C49.375 20.5247 48.8503 20 48.2031 20H31.7969C31.1497 20 30.625 20.5247 30.625 21.1719Z" fill="#6E75E2"/>
<path d="M49.375 60V21.1719C49.375 20.5247 48.8503 20 48.2031 20H40V58.9844L45.0781 60H49.375Z" fill="#525CDD"/>
<path d="M44.6875 52.8125H35.3125C34.6653 52.8125 34.1406 53.3372 34.1406 53.9844V60H36.4844L37.6562 58.9844L38.8281 60H41.1719L42.3245 59.001L43.5156 60H45.8594V53.9844C45.8594 53.3372 45.3347 52.8125 44.6875 52.8125Z" fill="#FFDD54"/>
<path d="M44.6875 52.8125H40V60H41.1719L42.3438 58.9844L43.5156 60H45.8594V53.9844C45.8594 53.3372 45.3347 52.8125 44.6875 52.8125Z" fill="#FFB454"/>
<path d="M35.3125 27.0312C35.9597 27.0312 36.4844 26.5066 36.4844 25.8594C36.4844 25.2122 35.9597 24.6875 35.3125 24.6875C34.6653 24.6875 34.1406 25.2122 34.1406 25.8594C34.1406 26.5066 34.6653 27.0312 35.3125 27.0312Z" fill="#C8FFFF"/>
<path d="M44.6875 27.0312C45.3347 27.0312 45.8594 26.5066 45.8594 25.8594C45.8594 25.2122 45.3347 24.6875 44.6875 24.6875C44.0403 24.6875 43.5156 25.2122 43.5156 25.8594C43.5156 26.5066 44.0403 27.0312 44.6875 27.0312Z" fill="#ACCEFF"/>
<path d="M40 27.0312C40.6472 27.0312 41.1719 26.5066 41.1719 25.8594C41.1719 25.2122 40.6472 24.6875 40 24.6875C39.3528 24.6875 38.8281 25.2122 38.8281 25.8594C38.8281 26.5066 39.3528 27.0312 40 27.0312Z" fill="#C8FFFF"/>
<path d="M41.1719 25.8594C41.1719 25.2122 40.6472 24.6875 40 24.6875V27.0312C40.6472 27.0312 41.1719 26.5066 41.1719 25.8594Z" fill="#ACCEFF"/>
<path d="M35.3125 31.7188C35.9597 31.7188 36.4844 31.1941 36.4844 30.5469C36.4844 29.8997 35.9597 29.375 35.3125 29.375C34.6653 29.375 34.1406 29.8997 34.1406 30.5469C34.1406 31.1941 34.6653 31.7188 35.3125 31.7188Z" fill="#C8FFFF"/>
<path d="M44.6875 31.7188C45.3347 31.7188 45.8594 31.1941 45.8594 30.5469C45.8594 29.8997 45.3347 29.375 44.6875 29.375C44.0403 29.375 43.5156 29.8997 43.5156 30.5469C43.5156 31.1941 44.0403 31.7188 44.6875 31.7188Z" fill="#ACCEFF"/>
<path d="M40 31.7188C40.6472 31.7188 41.1719 31.1941 41.1719 30.5469C41.1719 29.8997 40.6472 29.375 40 29.375C39.3528 29.375 38.8281 29.8997 38.8281 30.5469C38.8281 31.1941 39.3528 31.7188 40 31.7188Z" fill="#C8FFFF"/>
<path d="M41.1719 30.5469C41.1719 29.8997 40.6472 29.375 40 29.375V31.7188C40.6472 31.7188 41.1719 31.1941 41.1719 30.5469Z" fill="#ACCEFF"/>
<path d="M35.3125 36.4062C35.9597 36.4062 36.4844 35.8816 36.4844 35.2344C36.4844 34.5872 35.9597 34.0625 35.3125 34.0625C34.6653 34.0625 34.1406 34.5872 34.1406 35.2344C34.1406 35.8816 34.6653 36.4062 35.3125 36.4062Z" fill="#C8FFFF"/>
<path d="M44.6875 36.4062C45.3347 36.4062 45.8594 35.8816 45.8594 35.2344C45.8594 34.5872 45.3347 34.0625 44.6875 34.0625C44.0403 34.0625 43.5156 34.5872 43.5156 35.2344C43.5156 35.8816 44.0403 36.4062 44.6875 36.4062Z" fill="#ACCEFF"/>
<path d="M40 36.4062C40.6472 36.4062 41.1719 35.8816 41.1719 35.2344C41.1719 34.5872 40.6472 34.0625 40 34.0625C39.3528 34.0625 38.8281 34.5872 38.8281 35.2344C38.8281 35.8816 39.3528 36.4062 40 36.4062Z" fill="#C8FFFF"/>
<path d="M41.1719 35.2344C41.1719 34.5872 40.6472 34.0625 40 34.0625V36.4062C40.6472 36.4062 41.1719 35.8816 41.1719 35.2344Z" fill="#ACCEFF"/>
<path d="M35.3125 45.7812C35.9597 45.7812 36.4844 45.2566 36.4844 44.6094C36.4844 43.9622 35.9597 43.4375 35.3125 43.4375C34.6653 43.4375 34.1406 43.9622 34.1406 44.6094C34.1406 45.2566 34.6653 45.7812 35.3125 45.7812Z" fill="#C8FFFF"/>
<path d="M44.6875 45.7812C45.3347 45.7812 45.8594 45.2566 45.8594 44.6094C45.8594 43.9622 45.3347 43.4375 44.6875 43.4375C44.0403 43.4375 43.5156 43.9622 43.5156 44.6094C43.5156 45.2566 44.0403 45.7812 44.6875 45.7812Z" fill="#ACCEFF"/>
<path d="M40 45.7812C40.6472 45.7812 41.1719 45.2566 41.1719 44.6094C41.1719 43.9622 40.6472 43.4375 40 43.4375C39.3528 43.4375 38.8281 43.9622 38.8281 44.6094C38.8281 45.2566 39.3528 45.7812 40 45.7812Z" fill="#C8FFFF"/>
<path d="M41.1719 44.6094C41.1719 43.9622 40.6472 43.4375 40 43.4375V45.7812C40.6472 45.7812 41.1719 45.2566 41.1719 44.6094Z" fill="#ACCEFF"/>
<path d="M35.3125 50.4688C35.9597 50.4688 36.4844 49.9441 36.4844 49.2969C36.4844 48.6497 35.9597 48.125 35.3125 48.125C34.6653 48.125 34.1406 48.6497 34.1406 49.2969C34.1406 49.9441 34.6653 50.4688 35.3125 50.4688Z" fill="#C8FFFF"/>
<path d="M44.6875 50.4688C45.3347 50.4688 45.8594 49.9441 45.8594 49.2969C45.8594 48.6497 45.3347 48.125 44.6875 48.125C44.0403 48.125 43.5156 48.6497 43.5156 49.2969C43.5156 49.9441 44.0403 50.4688 44.6875 50.4688Z" fill="#ACCEFF"/>
<path d="M40 50.4688C40.6472 50.4688 41.1719 49.9441 41.1719 49.2969C41.1719 48.6497 40.6472 48.125 40 48.125C39.3528 48.125 38.8281 48.6497 38.8281 49.2969C38.8281 49.9441 39.3528 50.4688 40 50.4688Z" fill="#C8FFFF"/>
<path d="M41.1719 49.2969C41.1719 48.6497 40.6472 48.125 40 48.125V50.4688C40.6472 50.4688 41.1719 49.9441 41.1719 49.2969Z" fill="#ACCEFF"/>
<path d="M35.3125 41.0938C35.9597 41.0938 36.4844 40.5691 36.4844 39.9219C36.4844 39.2747 35.9597 38.75 35.3125 38.75C34.6653 38.75 34.1406 39.2747 34.1406 39.9219C34.1406 40.5691 34.6653 41.0938 35.3125 41.0938Z" fill="#C8FFFF"/>
<path d="M44.6875 41.0938C45.3347 41.0938 45.8594 40.5691 45.8594 39.9219C45.8594 39.2747 45.3347 38.75 44.6875 38.75C44.0403 38.75 43.5156 39.2747 43.5156 39.9219C43.5156 40.5691 44.0403 41.0938 44.6875 41.0938Z" fill="#ACCEFF"/>
<path d="M40 41.0938C40.6472 41.0938 41.1719 40.5691 41.1719 39.9219C41.1719 39.2747 40.6472 38.75 40 38.75C39.3528 38.75 38.8281 39.2747 38.8281 39.9219C38.8281 40.5691 39.3528 41.0938 40 41.0938Z" fill="#C8FFFF"/>
<path d="M41.1719 39.9219C41.1719 39.2747 40.6472 38.75 40 38.75V41.0938C40.6472 41.0938 41.1719 40.5691 41.1719 39.9219ZM41.1719 55.1562H43.5156V60H41.1719V55.1562Z" fill="#ACCEFF"/>
<path d="M36.4844 55.1562H38.8281V60H36.4844V55.1562Z" fill="#C8FFFF"/>
<path d="M54.6484 36.4062C55.2956 36.4062 55.8203 35.8816 55.8203 35.2344C55.8203 34.5872 55.2956 34.0625 54.6484 34.0625C54.0012 34.0625 53.4766 34.5872 53.4766 35.2344C53.4766 35.8816 54.0012 36.4062 54.6484 36.4062Z" fill="#ACCEFF"/>
<path d="M54.6484 41.0938C55.2956 41.0938 55.8203 40.5691 55.8203 39.9219C55.8203 39.2747 55.2956 38.75 54.6484 38.75C54.0012 38.75 53.4766 39.2747 53.4766 39.9219C53.4766 40.5691 54.0012 41.0938 54.6484 41.0938Z" fill="#ACCEFF"/>
<path d="M54.6484 45.7812C55.2956 45.7812 55.8203 45.2566 55.8203 44.6094C55.8203 43.9622 55.2956 43.4375 54.6484 43.4375C54.0012 43.4375 53.4766 43.9622 53.4766 44.6094C53.4766 45.2566 54.0012 45.7812 54.6484 45.7812Z" fill="#ACCEFF"/>
<path d="M54.6484 50.4688C55.2956 50.4688 55.8203 49.9441 55.8203 49.2969C55.8203 48.6497 55.2956 48.125 54.6484 48.125C54.0012 48.125 53.4766 48.6497 53.4766 49.2969C53.4766 49.9441 54.0012 50.4688 54.6484 50.4688Z" fill="#ACCEFF"/>
<path d="M25.3516 36.4062C25.9988 36.4062 26.5234 35.8816 26.5234 35.2344C26.5234 34.5872 25.9988 34.0625 25.3516 34.0625C24.7044 34.0625 24.1797 34.5872 24.1797 35.2344C24.1797 35.8816 24.7044 36.4062 25.3516 36.4062Z" fill="#C8FFFF"/>
<path d="M25.3516 41.0938C25.9988 41.0938 26.5234 40.5691 26.5234 39.9219C26.5234 39.2747 25.9988 38.75 25.3516 38.75C24.7044 38.75 24.1797 39.2747 24.1797 39.9219C24.1797 40.5691 24.7044 41.0938 25.3516 41.0938Z" fill="#C8FFFF"/>
<path d="M25.3516 45.7812C25.9988 45.7812 26.5234 45.2566 26.5234 44.6094C26.5234 43.9622 25.9988 43.4375 25.3516 43.4375C24.7044 43.4375 24.1797 43.9622 24.1797 44.6094C24.1797 45.2566 24.7044 45.7812 25.3516 45.7812Z" fill="#C8FFFF"/>
<path d="M25.3516 50.4688C25.9988 50.4688 26.5234 49.9441 26.5234 49.2969C26.5234 48.6497 25.9988 48.125 25.3516 48.125C24.7044 48.125 24.1797 48.6497 24.1797 49.2969C24.1797 49.9441 24.7044 50.4688 25.3516 50.4688Z" fill="#C8FFFF"/>
</g>
<defs>
<clipPath id="clip0_93_8342">
<rect width="40" height="40" fill="white" transform="translate(20 20)"/>
</clipPath>
</defs>
</svg>
