<svg width="767" height="621" viewBox="0 0 767 621" fill="none" xmlns="http://www.w3.org/2000/svg">
    <path d="M1079.84 131.874L1072.77 124.802L587.692 616.949L1079.84 131.874Z" fill="url(#paint0_linear_67_1637)" />
    <path d="M1056.5 108.539L1049.43 101.468L564.357 593.614L1056.5 108.539Z" fill="url(#paint1_linear_67_1637)" />
    <path d="M1033.17 85.2046L1026.1 78.1335L541.023 570.28L1033.17 85.2046Z" fill="url(#paint2_linear_67_1637)" />
    <path d="M1009.83 61.8701L1002.76 54.799L517.688 546.945L1009.83 61.8701Z" fill="url(#paint3_linear_67_1637)" />
    <path d="M986.5 38.5356L979.429 31.4646L494.354 523.611L986.5 38.5356Z" fill="url(#paint4_linear_67_1637)" />
    <path d="M963.165 15.2007L956.094 8.12962L471.019 500.276L963.165 15.2007Z" fill="url(#paint5_linear_67_1637)" />
    <path d="M939.831 -8.13379L932.759 -15.2049L447.684 476.941L939.831 -8.13379Z" fill="url(#paint6_linear_67_1637)" />
    <path d="M916.496 -31.4683L909.425 -38.5393L424.35 453.607L916.496 -31.4683Z" fill="url(#paint7_linear_67_1637)" />
    <path d="M893.162 -54.8027L886.091 -61.8738L401.015 430.273L893.162 -54.8027Z" fill="url(#paint8_linear_67_1637)" />
    <path d="M869.827 -78.1372L862.756 -85.2083L377.681 406.938L869.827 -78.1372Z" fill="url(#paint9_linear_67_1637)" />
    <path d="M846.493 -101.472L839.422 -108.543L354.346 383.604L846.493 -101.472Z" fill="url(#paint10_linear_67_1637)" />
    <path d="M823.158 -124.806L816.087 -131.877L331.012 360.269L823.158 -124.806Z" fill="url(#paint11_linear_67_1637)" />
    <path d="M799.824 -148.141L792.753 -155.212L307.677 336.935L799.824 -148.141Z" fill="url(#paint12_linear_67_1637)" />
    <path d="M776.489 -171.475L769.418 -178.546L284.343 313.6L776.489 -171.475Z" fill="url(#paint13_linear_67_1637)" />
    <path d="M753.155 -194.81L746.084 -201.881L261.008 290.266L753.155 -194.81Z" fill="url(#paint14_linear_67_1637)" />
    <path d="M729.82 -218.145L722.749 -225.216L237.674 266.931L729.82 -218.145Z" fill="url(#paint15_linear_67_1637)" />
    <path d="M706.485 -241.479L699.414 -248.55L214.339 243.596L706.485 -241.479Z" fill="url(#paint16_linear_67_1637)" />
    <path d="M683.151 -264.813L676.08 -271.885L191.005 220.262L683.151 -264.813Z" fill="url(#paint17_linear_67_1637)" />
    <path d="M659.816 -288.148L652.745 -295.219L167.67 196.927L659.816 -288.148Z" fill="url(#paint18_linear_67_1637)" />
    <path d="M636.482 -311.482L629.411 -318.553L144.336 173.593L636.482 -311.482Z" fill="url(#paint19_linear_67_1637)" />
    <path d="M613.147 -334.817L606.076 -341.888L121.001 150.258L613.147 -334.817Z" fill="url(#paint20_linear_67_1637)" />
    <path d="M589.813 -358.151L582.742 -365.222L97.6667 126.924L589.813 -358.151Z" fill="url(#paint21_linear_67_1637)" />
    <path d="M566.479 -381.486L559.407 -388.557L74.3322 103.589L566.479 -381.486Z" fill="url(#paint22_linear_67_1637)" />
    <path d="M543.144 -404.821L536.073 -411.892L50.9977 80.2547L543.144 -404.821Z" fill="url(#paint23_linear_67_1637)" />
    <path d="M519.81 -428.155L512.739 -435.226L27.6633 56.9202L519.81 -428.155Z" fill="url(#paint24_linear_67_1637)" />
    <path d="M496.475 -451.49L489.404 -458.561L4.3283 33.5857L496.475 -451.49Z" fill="url(#paint25_linear_67_1637)" />
    <defs>
        <linearGradient id="paint0_linear_67_1637" x1="1076.3" y1="128.338" x2="587.692" y2="616.949" gradientUnits="userSpaceOnUse">
            <stop stop-color="#577C8E" />
            <stop offset="1" stop-color="#577C8E" stop-opacity="0" />
        </linearGradient>
        <linearGradient id="paint1_linear_67_1637" x1="1052.97" y1="105.004" x2="564.357" y2="593.614" gradientUnits="userSpaceOnUse">
            <stop stop-color="#577C8E" />
            <stop offset="1" stop-color="#577C8E" stop-opacity="0" />
        </linearGradient>
        <linearGradient id="paint2_linear_67_1637" x1="1029.63" y1="81.6691" x2="541.023" y2="570.28" gradientUnits="userSpaceOnUse">
            <stop stop-color="#577C8E" />
            <stop offset="1" stop-color="#577C8E" stop-opacity="0" />
        </linearGradient>
        <linearGradient id="paint3_linear_67_1637" x1="1006.3" y1="58.3346" x2="517.688" y2="546.945" gradientUnits="userSpaceOnUse">
            <stop stop-color="#577C8E" />
            <stop offset="1" stop-color="#577C8E" stop-opacity="0" />
        </linearGradient>
        <linearGradient id="paint4_linear_67_1637" x1="982.964" y1="35.0001" x2="494.354" y2="523.611" gradientUnits="userSpaceOnUse">
            <stop stop-color="#577C8E" />
            <stop offset="1" stop-color="#577C8E" stop-opacity="0" />
        </linearGradient>
        <linearGradient id="paint5_linear_67_1637" x1="959.63" y1="11.6651" x2="471.019" y2="500.276" gradientUnits="userSpaceOnUse">
            <stop stop-color="#577C8E" />
            <stop offset="1" stop-color="#577C8E" stop-opacity="0" />
        </linearGradient>
        <linearGradient id="paint6_linear_67_1637" x1="936.295" y1="-11.6693" x2="447.684" y2="476.941" gradientUnits="userSpaceOnUse">
            <stop stop-color="#577C8E" />
            <stop offset="1" stop-color="#577C8E" stop-opacity="0" />
        </linearGradient>
        <linearGradient id="paint7_linear_67_1637" x1="912.961" y1="-35.0038" x2="424.35" y2="453.607" gradientUnits="userSpaceOnUse">
            <stop stop-color="#577C8E" />
            <stop offset="1" stop-color="#577C8E" stop-opacity="0" />
        </linearGradient>
        <linearGradient id="paint8_linear_67_1637" x1="889.626" y1="-58.3383" x2="401.015" y2="430.273" gradientUnits="userSpaceOnUse">
            <stop stop-color="#577C8E" />
            <stop offset="1" stop-color="#577C8E" stop-opacity="0" />
        </linearGradient>
        <linearGradient id="paint9_linear_67_1637" x1="866.292" y1="-81.6727" x2="377.681" y2="406.938" gradientUnits="userSpaceOnUse">
            <stop stop-color="#577C8E" />
            <stop offset="1" stop-color="#577C8E" stop-opacity="0" />
        </linearGradient>
        <linearGradient id="paint10_linear_67_1637" x1="842.957" y1="-105.007" x2="354.346" y2="383.604" gradientUnits="userSpaceOnUse">
            <stop stop-color="#577C8E" />
            <stop offset="1" stop-color="#577C8E" stop-opacity="0" />
        </linearGradient>
        <linearGradient id="paint11_linear_67_1637" x1="819.623" y1="-128.342" x2="331.012" y2="360.269" gradientUnits="userSpaceOnUse">
            <stop stop-color="#577C8E" />
            <stop offset="1" stop-color="#577C8E" stop-opacity="0" />
        </linearGradient>
        <linearGradient id="paint12_linear_67_1637" x1="796.288" y1="-151.676" x2="307.677" y2="336.935" gradientUnits="userSpaceOnUse">
            <stop stop-color="#577C8E" />
            <stop offset="1" stop-color="#577C8E" stop-opacity="0" />
        </linearGradient>
        <linearGradient id="paint13_linear_67_1637" x1="772.954" y1="-175.011" x2="284.343" y2="313.6" gradientUnits="userSpaceOnUse">
            <stop stop-color="#577C8E" />
            <stop offset="1" stop-color="#577C8E" stop-opacity="0" />
        </linearGradient>
        <linearGradient id="paint14_linear_67_1637" x1="749.619" y1="-198.345" x2="261.008" y2="290.266" gradientUnits="userSpaceOnUse">
            <stop stop-color="#577C8E" />
            <stop offset="1" stop-color="#577C8E" stop-opacity="0" />
        </linearGradient>
        <linearGradient id="paint15_linear_67_1637" x1="726.284" y1="-221.68" x2="237.674" y2="266.931" gradientUnits="userSpaceOnUse">
            <stop stop-color="#577C8E" />
            <stop offset="1" stop-color="#577C8E" stop-opacity="0" />
        </linearGradient>
        <linearGradient id="paint16_linear_67_1637" x1="702.95" y1="-245.015" x2="214.339" y2="243.596" gradientUnits="userSpaceOnUse">
            <stop stop-color="#577C8E" />
            <stop offset="1" stop-color="#577C8E" stop-opacity="0" />
        </linearGradient>
        <linearGradient id="paint17_linear_67_1637" x1="679.615" y1="-268.349" x2="191.005" y2="220.262" gradientUnits="userSpaceOnUse">
            <stop stop-color="#577C8E" />
            <stop offset="1" stop-color="#577C8E" stop-opacity="0" />
        </linearGradient>
        <linearGradient id="paint18_linear_67_1637" x1="656.281" y1="-291.683" x2="167.67" y2="196.927" gradientUnits="userSpaceOnUse">
            <stop stop-color="#577C8E" />
            <stop offset="1" stop-color="#577C8E" stop-opacity="0" />
        </linearGradient>
        <linearGradient id="paint19_linear_67_1637" x1="632.946" y1="-315.018" x2="144.336" y2="173.593" gradientUnits="userSpaceOnUse">
            <stop stop-color="#577C8E" />
            <stop offset="1" stop-color="#577C8E" stop-opacity="0" />
        </linearGradient>
        <linearGradient id="paint20_linear_67_1637" x1="609.612" y1="-338.352" x2="121.001" y2="150.258" gradientUnits="userSpaceOnUse">
            <stop stop-color="#577C8E" />
            <stop offset="1" stop-color="#577C8E" stop-opacity="0" />
        </linearGradient>
        <linearGradient id="paint21_linear_67_1637" x1="586.277" y1="-361.687" x2="97.6667" y2="126.924" gradientUnits="userSpaceOnUse">
            <stop stop-color="#577C8E" />
            <stop offset="1" stop-color="#577C8E" stop-opacity="0" />
        </linearGradient>
        <linearGradient id="paint22_linear_67_1637" x1="562.943" y1="-385.022" x2="74.3322" y2="103.589" gradientUnits="userSpaceOnUse">
            <stop stop-color="#577C8E" />
            <stop offset="1" stop-color="#577C8E" stop-opacity="0" />
        </linearGradient>
        <linearGradient id="paint23_linear_67_1637" x1="539.609" y1="-408.356" x2="50.9977" y2="80.2547" gradientUnits="userSpaceOnUse">
            <stop stop-color="#577C8E" />
            <stop offset="1" stop-color="#577C8E" stop-opacity="0" />
        </linearGradient>
        <linearGradient id="paint24_linear_67_1637" x1="516.274" y1="-431.691" x2="27.6633" y2="56.9202" gradientUnits="userSpaceOnUse">
            <stop stop-color="#577C8E" />
            <stop offset="1" stop-color="#577C8E" stop-opacity="0" />
        </linearGradient>
        <linearGradient id="paint25_linear_67_1637" x1="492.939" y1="-455.025" x2="4.3283" y2="33.5857" gradientUnits="userSpaceOnUse">
            <stop stop-color="#577C8E" />
            <stop offset="1" stop-color="#577C8E" stop-opacity="0" />
        </linearGradient>
    </defs>
</svg>
    