<svg width="18" height="16" viewBox="0 0 18 16" fill="none" xmlns="http://www.w3.org/2000/svg">
<path d="M8.8936 15.6375C7.90193 15.6375 7.24027 15.1692 6.64943 14.7567C6.22943 14.4592 5.8361 14.1767 5.37193 14.0983C5.15094 14.0603 4.92701 14.0419 4.70277 14.0433C4.30943 14.0433 3.99693 14.1025 3.77443 14.1475C3.63277 14.1725 3.51443 14.1958 3.4211 14.1958C3.32443 14.1958 3.20193 14.1692 3.15443 14.0058C3.11277 13.8725 3.08693 13.7458 3.0611 13.6233C2.99443 13.315 2.9386 13.1258 2.82277 13.1067C1.58193 12.9175 0.839434 12.6317 0.694434 12.2933C0.682767 12.2567 0.668601 12.2183 0.668601 12.1892C0.660267 12.0858 0.735267 12 0.839434 11.9808C1.8236 11.8183 2.70777 11.2942 3.45443 10.4325C4.03443 9.76333 4.31693 9.11667 4.34277 9.04667C4.34277 9.03833 4.35027 9.03833 4.35027 9.03833C4.49193 8.74583 4.5211 8.49667 4.43527 8.2925C4.27527 7.90917 3.74777 7.74583 3.38777 7.63417C3.29527 7.60917 3.21693 7.57917 3.15027 7.55667C2.84193 7.43417 2.3286 7.17333 2.3961 6.81333C2.44443 6.55333 2.78943 6.3675 3.07193 6.3675C3.15027 6.3675 3.21693 6.37917 3.27193 6.40917C3.5886 6.55333 3.87443 6.6275 4.11943 6.6275C4.42443 6.6275 4.56943 6.5125 4.6061 6.47583C4.59834 6.311 4.58862 6.14627 4.57693 5.98167C4.50193 4.84417 4.41693 3.4325 4.77693 2.62333C5.8586 0.200833 8.15443 0.00666658 8.83443 0.00666658L9.1311 0H9.17277C9.85193 0 12.1478 0.189167 13.2294 2.61583C13.5936 3.425 13.5044 4.84083 13.4294 5.97417L13.4219 6.03C13.4153 6.18167 13.4036 6.32667 13.3969 6.47583C13.4336 6.505 13.5669 6.61667 13.8419 6.62C14.0803 6.61333 14.3403 6.535 14.6369 6.40083C14.7191 6.36534 14.8075 6.34664 14.8969 6.34583C15.0011 6.34583 15.1053 6.37083 15.1944 6.40083H15.2019C15.4511 6.49417 15.6144 6.66833 15.6144 6.85083C15.6219 7.02167 15.4878 7.28167 14.8528 7.53833C14.7861 7.56333 14.7078 7.59417 14.6153 7.61583C14.2619 7.72417 13.7344 7.895 13.5669 8.27417C13.4744 8.47417 13.5111 8.73083 13.6528 9.02083C13.6528 9.0275 13.6603 9.0275 13.6603 9.0275C13.7011 9.13167 14.7744 11.5692 17.1636 11.9667C17.2124 11.9749 17.2566 12.0005 17.288 12.0388C17.3195 12.0771 17.3359 12.1255 17.3344 12.175C17.335 12.2124 17.3261 12.2494 17.3086 12.2825C17.1636 12.6242 16.4278 12.9025 15.1794 13.0958C15.0644 13.1142 15.0086 13.3042 14.9419 13.6125C14.9155 13.741 14.8846 13.8686 14.8494 13.995C14.8119 14.1175 14.7336 14.1842 14.5994 14.1842H14.5819C14.4631 14.1818 14.3448 14.1682 14.2286 14.1433C13.9232 14.0782 13.6117 14.0458 13.2994 14.0467C13.0755 14.0472 12.852 14.0659 12.6311 14.1025C12.1703 14.1775 11.7728 14.4633 11.3528 14.7608C10.7544 15.1692 10.0894 15.6375 9.10527 15.6375H8.8936Z" fill="white"/>
</svg>
