<svg width="500" height="500" viewBox="0 0 500 500" fill="none" xmlns="http://www.w3.org/2000/svg">
<path d="M500 382.4H0V382.65H500V382.4Z" fill="#E6E6E6"/>
<path d="M135.57 392.99H101.17V393.24H135.57V392.99Z" fill="#E6E6E6"/>
<path d="M93.8405 393.11H74.4805V393.36H93.8405V393.11Z" fill="#E6E6E6"/>
<path d="M214.24 392.53H175V392.78H214.24V392.53Z" fill="#E6E6E6"/>
<path d="M314.56 388.97H198.78V389.22H314.56V388.97Z" fill="#E6E6E6"/>
<path d="M413.67 389.1H360.68V389.35H413.67V389.1Z" fill="#E6E6E6"/>
<path d="M237 337.8H43.91C42.3973 337.797 40.9475 337.195 39.8788 336.124C38.8102 335.053 38.21 333.603 38.21 332.09V60.66C38.2231 59.156 38.8292 57.718 39.8964 56.6582C40.9637 55.5985 42.4059 55.0026 43.91 55H237C238.514 55 239.967 55.6016 241.038 56.6724C242.108 57.7433 242.71 59.1956 242.71 60.71V332.09C242.71 333.604 242.108 335.057 241.038 336.128C239.967 337.198 238.514 337.8 237 337.8ZM43.91 55.2C42.4636 55.2026 41.0774 55.7791 40.0556 56.8027C39.0338 57.8264 38.46 59.2136 38.46 60.66V332.09C38.46 333.536 39.0338 334.924 40.0556 335.947C41.0774 336.971 42.4636 337.547 43.91 337.55H237C238.447 337.547 239.834 336.971 240.858 335.948C241.881 334.924 242.457 333.537 242.46 332.09V60.66C242.457 59.2127 241.881 57.8255 240.858 56.8021C239.834 55.7787 238.447 55.2026 237 55.2H43.91Z" fill="#E6E6E6"/>
<path d="M453.31 337.8H260.21C258.696 337.797 257.246 337.195 256.175 336.125C255.105 335.054 254.503 333.604 254.5 332.09V60.66C254.516 59.1551 255.124 57.7171 256.193 56.6576C257.262 55.5981 258.705 55.0025 260.21 55H453.31C454.812 55.0052 456.252 55.6022 457.317 56.6617C458.382 57.7212 458.987 59.1578 459 60.66V332.09C459 333.601 458.401 335.05 457.335 336.121C456.268 337.191 454.821 337.795 453.31 337.8ZM260.21 55.2C258.763 55.2026 257.375 55.7787 256.352 56.8021C255.329 57.8255 254.753 59.2127 254.75 60.66V332.09C254.753 333.537 255.329 334.924 256.352 335.948C257.375 336.971 258.763 337.547 260.21 337.55H453.31C454.757 337.547 456.145 336.971 457.168 335.948C458.191 334.924 458.767 333.537 458.77 332.09V60.66C458.767 59.2127 458.191 57.8255 457.168 56.8021C456.145 55.7787 454.757 55.2026 453.31 55.2H260.21Z" fill="#E6E6E6"/>
<path d="M431.53 84.98H175V200.69H431.53V84.98Z" fill="#E0E0E0"/>
<path d="M436.97 84.98H177.54V200.69H436.97V84.98Z" fill="#F5F5F5"/>
<path d="M431.53 200.69H175V210.8H431.53V200.69Z" fill="#E0E0E0"/>
<path d="M446.04 200.69H186.61V210.8H446.04V200.69Z" fill="#F5F5F5"/>
<path d="M429.35 193.08V92.6001L185.16 92.6001V193.08H429.35Z" fill="#FAFAFA"/>
<path d="M249.78 193.07L294.49 92.5901H340.24L295.54 193.07H249.78Z" fill="white"/>
<path d="M188.69 176.28C188.545 176.28 188.407 176.223 188.304 176.122C188.201 176.021 188.142 175.884 188.14 175.74V97.55C188.142 97.4059 188.201 97.2685 188.304 97.1675C188.407 97.0666 188.545 97.01 188.69 97.01C188.833 97.01 188.97 97.0669 189.071 97.1682C189.173 97.2694 189.23 97.4068 189.23 97.55V175.74C189.23 175.883 189.173 176.021 189.071 176.122C188.97 176.223 188.833 176.28 188.69 176.28Z" fill="#E6E6E6"/>
<path d="M312.74 193.07L357.44 92.59H373.27L328.56 193.07H312.74Z" fill="white"/>
<path d="M429.35 193.08V92.6001H428.38V193.08H429.35Z" fill="#E6E6E6"/>
<path d="M438.77 100.27H182.24L181.54 95.56H438.07L438.77 100.27Z" fill="#E0E0E0"/>
<path d="M438.77 108.06H182.24L181.54 103.34H438.07L438.77 108.06Z" fill="#E0E0E0"/>
<path d="M438.77 115.85H182.24L181.54 111.14H438.07L438.77 115.85Z" fill="#E0E0E0"/>
<path d="M438.77 123.64H182.24L181.54 118.92H438.07L438.77 123.64Z" fill="#E0E0E0"/>
<path d="M438.77 131.43H182.24L181.54 126.71H438.07L438.77 131.43Z" fill="#E0E0E0"/>
<path d="M438.77 139.22H182.24L181.54 134.5H438.07L438.77 139.22Z" fill="#E0E0E0"/>
<path d="M359.42 174.67C366.88 175.67 371.5 159.48 355.01 145.74C355.9 161.64 346.4 172.88 359.42 174.67Z" fill="#F0F0F0"/>
<path d="M364.12 184.93C374.94 177.34 367.54 150.83 334.03 152.75C348.53 172.26 345.25 198.15 364.12 184.93Z" fill="#E0E0E0"/>
<path d="M360.3 184.75C353.1 177 363.35 157.5 389.23 164.62C374.62 177.46 372.85 198.26 360.3 184.75Z" fill="#E0E0E0"/>
<path d="M349.16 200.69H371.4L373.08 185.9H347.48L349.16 200.69Z" fill="#EBEBEB"/>
<path d="M345.82 188.54H374.74V185.28H345.82V188.54Z" fill="#EBEBEB"/>
<path d="M239.53 181.89C239.53 181.89 240.65 200.76 283.53 200.76C326.41 200.76 327.53 181.89 327.53 181.89H239.53Z" fill="#E0E0E0"/>
<path d="M98.86 264.57H71.54V377.09H98.86V264.57Z" fill="#E6E6E6"/>
<path d="M296.61 377.09H76.7803V382.4H296.61V377.09Z" fill="#E6E6E6"/>
<path d="M98.8496 377.09H301.85V264.57H98.8496V377.09Z" fill="#FAFAFA"/>
<path d="M109.59 334.57H291.11V307.09H109.59V334.57Z" fill="#E6E6E6"/>
<path d="M109.59 367.07H291.11V339.59H109.59V367.07Z" fill="#E6E6E6"/>
<path d="M254.51 310.1H146.2C145.7 310.1 145.221 309.902 144.867 309.55C144.513 309.198 144.312 308.719 144.31 308.22C144.31 307.719 144.509 307.238 144.863 306.884C145.218 306.529 145.698 306.33 146.2 306.33H254.51C255.011 306.33 255.492 306.529 255.846 306.884C256.2 307.238 256.4 307.719 256.4 308.22C256.397 308.719 256.197 309.198 255.842 309.55C255.488 309.902 255.009 310.1 254.51 310.1Z" fill="#FAFAFA"/>
<path d="M109.59 302.07H291.11V274.59H109.59V302.07Z" fill="#E6E6E6"/>
<path d="M254.51 277.61H146.2C145.698 277.61 145.218 277.411 144.863 277.056C144.509 276.702 144.31 276.221 144.31 275.72C144.312 275.22 144.513 274.742 144.867 274.39C145.221 274.038 145.7 273.84 146.2 273.84H254.51C255.009 273.84 255.488 274.038 255.842 274.39C256.197 274.742 256.397 275.22 256.4 275.72C256.4 276.221 256.2 276.702 255.846 277.056C255.492 277.411 255.011 277.61 254.51 277.61Z" fill="#FAFAFA"/>
<path d="M254.51 342.6H146.2C145.698 342.6 145.218 342.401 144.863 342.046C144.509 341.692 144.31 341.211 144.31 340.71C144.312 340.21 144.513 339.732 144.867 339.38C145.221 339.028 145.7 338.83 146.2 338.83H254.51C255.009 338.83 255.488 339.028 255.842 339.38C256.197 339.732 256.397 340.21 256.4 340.71C256.4 341.211 256.2 341.692 255.846 342.046C255.492 342.401 255.011 342.6 254.51 342.6Z" fill="#FAFAFA"/>
<path d="M305.5 255.33H98.8604V264.57H305.5V255.33Z" fill="#E6E6E6"/>
<path d="M67.7204 264.58H98.8604V255.34H67.7204V264.58Z" fill="#E0E0E0"/>
<path d="M132.05 110.23H66.5596V182.14H132.05V110.23Z" fill="#E0E0E0"/>
<path d="M124 113.41C123.904 113.408 123.811 113.381 123.73 113.33C123.57 113.24 108.16 104.07 103.31 104.07C98.4599 104.07 83.7599 113.23 83.6199 113.32C83.5595 113.358 83.4922 113.384 83.4218 113.396C83.3514 113.408 83.2794 113.406 83.2097 113.39C83.1401 113.375 83.0742 113.345 83.0159 113.304C82.9576 113.263 82.908 113.21 82.8699 113.15C82.8318 113.09 82.806 113.022 82.794 112.952C82.7819 112.881 82.7838 112.809 82.7996 112.74C82.8154 112.67 82.8447 112.604 82.886 112.546C82.9272 112.488 82.9795 112.438 83.0399 112.4C83.6499 112.02 98.1499 102.98 103.31 102.98C108.47 102.98 123.64 111.98 124.31 112.39C124.403 112.455 124.474 112.548 124.513 112.655C124.551 112.763 124.556 112.88 124.525 112.989C124.494 113.099 124.43 113.197 124.341 113.269C124.253 113.34 124.144 113.383 124.03 113.39L124 113.41Z" fill="#E0E0E0"/>
<path d="M139.13 110.23H71.4902V182.14H139.13V110.23Z" fill="#F5F5F5"/>
<path d="M133.47 176.48V115.9H77.1597V176.48H133.47Z" fill="white"/>
<path d="M119 160.43H91.6103C91.4671 160.43 91.3297 160.373 91.2285 160.272C91.1272 160.171 91.0703 160.033 91.0703 159.89V132.48C91.0703 132.337 91.1272 132.199 91.2285 132.098C91.3297 131.997 91.4671 131.94 91.6103 131.94H119C119.144 131.94 119.281 131.997 119.382 132.098C119.483 132.199 119.54 132.337 119.54 132.48V159.89C119.54 160.033 119.483 160.171 119.382 160.272C119.281 160.373 119.144 160.43 119 160.43ZM92.1303 159.34H118.45V133H92.1503L92.1303 159.34Z" fill="#F5F5F5"/>
<path d="M96.4102 137.28L114.22 155.09V137.28H96.4102Z" fill="#F5F5F5"/>
<path d="M327.36 382.53H365.88V336.37H327.36V382.53Z" fill="#E6E6E6"/>
<path d="M327.35 336.36H365.87L358.14 322.59H319.62L327.35 336.36Z" fill="#E6E6E6"/>
<path d="M403.43 322.59H441.95L434.22 336.36H395.7L403.43 322.59Z" fill="#F0F0F0"/>
<path d="M434.21 336.36H365.87V382.52H434.21V336.36Z" fill="#FAFAFA"/>
<path d="M380.99 351.61H365.33V367.27H380.99V351.61Z" fill="#E6E6E6"/>
<path d="M250 427.56C357.083 427.56 443.89 422.492 443.89 416.24C443.89 409.988 357.083 404.92 250 404.92C142.918 404.92 56.1104 409.988 56.1104 416.24C56.1104 422.492 142.918 427.56 250 427.56Z" fill="#F5F5F5"/>
<path d="M228.64 108.11C229.88 104.32 230.51 83.61 209.72 88.6C194.27 92.31 198.87 111.97 183.84 114.19C183.84 114.19 205.96 124.69 213.16 110.19C218.83 98.74 224.72 109.13 224.72 109.13L228.64 108.11Z" fill="#263238"/>
<path d="M224.39 111.72C223.46 110.88 223.06 108.78 223.78 108.44C224.5 108.1 228.31 107.04 229.38 107.23C230.6 107.44 230.38 110.39 230.38 110.39L224.39 111.72Z" fill="#2C5E79"/>
<path opacity="0.2" d="M224.39 111.72C223.46 110.88 223.06 108.78 223.78 108.44C224.5 108.1 228.31 107.04 229.38 107.23C230.6 107.44 230.38 110.39 230.38 110.39L224.39 111.72Z" fill="black"/>
<path d="M169.59 346.08L176.95 346.8L184.6 329.3L177.24 328.58L169.59 346.08Z" fill="#E4897B"/>
<path d="M103.35 300.39L106.66 307.24L123.59 301.77L120.28 294.92L103.35 300.39Z" fill="#E4897B"/>
<path d="M108.51 306.8L109.09 298.26C109.1 298.113 109.058 297.968 108.969 297.85C108.881 297.733 108.754 297.651 108.61 297.62L101.93 296.19C101.761 296.16 101.588 296.166 101.422 296.208C101.255 296.249 101.1 296.325 100.965 296.431C100.83 296.536 100.719 296.669 100.639 296.821C100.559 296.972 100.511 297.139 100.5 297.31C100.34 300.31 100.42 301.74 100.16 305.49C99.9999 307.8 99.3199 312.88 99.0999 316.06C98.8799 319.24 102.02 319.64 102.4 318.33C104.08 312.47 106.13 309.92 107.95 308.03C108.274 307.697 108.472 307.263 108.51 306.8Z" fill="#263238"/>
<path d="M177.92 344.53H168.92C168.758 344.533 168.601 344.588 168.473 344.687C168.345 344.786 168.253 344.924 168.21 345.08L166.21 352.22C166.161 352.389 166.153 352.566 166.186 352.739C166.218 352.911 166.291 353.074 166.398 353.213C166.505 353.352 166.644 353.464 166.802 353.54C166.96 353.616 167.134 353.654 167.31 353.65C170.49 353.65 172 353.65 175.97 353.65H188.11C191.4 353.65 192.11 350.31 190.73 350.01C184.61 348.65 181.08 346.79 179.19 345.01C178.842 344.696 178.389 344.524 177.92 344.53Z" fill="#263238"/>
<path d="M184.589 329.31L180.649 338.33H172.979L177.24 328.59L184.589 329.31Z" fill="#CE6F64"/>
<path d="M120.28 294.92L123.59 301.77L114.86 304.59L111.55 297.73L120.28 294.92Z" fill="#CE6F64"/>
<path d="M108.12 311.14C107.965 311.148 107.81 311.119 107.668 311.057C107.525 310.994 107.399 310.9 107.3 310.78C106.7 310.02 107.11 308.28 107.41 307.32C107.42 307.286 107.439 307.256 107.466 307.233C107.492 307.209 107.525 307.195 107.56 307.19C107.595 307.189 107.63 307.196 107.662 307.212C107.693 307.228 107.72 307.251 107.74 307.28C107.89 307.55 109.22 309.96 108.74 310.82C108.688 310.916 108.612 310.996 108.519 311.052C108.426 311.109 108.319 311.139 108.21 311.14H108.12ZM107.63 307.84C107.28 309.15 107.26 310.15 107.63 310.55C107.706 310.64 107.804 310.709 107.914 310.75C108.025 310.79 108.144 310.8 108.26 310.78C108.307 310.782 108.353 310.771 108.394 310.748C108.434 310.725 108.468 310.691 108.49 310.65C108.69 310.2 108.14 308.82 107.63 307.84Z" fill="#2C5E79"/>
<path d="M110.1 309.59C109.22 309.59 107.77 308.17 107.42 307.45C107.405 307.422 107.397 307.391 107.397 307.36C107.397 307.329 107.405 307.298 107.42 307.27C107.44 307.247 107.465 307.227 107.492 307.214C107.52 307.2 107.549 307.192 107.58 307.19C107.68 307.19 109.86 307.36 110.58 308.19C110.664 308.3 110.724 308.426 110.757 308.56C110.79 308.694 110.794 308.834 110.77 308.97C110.757 309.114 110.696 309.248 110.596 309.352C110.496 309.456 110.363 309.522 110.22 309.54L110.1 309.59ZM107.92 307.59C108.45 308.36 109.62 309.32 110.15 309.23C110.23 309.23 110.34 309.18 110.38 308.95C110.401 308.865 110.4 308.776 110.38 308.69C110.359 308.605 110.318 308.526 110.26 308.46C109.588 307.936 108.771 307.629 107.92 307.58V307.59Z" fill="#2C5E79"/>
<path d="M181.93 346C181.098 345.98 180.271 345.876 179.46 345.69C179.423 345.682 179.389 345.662 179.364 345.633C179.339 345.604 179.323 345.568 179.32 345.53C179.315 345.493 179.322 345.456 179.34 345.423C179.358 345.391 179.386 345.365 179.42 345.35C180.03 345.06 183.1 343.67 183.92 344.22C183.998 344.274 184.061 344.348 184.101 344.434C184.141 344.52 184.158 344.615 184.15 344.71C184.143 344.88 184.097 345.046 184.018 345.197C183.938 345.347 183.826 345.478 183.69 345.58C183.161 345.898 182.546 346.044 181.93 346ZM180.08 345.45C181.7 345.74 182.94 345.69 183.47 345.29C183.565 345.22 183.643 345.13 183.698 345.026C183.753 344.922 183.785 344.808 183.79 344.69C183.79 344.58 183.79 344.54 183.72 344.52C183.28 344.24 181.43 344.88 180.08 345.47V345.45Z" fill="#2C5E79"/>
<path d="M179.5 345.71C179.462 345.725 179.419 345.725 179.38 345.71C179.355 345.688 179.337 345.659 179.326 345.628C179.316 345.596 179.314 345.562 179.32 345.53C179.32 345.39 180.11 342.14 181.91 342.35C182.37 342.4 182.5 342.63 182.52 342.82C182.64 343.67 180.58 345.32 179.52 345.74L179.5 345.71ZM181.74 342.71C180.66 342.71 180.01 344.46 179.74 345.25C180.74 344.68 182.2 343.37 182.14 342.88C182.14 342.79 182.02 342.74 181.83 342.71H181.74Z" fill="#2C5E79"/>
<path d="M221.13 196.62C221.13 196.62 222.13 257.01 214.24 278.83C206.64 299.75 183.97 335.71 183.97 335.71L170.83 335.38C170.83 335.38 191.7 289.85 195.12 271.83C200.8 241.96 199.55 189.83 199.55 189.83L221.13 196.62Z" fill="#2C5E79"/>
<path opacity="0.5" d="M221.13 196.62C221.13 196.62 222.13 257.01 214.24 278.83C206.64 299.75 183.97 335.71 183.97 335.71L170.83 335.38C170.83 335.38 191.7 289.85 195.12 271.83C200.8 241.96 199.55 189.83 199.55 189.83L221.13 196.62Z" fill="white"/>
<path opacity="0.22" d="M209.33 201.78L205.8 191.78L199.55 189.78C199.55 189.78 200.12 213.51 198.75 238.12C204.42 227.25 209.33 207.25 209.33 201.78Z" fill="#2C5E79"/>
<path d="M214.67 194.67C214.67 194.67 194.17 241.56 180.92 268.25C170.22 289.81 117.92 305.4 117.92 305.4L113.8 295.76C113.8 295.76 152.9 278.14 160.29 263.52C183.94 216.74 178.11 197.46 191.71 187.29L214.67 194.67Z" fill="#2C5E79"/>
<path opacity="0.5" d="M214.67 194.67C214.67 194.67 194.17 241.56 180.92 268.25C170.22 289.81 117.92 305.4 117.92 305.4L113.8 295.76C113.8 295.76 152.9 278.14 160.29 263.52C183.94 216.74 178.11 197.46 191.71 187.29L214.67 194.67Z" fill="white"/>
<path d="M242.259 117.5C242.719 120.13 242.919 128.84 236.829 130.75C230.739 132.66 242.259 117.5 242.259 117.5Z" fill="#263238"/>
<path d="M239.73 156.86L240.12 157.37L240.59 157.96C240.92 158.36 241.25 158.76 241.59 159.15C242.28 159.95 243.04 160.71 243.8 161.45C245.322 162.962 246.957 164.356 248.69 165.62C250.414 166.903 252.229 168.059 254.12 169.08C255.06 169.62 256.05 170.03 257.02 170.5L257.18 170.58C257.18 170.58 257.23 170.58 257.26 170.58C257.35 170.588 257.44 170.588 257.53 170.58C257.845 170.622 258.165 170.622 258.48 170.58C260.388 170.152 262.213 169.412 263.88 168.39C265.808 167.285 267.678 166.08 269.48 164.78C271.32 163.47 273.13 162.06 274.91 160.61C276.69 159.16 278.48 157.67 280.2 156.19L283 158.85C279.937 162.554 276.594 166.018 273 169.21C271.166 170.856 269.225 172.379 267.19 173.77C264.961 175.361 262.47 176.549 259.83 177.28C258.997 177.472 258.145 177.566 257.29 177.56C256.8 177.548 256.312 177.498 255.83 177.41C255.57 177.35 255.32 177.3 255.06 177.22L254.4 176.99C253.22 176.52 252.03 176.09 250.89 175.53C248.58 174.492 246.365 173.254 244.27 171.83C242.174 170.399 240.191 168.807 238.34 167.07C237.43 166.19 236.54 165.28 235.69 164.31C235.26 163.83 234.85 163.31 234.44 162.82L233.84 162.03C233.63 161.75 233.46 161.51 233.2 161.12L239.73 156.86Z" fill="#E4897B"/>
<path d="M231.19 151.55C240.36 152.33 245.94 161.14 245.94 161.14L234.94 171.91C234.94 171.91 227.45 164.35 226.77 160.2C226.08 155.87 226.48 151.15 231.19 151.55Z" fill="#263238"/>
<path d="M279.63 158.12L280 151.33L287 155.2C287 155.2 285 158.97 282.08 160.1L279.63 158.12Z" fill="#E4897B"/>
<path d="M284.46 146.34L289.08 150.18L286.95 155.2L280 151.33L284.46 146.34Z" fill="#E4897B"/>
<path d="M238.62 154.09C238.62 154.09 241.53 156.23 221.13 196.62L191.66 187.29C195.95 175.45 198.3 168.06 200.36 141.63C204.744 142.084 209.088 142.856 213.36 143.94C217.919 145.032 222.394 146.448 226.75 148.18C230.805 149.946 234.767 151.918 238.62 154.09Z" fill="#263238"/>
<path d="M219.49 129.29C218.97 133.87 217.32 142.02 213.39 143.94C213.39 143.94 213.19 148.68 221.19 151.21C229.99 154 226.78 148.21 226.78 148.21C222.34 145.54 223.59 142.02 225.48 138.94L219.49 129.29Z" fill="#E4897B"/>
<path d="M221.93 133.21L225.48 138.9C225.026 139.614 224.638 140.367 224.32 141.15C222.57 140.3 220.32 137.78 220.73 135.8C220.974 134.873 221.381 133.996 221.93 133.21Z" fill="#CE6F64"/>
<path d="M221.57 119.1C219.05 126.23 217.84 129.19 219.83 134.24C222.83 141.83 232.13 143.36 236.72 137.14C240.86 131.53 244.28 120.83 238.66 115.14C237.422 113.892 235.886 112.98 234.197 112.493C232.508 112.005 230.723 111.958 229.01 112.355C227.298 112.751 225.715 113.579 224.413 114.76C223.111 115.941 222.132 117.435 221.57 119.1Z" fill="#E4897B"/>
<path d="M220.15 125C223.83 124.58 229.95 120.58 230.36 117.52C230.36 117.52 237.73 122.6 241.61 120.19C245 118.08 237.39 108.19 228.33 109.63C218.48 111.18 217.22 119.94 220.15 125Z" fill="#263238"/>
<path d="M217.84 124.91C217.418 126.309 217.565 127.819 218.25 129.11C219.18 130.81 221.02 130.31 221.92 128.71C222.73 127.27 223.23 124.66 221.74 123.49C221.41 123.243 221.024 123.083 220.617 123.022C220.209 122.962 219.793 123.005 219.406 123.146C219.019 123.286 218.674 123.522 218.4 123.83C218.127 124.138 217.934 124.509 217.84 124.91Z" fill="#E4897B"/>
<path d="M185.82 336.39L169.59 335.98L170.53 330.99L188.25 331.83L185.82 336.39Z" fill="#2C5E79"/>
<path d="M118 306.6L112.82 294.5L117.34 291.78L122.75 305.52L118 306.6Z" fill="#2C5E79"/>
<path d="M231.27 125.51C231.04 126.07 231.14 126.66 231.51 126.81C231.88 126.96 232.37 126.64 232.61 126.08C232.85 125.52 232.75 124.92 232.38 124.77C232.01 124.62 231.51 124.94 231.27 125.51Z" fill="#263238"/>
<path d="M237.66 128.22C237.42 128.78 237.53 129.37 237.9 129.52C238.27 129.67 238.76 129.35 239 128.78C239.24 128.21 239.14 127.63 238.77 127.48C238.4 127.33 237.9 127.65 237.66 128.22Z" fill="#263238"/>
<path d="M238.59 127.44L240.11 127.62C240.11 127.62 239 128.39 238.59 127.44Z" fill="#263238"/>
<path d="M235.56 128.47C235.518 129.972 235.683 131.473 236.05 132.93C235.674 133.014 235.285 133.016 234.908 132.934C234.532 132.853 234.178 132.691 233.87 132.46L235.56 128.47Z" fill="#DE5753"/>
<path d="M230.999 133.85H230.929C230.161 133.548 229.477 133.067 228.934 132.445C228.391 131.824 228.005 131.082 227.809 130.28C227.803 130.234 227.814 130.187 227.84 130.148C227.865 130.11 227.904 130.082 227.949 130.07C227.973 130.066 227.997 130.066 228.021 130.072C228.044 130.077 228.067 130.087 228.086 130.101C228.106 130.115 228.122 130.132 228.135 130.153C228.147 130.173 228.156 130.196 228.159 130.22C228.355 130.958 228.72 131.641 229.225 132.213C229.73 132.786 230.362 133.234 231.069 133.52C231.113 133.538 231.147 133.572 231.166 133.615C231.185 133.658 231.186 133.706 231.169 133.75C231.154 133.781 231.13 133.808 231.099 133.825C231.069 133.843 231.034 133.852 230.999 133.85Z" fill="#263238"/>
<path d="M230.36 122.66C230.281 122.659 230.205 122.633 230.143 122.585C230.08 122.537 230.036 122.469 230.015 122.393C229.995 122.317 230 122.237 230.03 122.164C230.059 122.091 230.112 122.03 230.18 121.99C230.67 121.691 231.225 121.515 231.797 121.475C232.369 121.435 232.943 121.533 233.47 121.76C233.513 121.781 233.551 121.811 233.583 121.847C233.614 121.883 233.638 121.926 233.653 121.971C233.668 122.017 233.674 122.065 233.67 122.113C233.666 122.161 233.652 122.207 233.63 122.25C233.582 122.332 233.505 122.393 233.415 122.422C233.325 122.452 233.227 122.447 233.14 122.41C232.722 122.233 232.268 122.159 231.816 122.194C231.363 122.229 230.926 122.371 230.54 122.61C230.488 122.648 230.424 122.665 230.36 122.66Z" fill="#263238"/>
<path d="M241.999 126.53C241.916 126.531 241.835 126.503 241.771 126.45C241.707 126.396 241.664 126.322 241.649 126.24C241.576 125.794 241.399 125.37 241.134 125.004C240.868 124.638 240.521 124.339 240.119 124.13C240.074 124.114 240.033 124.088 239.999 124.055C239.964 124.022 239.936 123.982 239.918 123.938C239.899 123.894 239.889 123.847 239.89 123.799C239.89 123.751 239.9 123.704 239.919 123.66C239.957 123.573 240.027 123.503 240.114 123.466C240.202 123.429 240.3 123.427 240.389 123.46C240.911 123.706 241.365 124.075 241.713 124.535C242.061 124.994 242.293 125.531 242.389 126.1C242.398 126.147 242.397 126.195 242.388 126.241C242.378 126.287 242.359 126.331 242.332 126.37C242.305 126.409 242.27 126.443 242.231 126.468C242.191 126.494 242.146 126.512 242.099 126.52L241.999 126.53Z" fill="#263238"/>
<path d="M200.74 153.3C199.82 154.47 198.96 155.45 198.03 156.46C197.1 157.47 196.17 158.46 195.21 159.4C193.27 161.3 191.21 163.11 189.14 164.83C187.022 166.572 184.794 168.175 182.47 169.63C181.9 170.01 181.29 170.35 180.7 170.7C180.11 171.05 179.51 171.41 178.88 171.7C178.25 171.99 177.68 172.34 176.99 172.7L175.87 173.19L174.73 173.59C171.865 174.423 168.879 174.762 165.9 174.59C163.129 174.459 160.375 174.085 157.67 173.47C155.038 172.872 152.438 172.141 149.88 171.28C147.343 170.411 144.852 169.41 142.42 168.28L143.86 164.7C146.24 165.39 148.75 166.05 151.22 166.57C153.67 167.123 156.146 167.55 158.64 167.85C161.06 168.16 163.501 168.284 165.94 168.22C167.096 168.186 168.248 168.079 169.39 167.9C170.448 167.715 171.488 167.44 172.5 167.08L173.19 166.8L173.84 166.47C174.31 166.22 174.84 165.86 175.37 165.57C175.9 165.28 176.37 164.94 176.91 164.57C177.45 164.2 177.91 163.92 178.42 163.57C180.42 162.16 182.33 160.57 184.23 158.98C186.13 157.39 187.91 155.65 189.66 153.87C190.55 152.99 191.41 152.09 192.26 151.18C193.11 150.27 193.95 149.3 194.67 148.46L200.74 153.3Z" fill="#E4897B"/>
<path d="M146.22 165.84L142.36 160.25L138.46 167.18C138.46 167.18 142.1 169.37 145.21 168.79L146.22 165.84Z" fill="#E4897B"/>
<path d="M135.94 158.33L134.01 164.02L138.46 167.18L142.36 160.25L135.94 158.33Z" fill="#E4897B"/>
<path d="M200.36 141.63C196.53 141.46 189 150.87 189 150.87L197.06 162.28C197.06 162.28 205.6 154.94 206.28 150.06C206.86 145.91 205.24 141.85 200.36 141.63Z" fill="#263238"/>
<path d="M232.2 124.73L233.72 124.91C233.72 124.91 232.58 125.68 232.2 124.73Z" fill="#263238"/>
<path d="M216.52 140C215.97 139.54 215.52 141.12 215.34 141.76C215.317 141.844 215.318 141.932 215.342 142.015C215.367 142.098 215.415 142.173 215.48 142.23C216.56 143.16 221.26 145.87 223.94 145.02C224 145.001 224.053 144.964 224.09 144.914C224.128 144.864 224.149 144.803 224.15 144.74C224.085 144.139 224.052 143.535 224.05 142.93C224.054 142.891 224.05 142.851 224.038 142.814C224.026 142.776 224.006 142.742 223.98 142.712C223.953 142.683 223.921 142.66 223.885 142.644C223.849 142.628 223.81 142.62 223.77 142.62C221.116 142.656 218.539 141.725 216.52 140Z" fill="#2C5E79"/>
<path opacity="0.2" d="M216.52 140C215.97 139.54 215.52 141.12 215.34 141.76C215.317 141.844 215.318 141.932 215.342 142.015C215.367 142.098 215.415 142.173 215.48 142.23C216.56 143.16 221.26 145.87 223.94 145.02C224 145.001 224.053 144.964 224.09 144.914C224.128 144.864 224.149 144.803 224.15 144.74C224.085 144.139 224.052 143.535 224.05 142.93C224.054 142.891 224.05 142.851 224.038 142.814C224.026 142.776 224.006 142.742 223.98 142.712C223.953 142.683 223.921 142.66 223.885 142.644C223.849 142.628 223.81 142.62 223.77 142.62C221.116 142.656 218.539 141.725 216.52 140Z" fill="black"/>
<path d="M191.76 185.42L189.6 187.64C189.43 187.81 189.6 188.1 189.95 188.21L220.86 198C221.12 198.09 221.38 198 221.45 197.87L222.55 195.31C222.63 195.13 222.45 194.91 222.16 194.82L192.31 185.37C192.221 185.331 192.124 185.315 192.028 185.324C191.932 185.333 191.84 185.366 191.76 185.42Z" fill="#2C5E79"/>
<path opacity="0.2" d="M191.76 185.42L189.6 187.64C189.43 187.81 189.6 188.1 189.95 188.21L220.86 198C221.12 198.09 221.38 198 221.45 197.87L222.55 195.31C222.63 195.13 222.45 194.91 222.16 194.82L192.31 185.37C192.221 185.331 192.124 185.315 192.028 185.324C191.932 185.333 191.84 185.366 191.76 185.42Z" fill="black"/>
<path d="M194.72 190L193.92 189.74C193.76 189.69 193.66 189.57 193.71 189.48L195.16 186.17C195.203 186.116 195.263 186.078 195.33 186.062C195.397 186.045 195.467 186.052 195.53 186.08L196.33 186.34C196.49 186.34 196.59 186.51 196.54 186.6L195.08 189.91C195 190 194.88 190.08 194.72 190Z" fill="#2C5E79"/>
<path d="M218.519 197.56L217.719 197.31C217.559 197.26 217.469 197.14 217.509 197.04L218.969 193.73C218.969 193.63 219.179 193.59 219.339 193.65L220.139 193.9C220.289 193.9 220.389 194.07 220.349 194.17L218.889 197.47C218.849 197.57 218.679 197.61 218.519 197.56Z" fill="#2C5E79"/>
<path d="M206.62 193.79L205.82 193.54C205.66 193.54 205.57 193.37 205.61 193.27L207.07 189.96C207.07 189.87 207.27 189.83 207.43 189.88L208.23 190.13C208.39 190.18 208.49 190.3 208.45 190.4L207 193.71C206.94 193.81 206.78 193.84 206.62 193.79Z" fill="#2C5E79"/>
<path opacity="0.5" d="M194.72 190L193.92 189.74C193.76 189.69 193.66 189.57 193.71 189.48L195.16 186.17C195.203 186.116 195.263 186.078 195.33 186.062C195.397 186.045 195.467 186.052 195.53 186.08L196.33 186.34C196.49 186.34 196.59 186.51 196.54 186.6L195.08 189.91C195 190 194.88 190.08 194.72 190Z" fill="white"/>
<path opacity="0.5" d="M218.519 197.56L217.719 197.31C217.559 197.26 217.469 197.14 217.509 197.04L218.969 193.73C218.969 193.63 219.179 193.59 219.339 193.65L220.139 193.9C220.289 193.9 220.389 194.07 220.349 194.17L218.889 197.47C218.849 197.57 218.679 197.61 218.519 197.56Z" fill="white"/>
<path opacity="0.5" d="M206.62 193.79L205.82 193.54C205.66 193.54 205.57 193.37 205.61 193.27L207.07 189.96C207.07 189.87 207.27 189.83 207.43 189.88L208.23 190.13C208.39 190.18 208.49 190.3 208.45 190.4L207 193.71C206.94 193.81 206.78 193.84 206.62 193.79Z" fill="white"/>
<path opacity="0.2" d="M99.8301 348.48C115.77 372.48 162.88 376.19 182.89 361.86C211.29 341.52 209.72 287.76 239.22 268.71C293.46 233.71 359.74 329.83 401.67 234.33V412.78H99.8301V348.48Z" fill="#2C5E79"/>
<path d="M150.85 370.69C145.739 370.688 140.638 370.223 135.61 369.3C119.13 366.3 106.29 358.97 99.4801 348.72C99.4357 348.626 99.4264 348.52 99.4542 348.42C99.4819 348.32 99.5448 348.234 99.6311 348.177C99.7175 348.12 99.8216 348.096 99.9243 348.109C100.027 348.122 100.121 348.172 100.19 348.25C106.78 358.16 119.74 365.53 135.76 368.46C153.76 371.76 172.14 369.03 182.64 361.51C196.48 351.6 203.29 333.33 209.87 315.66C216.74 297.21 223.87 278.13 238.99 268.35C261.35 253.91 285.81 261.62 309.48 269.07C344.02 279.96 376.66 290.24 401.28 234.16C401.335 234.072 401.419 234.007 401.517 233.977C401.616 233.946 401.722 233.952 401.817 233.993C401.912 234.034 401.988 234.108 402.033 234.201C402.078 234.294 402.087 234.4 402.06 234.5C390.71 260.34 377.06 274.01 359.15 277.5C343.35 280.6 326.77 275.38 309.22 269.85C285.75 262.46 261.47 254.85 239.45 269.04C224.55 278.66 217.45 297.6 210.66 315.93C204.04 333.72 197.18 352.11 183.14 362.18C175.46 367.7 163.65 370.69 150.85 370.69Z" fill="#2C5E79"/>
<path d="M124.84 325.78H82.0498V412.78H124.84V325.78Z" fill="#2C5E79"/>
<path opacity="0.3" d="M124.84 325.78H82.0498V412.78H124.84V325.78Z" fill="black"/>
<path d="M195.28 353.67H152.49V412.78H195.28V353.67Z" fill="#2C5E79"/>
<path opacity="0.3" d="M195.28 353.67H152.49V412.78H195.28V353.67Z" fill="black"/>
<path d="M265.72 303.73H222.93V412.78H265.72V303.73Z" fill="#2C5E79"/>
<path opacity="0.3" d="M265.72 303.73H222.93V412.78H265.72V303.73Z" fill="black"/>
<path d="M336.149 243.81H293.359V412.78H336.149V243.81Z" fill="#2C5E79"/>
<path opacity="0.3" d="M336.149 243.81H293.359V412.78H336.149V243.81Z" fill="black"/>
<path d="M406.59 160.79H363.8V412.78H406.59V160.79Z" fill="#2C5E79"/>
<path opacity="0.3" d="M406.59 160.79H363.8V412.78H406.59V160.79Z" fill="black"/>
<path d="M136.2 325.78H93.4102V412.78H136.2V325.78Z" fill="#2C5E79"/>
<path opacity="0.1" d="M136.2 325.78H93.4102V412.78H136.2V325.78Z" fill="black"/>
<path d="M206.64 353.67H163.85V412.78H206.64V353.67Z" fill="#2C5E79"/>
<path opacity="0.1" d="M206.64 353.67H163.85V412.78H206.64V353.67Z" fill="black"/>
<path d="M277.07 303.73H234.28V412.78H277.07V303.73Z" fill="#2C5E79"/>
<path opacity="0.1" d="M277.07 303.73H234.28V412.78H277.07V303.73Z" fill="black"/>
<path d="M347.51 243.81H304.72V412.78H347.51V243.81Z" fill="#2C5E79"/>
<path opacity="0.1" d="M347.51 243.81H304.72V412.78H347.51V243.81Z" fill="black"/>
<path d="M417.95 160.79H375.16V412.78H417.95V160.79Z" fill="#2C5E79"/>
<path opacity="0.1" d="M417.95 160.79H375.16V412.78H417.95V160.79Z" fill="black"/>
<path d="M329.74 196.13C326.991 193.38 323.262 191.834 319.373 191.833C315.485 191.832 311.755 193.376 309.005 196.125C306.255 198.874 304.709 202.603 304.708 206.491C304.707 210.38 306.251 214.11 309 216.86L319.37 227.22L329.73 216.85C331.091 215.49 332.171 213.876 332.909 212.098C333.646 210.321 334.026 208.416 334.027 206.492C334.028 204.568 333.649 202.663 332.914 200.885C332.178 199.107 331.1 197.491 329.74 196.13Z" fill="#2C5E79"/>
<path opacity="0.1" d="M329.74 196.13C326.991 193.38 323.262 191.834 319.373 191.833C315.485 191.832 311.755 193.376 309.005 196.125C306.255 198.874 304.709 202.603 304.708 206.491C304.707 210.38 306.251 214.11 309 216.86L319.37 227.22L329.73 216.85C331.091 215.49 332.171 213.876 332.909 212.098C333.646 210.321 334.026 208.416 334.027 206.492C334.028 204.568 333.649 202.663 332.914 200.885C332.178 199.107 331.1 197.491 329.74 196.13Z" fill="black"/>
</svg>
