<svg width="194" height="56" viewBox="0 0 194 56" fill="none" xmlns="http://www.w3.org/2000/svg">
<g clip-path="url(#clip0_206_1542)">
<path d="M171.65 22.9262C173.685 23.9476 175.668 24.9416 177.65 25.9369C179.113 26.6712 180.582 27.3962 182.035 28.1445C184.687 29.5103 186.226 31.5442 186.735 34.1771C186.791 34.4651 186.793 34.7633 186.793 35.0568C186.797 38.0007 186.809 40.9448 186.791 43.8887C186.78 45.8856 185.914 47.6048 184.438 49.1087C183.647 49.9147 182.67 50.5095 181.62 51.0322C179.048 52.3129 176.48 53.6026 173.918 54.8999C172.233 55.7536 170.418 56.1444 168.479 56.0543C167.057 55.9882 165.698 55.6692 164.458 55.0518C161.153 53.4059 157.856 51.7473 154.568 50.0747C154.086 49.8293 153.728 49.7802 153.203 50.0493C149.987 51.6988 146.74 53.3024 143.508 54.929C141.837 55.7703 140.035 56.1423 138.117 56.0549C136.455 55.9792 134.936 55.4959 133.505 54.766C130.899 53.4373 128.257 52.1605 125.671 50.8033C122.614 49.1994 120.967 46.8279 120.922 43.6951C120.882 40.8823 120.915 38.069 120.914 35.2558C120.913 33.2435 121.711 31.4898 123.178 29.9538C123.943 29.1523 124.883 28.5412 125.919 28.0239C129.156 26.4062 132.381 24.7685 135.622 23.1571C135.972 22.9832 136.068 22.7894 136.067 22.4622C136.055 19.1257 136.008 15.7884 136.075 12.4529C136.135 9.44791 137.643 7.06149 140.585 5.46793C142.941 4.19159 145.382 3.03441 147.788 1.82835C148.422 1.51073 149.056 1.19174 149.706 0.901614C150.736 0.442469 151.835 0.207694 152.989 0.107777C155.125 -0.0775296 157.07 0.383582 158.903 1.30894C161.467 2.60334 164.027 3.9046 166.608 5.1725C168.723 6.21191 170.211 7.70261 171.074 9.67267C171.451 10.5346 171.642 11.4337 171.645 12.3526C171.658 15.6891 171.65 19.0256 171.65 22.3621C171.65 22.5403 171.65 22.7189 171.65 22.9262ZM153.825 44.4921C153.901 44.4738 153.921 44.4727 153.936 44.4648C157.185 42.8347 160.458 41.2384 163.674 39.5601C165.448 38.6341 166.387 37.208 166.388 35.3687C166.39 32.2461 166.383 29.1234 166.397 26.0009C166.398 25.684 166.291 25.5084 165.967 25.3472C162.858 23.8004 159.774 22.2146 156.653 20.6861C154.774 19.7662 152.841 19.8037 150.968 20.7306C147.904 22.2474 144.861 23.7962 141.798 25.3164C141.445 25.4919 141.308 25.6809 141.31 26.0407C141.328 29.1142 141.323 32.1878 141.319 35.2613C141.317 37.2386 142.354 38.6903 144.271 39.693C145.122 40.1386 145.992 40.5586 146.853 40.9909C149.175 42.1569 151.497 43.3231 153.825 44.4921ZM136.06 28.1971C135.809 28.3131 135.659 28.3771 135.515 28.4495C133.176 29.6261 130.848 30.8185 128.497 31.9762C126.931 32.7473 126.124 33.9033 126.108 35.447C126.079 38.1455 126.083 40.8445 126.107 43.543C126.119 45.0339 126.896 46.1742 128.381 46.9252C131.106 48.3031 133.829 49.685 136.572 51.0363C137.924 51.7022 139.352 51.7301 140.709 51.0707C143.231 49.845 145.718 48.5645 148.218 47.3049C148.319 47.2538 148.406 47.1812 148.523 47.1037C148.371 47.014 148.267 46.9439 148.154 46.8873C146.024 45.8201 143.897 44.7487 141.761 43.6904C140.045 42.84 138.656 41.6988 137.635 40.2259C136.563 38.6785 136.061 36.9929 136.06 35.1904C136.058 33.0641 136.059 30.938 136.059 28.8117C136.06 28.6338 136.06 28.4562 136.06 28.1971ZM159.154 47.105C159.352 47.2203 159.498 47.3159 159.654 47.3948C162.042 48.593 164.431 49.79 166.821 50.9849C168.276 51.7124 169.758 51.7222 171.205 51.0067C173.96 49.6446 176.699 48.2573 179.434 46.8638C180.862 46.1361 181.588 45.015 181.602 43.5862C181.629 40.8562 181.634 38.1257 181.6 35.396C181.582 33.9145 180.818 32.7771 179.315 32.0286C177.198 30.9753 175.094 29.9037 172.984 28.8423C172.568 28.6333 172.145 28.435 171.65 28.1951C171.65 28.4515 171.65 28.6272 171.65 28.803C171.65 30.9938 171.656 33.1843 171.645 35.375C171.643 35.8135 171.615 36.2573 171.533 36.6892C170.968 39.6618 169.237 41.963 166.258 43.521C164.956 44.2016 163.631 44.8484 162.316 45.5107C161.279 46.0329 160.243 46.5556 159.154 47.105ZM141.321 20.2803C141.546 20.182 141.694 20.1244 141.835 20.0542C144.014 18.9659 146.178 17.8544 148.374 16.7915C152.008 15.0315 155.684 15.0497 159.32 16.7697C161.543 17.8215 163.707 18.9671 165.899 20.0685C166.037 20.1376 166.186 20.1894 166.361 20.2622C166.374 20.1235 166.387 20.0428 166.387 19.9619C166.388 17.3792 166.39 14.7965 166.385 12.2136C166.384 12.0363 166.35 11.8561 166.305 11.6824C166.015 10.565 165.264 9.74746 164.135 9.18133C161.454 7.83727 158.776 6.48967 156.09 5.15405C154.597 4.41145 153.09 4.42794 151.597 5.16524C150.797 5.55961 150.004 5.9628 149.209 6.36286C147.277 7.33435 145.332 8.2868 143.418 9.28439C142.048 9.99853 141.323 11.0733 141.321 12.4849C141.319 14.8878 141.321 17.2907 141.321 19.6938C141.321 19.8671 141.321 20.0406 141.321 20.2803Z" fill="#221AFB"/>
<path d="M37.974 25.6299C37.9594 24.9711 37.9607 24.3361 37.9244 23.7026C37.9077 23.4137 37.8592 23.1155 37.7523 22.843C37.3061 21.7059 35.8731 21.3046 34.737 21.9833C34.6148 22.0563 34.4996 22.1381 34.3406 22.2424C33.826 21.8714 33.311 21.5004 32.7646 21.1066C33.3725 20.5163 34.116 20.2105 34.9564 20.0709C35.9367 19.908 36.9009 19.9753 37.8108 20.3436C39.1631 20.8906 39.909 21.8449 40.0986 23.1143C40.1827 23.6779 40.171 24.2533 40.1827 24.8235C40.1972 25.5284 40.3117 25.6397 41.1217 25.6686C41.1954 25.6711 41.2687 25.6837 41.4081 25.6986C41.414 25.9544 41.4223 26.21 41.4252 26.4656C41.4282 26.7257 41.4259 26.9858 41.4259 27.2364C41.0108 27.3562 20.4532 27.4007 19.4579 27.2867C19.4579 25.4373 19.4579 23.5805 19.4579 21.7387C17.7727 21.3039 16.4331 22.1362 16.4008 23.611C16.3776 24.6737 16.397 25.7373 16.3947 26.8004C16.3943 26.9602 16.3792 27.1202 16.3692 27.3114C16.1544 27.3202 15.9717 27.3342 15.789 27.3342C14.004 27.3357 12.219 27.3358 10.434 27.335C8.18059 27.334 6.46006 25.8221 6.39759 23.8094C6.36918 22.8957 6.6294 22.0655 7.275 21.3362C7.32055 21.2848 7.37083 21.2359 7.42428 21.1906C7.44998 21.1688 7.48809 21.1584 7.58145 21.1135C8.07483 21.4674 8.58784 21.8356 9.10061 22.2035C8.95494 22.5323 8.76372 22.8372 8.68728 23.1622C8.49989 23.9582 8.64692 24.7085 9.37797 25.2693C9.63008 25.4627 9.99899 25.6352 10.3221 25.6464C11.577 25.6896 12.8351 25.6641 14.1556 25.6641C14.1641 25.4678 14.1729 25.295 14.179 25.1223C14.2043 24.3887 14.1481 23.6449 14.2694 22.9239C14.5375 21.3306 15.976 20.1671 17.8079 20.0503C19.003 19.9741 20.2065 19.9973 21.4064 19.979C21.4767 19.978 21.5478 20.004 21.6772 20.0285C21.6772 21.89 21.6772 23.7458 21.6772 25.6338C24.2088 25.6338 26.6773 25.6338 29.1885 25.6338C29.1438 24.8312 29.1362 24.0358 29.0455 23.2474C28.958 22.4858 28.3663 21.8078 27.3187 21.6713C26.8072 21.6048 26.354 21.72 25.9339 21.9603C25.8092 22.0315 25.7005 22.1238 25.5255 22.2485C25.0082 21.8761 24.4837 21.4982 23.9396 21.1064C24.5275 20.534 25.2263 20.2246 26.0106 20.0872C27.3083 19.8599 28.5521 19.9906 29.6552 20.6822C30.7345 21.3588 31.2486 22.3083 31.3117 23.4471C31.3399 23.9529 31.3068 24.4611 31.3201 24.968C31.332 25.4157 31.5832 25.6603 32.0608 25.6623C33.9773 25.6701 35.894 25.665 37.8105 25.6621C37.8813 25.6623 37.9524 25.6344 37.974 25.6299Z" fill="#221AFB"/>
<path d="M97.3542 25.5454C97.7831 25.6879 99.655 25.7191 100.369 25.6064C100.301 25.4682 100.232 25.3377 100.173 25.2038C99.5905 23.8776 99.7007 22.6144 100.634 21.4288C101.061 20.8856 101.648 20.5105 102.342 20.2726C103.428 19.9008 104.541 19.8739 105.636 20.2155C107.007 20.6426 107.894 21.4804 108.209 22.7306C108.512 23.9383 108.326 25.0723 107.41 26.0599C106.66 26.8684 105.663 27.3074 104.482 27.3252C102.323 27.3578 100.162 27.3329 98.0021 27.3358C97.4589 27.3366 97.0297 27.1358 96.6676 26.8015C96.5914 26.7312 96.5181 26.6584 96.3974 26.5426C95.5117 27.3563 94.375 27.351 93.2119 27.3421C90.3381 27.3199 87.4642 27.3331 84.5902 27.3368C84.1792 27.3374 83.771 27.3537 83.4276 27.083C82.9924 29.3287 81.7621 30.3145 79.1621 30.5021C79.1621 29.9855 79.1621 29.47 79.1621 28.9202C79.2537 28.8895 79.3682 28.8377 79.49 28.8126C80.5126 28.6016 81.1185 27.964 81.1478 27.0296C81.1659 26.4578 81.1517 25.885 81.1517 25.3128C81.1517 23.9556 81.1517 22.5983 81.1517 21.2413C81.1517 21.0658 81.1517 20.8903 81.1517 20.6891C81.9217 20.6891 82.6253 20.6891 83.4059 20.6891C83.4059 20.8788 83.4059 21.0523 83.4059 21.226C83.4059 22.4688 83.4057 23.7114 83.4064 24.9541C83.4064 25.0686 83.3978 25.1846 83.4161 25.2969C83.4515 25.5126 83.5746 25.6636 83.8529 25.6641C84.6191 25.6653 85.3856 25.6645 86.2064 25.6645C86.2064 24.0641 86.2064 22.502 86.2064 20.8813C86.9016 20.8393 87.5442 20.854 88.2444 20.8713C88.2444 21.4227 88.2444 21.9368 88.2444 22.5249C88.5831 22.3881 88.7497 22.191 88.9308 22.0226C89.5444 21.4518 90.2676 21.016 91.0922 20.7237C92.5288 20.2145 93.9986 20.0865 95.4492 20.6562C96.7833 21.1801 97.4961 22.1257 97.7319 23.3771C97.855 24.0307 97.7396 24.6389 97.4643 25.2397C97.423 25.3293 97.3973 25.4237 97.3542 25.5454ZM88.6936 25.6C88.7425 25.6253 88.7723 25.6545 88.8023 25.6545C90.4908 25.6592 92.18 25.6814 93.8681 25.6559C94.7035 25.6433 95.2925 25.1642 95.4846 24.4471C95.6553 23.8103 95.5203 23.2124 95.1094 22.6729C94.6995 22.1347 94.0669 21.9172 93.3623 21.9531C92.5654 21.9937 91.8332 22.254 91.1815 22.6655C90.056 23.3759 89.3216 24.3511 88.729 25.4207C88.6988 25.4751 88.7037 25.5444 88.6936 25.6ZM102.084 23.6513C102.084 24.1819 102.188 24.5185 102.403 24.8735C103.043 25.9262 104.97 25.9166 105.638 25.0201C106.229 24.2261 106.299 23.4063 105.811 22.5697C105.203 21.5285 103.622 21.3406 102.68 22.1759C102.215 22.5885 102.057 23.0907 102.084 23.6513Z" fill="#221AFB"/>
<path d="M64.9716 21.078C65.5412 21.4859 66.0443 21.8463 66.5596 22.2152C66.4427 22.439 66.3153 22.6366 66.2333 22.8477C65.888 23.7357 65.9983 24.5653 66.7875 25.2398C67.0254 25.4431 67.3961 25.6247 67.7175 25.6406C68.7412 25.6913 69.7704 25.6595 70.8519 25.6595C70.7718 25.4895 70.7118 25.374 70.6622 25.2551C70.0392 23.7634 70.1668 22.3681 71.3976 21.1312C71.9286 20.5975 72.6143 20.2697 73.4061 20.1185C74.895 19.8341 76.2735 20.009 77.4621 20.899C78.0921 21.3707 78.5005 21.9737 78.6811 22.6753C78.9943 23.8934 78.8277 25.0425 77.9043 26.046C77.1585 26.8563 76.1686 27.3099 74.9848 27.3251C72.5433 27.3561 70.1007 27.3575 67.6593 27.3272C65.6846 27.3027 63.9826 25.8273 63.8665 24.1099C63.8058 23.2116 63.9125 22.3451 64.5222 21.5796C64.6483 21.421 64.7946 21.2743 64.9716 21.078ZM72.5444 23.6766C72.5052 24.083 72.6464 24.5023 72.9059 24.8898C73.5071 25.7871 75.0075 25.9661 75.8716 25.2502C76.7051 24.5598 76.8557 23.2524 76.1982 22.415C75.7199 21.8059 74.9155 21.537 74.0911 21.7105C73.1332 21.9123 72.551 22.6339 72.5444 23.6766Z" fill="#221AFB"/>
<path d="M68.429 44.2084C68.3864 44.335 68.3515 44.4383 68.314 44.5494C67.5929 44.5494 66.8875 44.5494 66.1504 44.5494C66.1504 40.8342 66.1504 37.1466 66.1504 33.4233C66.8763 33.4233 67.594 33.4233 68.372 33.4233C68.372 34.7756 68.372 36.1064 68.372 37.5007C68.5276 37.4312 68.6108 37.4031 68.6827 37.3605C70.0413 36.5551 72.0038 36.7816 73.2244 37.5876C74.4829 38.4188 75.1576 39.5214 75.1357 40.9128C75.1035 42.9694 73.3703 44.445 71.5564 44.7398C70.5949 44.8963 69.6487 44.8629 68.7896 44.3753C68.682 44.3144 68.5621 44.2695 68.429 44.2084ZM72.8997 40.6256C72.8296 40.4248 72.754 40.0149 72.5504 39.6608C71.8309 38.4103 69.8814 38.309 69.0058 39.2226C68.2498 40.0114 68.1487 40.8914 68.5395 41.8281C69.149 43.2895 71.2017 43.3233 72.1111 42.5556C72.6677 42.0858 72.8672 41.4873 72.8997 40.6256Z" fill="#221AFB"/>
<path d="M51.6599 25.666C52.3862 25.666 53.0992 25.6652 53.8124 25.6662C54.2456 25.6668 54.5358 25.4805 54.645 25.1266C54.7216 24.8782 54.762 24.6138 54.7631 24.3565C54.7722 22.1976 54.7683 20.0387 54.7683 17.88C54.7683 17.7037 54.7683 17.5274 54.7683 17.3223C55.4926 17.3223 56.1594 17.3223 56.8661 17.3223C56.8805 17.4457 56.9076 17.57 56.9078 17.6944C56.9103 20.0169 56.911 22.3393 56.9087 24.6617C56.9083 25.1381 56.8497 25.6095 56.6181 26.048C56.1838 26.8709 55.4191 27.2876 54.3992 27.3288C53.6681 27.3585 52.9335 27.3485 52.2017 27.3271C51.9501 27.3198 51.7018 27.225 51.4148 27.1622C51.2508 28.1578 50.8393 29.0592 49.894 29.7225C49.0985 30.281 48.1782 30.4869 47.1416 30.5158C47.1416 29.9891 47.1416 29.4732 47.1416 28.92C47.2724 28.8861 47.426 28.8372 47.5843 28.8064C48.3113 28.6643 48.7859 28.2687 48.9959 27.6647C49.1188 27.3114 49.1927 26.9315 49.1968 26.5629C49.2171 24.7968 49.2058 23.0303 49.2058 21.264C49.2058 21.0861 49.2058 20.9083 49.2058 20.6957C49.9321 20.6957 50.6163 20.6957 51.357 20.6957C51.3665 20.871 51.3836 21.0447 51.3839 21.2184C51.3861 22.4451 51.3866 23.6718 51.3841 24.8983C51.3834 25.1631 51.3827 25.4241 51.6599 25.666Z" fill="#221AFB"/>
<path d="M82.9726 37.5039C83.0121 37.3702 83.0428 37.2663 83.0802 37.1403C83.7847 37.1403 84.4907 37.1403 85.1906 37.1403C85.3095 37.5194 85.3568 43.4201 85.2493 44.553C84.8943 44.5608 84.5295 44.5718 84.1644 44.5759C83.8092 44.5799 83.4539 44.5767 83.0906 44.5767C83.0527 44.4454 83.0223 44.3396 82.9889 44.2242C82.9262 44.2328 82.8615 44.2254 82.8225 44.2495C80.2189 45.8539 76.2653 43.9851 76.2578 40.9167C76.254 39.3336 76.9882 38.1289 78.5622 37.3653C79.9445 36.6945 81.371 36.6225 82.7618 37.4032C82.8198 37.4365 82.8838 37.462 82.9726 37.5039ZM78.4645 40.8366C78.4839 40.84 78.5033 40.8433 78.5225 40.8468C78.5225 40.9611 78.5144 41.0759 78.5238 41.1896C78.5973 42.0668 79.2777 42.7888 80.2211 42.9949C81.2 43.2087 82.1809 42.8783 82.691 42.1157C83.1388 41.4463 83.172 40.722 82.9138 39.9872C82.6362 39.1969 81.801 38.6432 80.8683 38.6228C79.8529 38.6006 79.0231 39.0699 78.6966 39.8901C78.5762 40.1926 78.5394 40.5204 78.4645 40.8366Z" fill="#221AFB"/>
<path d="M15.5923 37.5246C15.6288 37.3803 15.6554 37.2753 15.6883 37.1448C16.3869 37.1448 17.0914 37.1448 17.8285 37.1448C17.8285 39.6158 17.8285 42.0601 17.8285 44.5409C17.1288 44.5409 16.4428 44.5409 15.7142 44.5409C15.6782 44.4483 15.6333 44.3327 15.5684 44.1658C14.3868 44.9361 13.0913 44.9979 11.7712 44.5823C10.4383 44.1627 9.52799 43.3144 9.09978 42.1543C8.51304 40.5649 8.86684 39.1103 10.2579 37.9231C10.97 37.3153 11.8592 36.9909 12.8698 36.8856C13.8767 36.7806 14.75 37.0281 15.5923 37.5246ZM15.7149 40.8591C15.6168 40.4983 15.565 40.1218 15.411 39.7801C15.0946 39.0775 14.4422 38.7061 13.6025 38.6325C12.7882 38.561 12.0802 38.7962 11.5976 39.4008C11.0068 40.1409 10.9543 40.9477 11.2941 41.7804C11.5915 42.5086 12.1994 42.9362 13.0726 43.0292C14.0305 43.1313 14.8102 42.8469 15.3075 42.0942C15.5553 41.7189 15.6716 41.3096 15.7149 40.8591Z" fill="#221AFB"/>
<path d="M36.8004 37.4366C36.8232 37.3602 36.8505 37.2692 36.887 37.1479C37.5827 37.1479 38.2882 37.1479 38.9958 37.1479C39.1178 37.4714 39.1625 43.7969 39.0412 44.5442C38.343 44.5442 37.6384 44.5442 36.9005 44.5442C36.8672 44.4473 36.8309 44.3428 36.7907 44.2264C36.7416 44.2345 36.68 44.2294 36.6423 44.2531C34.4221 45.6517 30.7747 44.4378 30.1688 41.6258C29.8612 40.1985 30.2653 38.9232 31.504 37.9225C32.5967 37.0397 33.9114 36.6736 35.3929 36.9517C35.8585 37.0391 36.2917 37.2572 36.8004 37.4366ZM34.6248 43.039C35.6342 43.0388 36.3776 42.5732 36.7179 41.7507C36.9695 41.1422 36.9702 40.5425 36.7213 39.9345C36.415 39.1864 35.8078 38.729 34.9166 38.6384C34.0189 38.5471 33.2525 38.8056 32.7444 39.507C32.3895 39.9971 32.2711 40.5409 32.3399 41.1013C32.5088 42.4801 33.5582 43.0716 34.6248 43.039Z" fill="#221AFB"/>
<path d="M45.9709 33.4077C46.6833 33.4077 47.3541 33.4077 48.1057 33.4077C48.1091 34.0747 48.1138 34.7372 48.1156 35.4C48.1174 36.053 48.1161 36.7059 48.1161 37.4136C48.269 37.3506 48.3858 37.317 48.4841 37.2597C50.0865 36.3259 52.95 37.0771 53.4833 39.0405C53.6033 39.482 53.6946 39.9396 53.7052 40.3915C53.7348 41.6662 53.716 42.942 53.7145 44.2173C53.7142 44.3131 53.6984 44.4087 53.6867 44.5401C52.9669 44.5401 52.2638 44.5401 51.4926 44.5401C51.4825 44.3789 51.4631 44.2075 51.4627 44.0362C51.4599 42.8425 51.4683 41.649 51.4561 40.4555C51.4532 40.1643 51.4126 39.8691 51.344 39.5839C51.2153 39.0484 50.8166 38.7367 50.1992 38.6385C49.2377 38.4854 48.4191 38.9534 48.2369 39.7843C48.1637 40.1186 48.1255 40.4633 48.121 40.8039C48.1066 41.883 48.1156 42.9622 48.1156 44.0413C48.1156 44.2007 48.1156 44.3599 48.1156 44.5481C47.3728 44.5481 46.6889 44.5481 45.9707 44.5481C45.9709 40.8375 45.9709 37.1498 45.9709 33.4077Z" fill="#221AFB"/>
<path d="M97.4971 33.4077C98.2099 33.4077 98.8809 33.4077 99.6312 33.4077C99.6345 34.0928 99.6393 34.7722 99.6411 35.4514C99.6429 36.1545 99.6415 36.8579 99.6415 37.561C99.6415 38.2457 99.6415 38.9306 99.6415 39.7068C99.8167 39.5937 99.9349 39.5348 100.028 39.4543C100.776 38.8097 101.528 38.169 102.258 37.5098C102.564 37.2332 102.885 37.0895 103.343 37.1095C104.069 37.1415 104.799 37.118 105.582 37.2053C104.398 38.2102 103.215 39.2148 101.994 40.2505C103.278 41.6704 104.547 43.0755 105.905 44.5774C105.339 44.5774 104.899 44.5819 104.458 44.576C104.028 44.5703 103.542 44.6582 103.185 44.512C102.85 44.3746 102.647 43.9873 102.392 43.7058C101.755 43.0017 101.121 42.2952 100.455 41.5543C100.205 41.7677 99.9579 41.9454 99.7631 42.1588C99.6711 42.2595 99.6503 42.4285 99.6467 42.5676C99.6334 43.058 99.6415 43.5487 99.6415 44.0395C99.6415 44.1991 99.6415 44.3587 99.6415 44.5475C98.9001 44.5475 98.2162 44.5475 97.4971 44.5475C97.4971 40.8381 97.4971 37.15 97.4971 33.4077Z" fill="#221AFB"/>
<path d="M87.5068 37.1197C88.1687 37.1197 88.8037 37.1081 89.4371 37.1299C89.555 37.1341 89.6671 37.2717 89.7584 37.3321C90.1844 37.1998 90.6257 37.0196 91.0897 36.9262C92.5947 36.6235 94.8025 37.4493 95.1234 39.385C95.1608 39.6104 95.2123 39.8369 95.2143 40.0632C95.2269 41.5174 95.228 42.9718 95.2307 44.4262C95.2307 44.4556 95.2053 44.4853 95.1773 44.5457C94.4873 44.5457 93.7831 44.5457 93.0171 44.5457C93.008 44.3689 92.9918 44.1957 92.9913 44.0228C92.9891 42.813 92.9988 41.6032 92.9841 40.3936C92.9803 40.087 92.9338 39.7743 92.8509 39.4763C92.7309 39.0456 92.3981 38.7859 91.8923 38.6766C90.8505 38.4514 90.013 38.8843 89.7963 39.799C89.725 40.0999 89.6905 40.4125 89.6869 40.7201C89.6741 41.8152 89.682 42.9108 89.682 44.0061C89.682 44.1682 89.682 44.3304 89.682 44.5347C88.9491 44.5347 88.2492 44.5347 87.5068 44.5347C87.5068 42.0908 87.5068 39.6479 87.5068 37.1197Z" fill="#221AFB"/>
<path d="M39.4209 48.4847C39.4209 47.9186 39.4209 47.4011 39.4209 46.9553C39.8676 46.7655 40.3066 46.647 40.6494 46.4189C41.2939 45.9898 41.4664 45.3547 41.4655 44.6728C41.4623 42.3537 41.4643 40.0344 41.4643 37.7153C41.4643 37.5387 41.4643 37.362 41.4643 37.1523C42.2141 37.1523 42.9141 37.1523 43.6492 37.1523C43.6604 37.31 43.6794 37.4525 43.6796 37.595C43.6814 40.0611 43.6963 42.5274 43.6758 44.9933C43.6611 46.7541 42.0671 48.3033 39.8696 48.4998C39.742 48.5112 39.6112 48.492 39.4209 48.4847Z" fill="#221AFB"/>
<path d="M20.0781 33.3882C20.6189 33.3882 21.1224 33.3882 21.6257 33.3882C21.828 33.3882 22.0302 33.3882 22.2634 33.3882C22.2634 37.1218 22.2634 40.8079 22.2634 44.5355C21.5472 44.5355 20.8308 44.5355 20.0781 44.5355C20.0781 40.8401 20.0781 37.1556 20.0781 33.3882Z" fill="#221AFB"/>
<path d="M58.8672 17.3101C59.5996 17.3101 60.2919 17.3101 60.9832 17.3101C61.1048 17.6477 61.1402 26.6347 61.0137 27.3353C60.6745 27.3353 60.323 27.3353 59.9714 27.3353C59.6167 27.3353 59.2618 27.3353 58.8672 27.3353C58.8672 23.9876 58.8672 20.6772 58.8672 17.3101Z" fill="#221AFB"/>
<path d="M46.2735 27.3135C45.57 27.3135 44.8994 27.3135 44.2287 27.3135C44.1099 26.9798 44.07 18.0604 44.1888 17.3223C44.8673 17.3223 45.5513 17.3223 46.2738 17.3223C46.2735 20.6393 46.2735 23.9482 46.2735 27.3135Z" fill="#221AFB"/>
<path d="M26.5808 44.5834C25.8159 44.5834 25.1126 44.5834 24.3642 44.5834C24.3504 44.4228 24.3283 44.2813 24.3281 44.1395C24.3254 42.833 24.3078 41.526 24.3367 40.22C24.3466 39.7695 24.4187 39.3068 24.5617 38.8748C24.8715 37.9379 25.6071 37.3462 26.7003 37.1195C27.561 36.941 28.4305 36.8666 29.3332 37.0571C29.3332 37.58 29.3332 38.0967 29.3332 38.671C29.064 38.6769 28.8087 38.6808 28.5537 38.6885C28.3103 38.696 28.0655 38.6948 27.8242 38.7195C26.9745 38.8069 26.5876 39.191 26.5828 39.967C26.5754 41.2245 26.5808 42.4822 26.5808 43.7397C26.5808 44.0127 26.5808 44.286 26.5808 44.5834Z" fill="#221AFB"/>
<path d="M55.9562 37.1465C56.6762 37.1465 57.364 37.1465 58.0817 37.1465C58.0817 39.6199 58.0817 42.0644 58.0817 44.5431C57.373 44.5431 56.6863 44.5431 55.9959 44.5431C55.8721 44.2211 55.8301 37.9018 55.9562 37.1465Z" fill="#221AFB"/>
<path d="M57.008 35.7759C56.1781 35.7753 55.6254 35.2995 55.6329 34.5918C55.6399 33.9342 56.2332 33.4358 56.9944 33.4174C57.6946 33.4005 58.397 33.9272 58.3984 34.6038C58.3995 35.2088 57.7571 35.8758 57.008 35.7759Z" fill="#221AFB"/>
<path d="M42.5874 35.7761C41.7955 35.8785 41.1537 35.1583 41.1921 34.6057C41.2378 33.9438 41.7901 33.4303 42.5464 33.4211C43.3609 33.411 43.9397 33.8963 43.9436 34.5922C43.9476 35.3305 43.4398 35.7739 42.5874 35.7761Z" fill="#221AFB"/>
<path d="M10.6051 31.1623C9.8549 31.1613 9.32769 30.7049 9.33107 30.0593C9.33445 29.4164 9.8682 28.9665 10.622 28.9712C11.3125 28.9755 11.8742 29.4547 11.885 30.0489C11.8961 30.6576 11.3148 31.1633 10.6051 31.1623Z" fill="#221AFB"/>
<path d="M15.4934 30.0486C15.5027 30.6822 14.9613 31.1588 14.2282 31.1628C13.5118 31.1667 12.9356 30.6744 12.9395 30.0615C12.9431 29.4689 13.5001 28.9817 14.1853 28.9719C14.9261 28.9613 15.4844 29.4208 15.4934 30.0486Z" fill="#221AFB"/>
<path d="M71.0041 18.6634C70.9881 19.3063 70.4697 19.7006 69.6683 19.679C68.9674 19.6604 68.4607 19.1791 68.4873 18.5576C68.5133 17.9555 69.0759 17.4919 69.7643 17.4864C70.4656 17.4809 71.0857 17.9985 71.0041 18.6634Z" fill="#221AFB"/>
<path d="M37.6309 30.0606C37.7301 30.6469 37.027 31.2107 36.3825 31.1712C35.6654 31.1275 35.1076 30.6695 35.1143 30.047C35.1209 29.447 35.6686 29.0078 36.3683 28.9633C37.0759 28.9183 37.7321 29.5304 37.6309 30.0606Z" fill="#221AFB"/>
</g>
<defs>
<clipPath id="clip0_206_1542">
<rect width="192.171" height="56" fill="white" transform="translate(0.914062)"/>
</clipPath>
</defs>
</svg>
