<svg width="20" height="21" viewBox="0 0 20 21" fill="none" xmlns="http://www.w3.org/2000/svg">
<g clip-path="url(#clip0_48_12133)">
<path d="M3.8291 4.65334C3.97998 4.6358 4.13278 4.65984 4.27099 4.72285C4.4092 4.78585 4.52755 4.88544 4.61327 5.01084C5.84327 6.81 7.31994 7.55833 8.9591 7.72833C9.0391 7.0275 9.22827 6.335 9.5841 5.725C10.1058 4.83 10.9541 4.17167 12.1658 3.92833C13.8408 3.59167 15.1158 4.19833 15.8549 4.94083L17.3483 4.66167C17.5045 4.63239 17.6659 4.64842 17.8134 4.70788C17.9608 4.76733 18.0882 4.86772 18.1804 4.99721C18.2727 5.12669 18.326 5.27987 18.334 5.43865C18.342 5.59743 18.3045 5.7552 18.2258 5.89334L16.7924 8.41167C16.9233 12.0458 15.9133 14.5825 13.7599 16.33C12.6183 17.2567 10.9833 17.7825 9.1891 17.945C7.38077 18.1083 5.3366 17.9108 3.30494 17.3175C3.13135 17.2669 2.97894 17.1611 2.87071 17.0163C2.76248 16.8714 2.7043 16.6953 2.70496 16.5145C2.70562 16.3337 2.76508 16.1579 2.87436 16.0139C2.98364 15.8698 3.13681 15.7652 3.31077 15.7158C4.33244 15.425 5.11077 15.1742 5.81327 14.735C4.8141 14.205 4.07827 13.5117 3.55744 12.7217C2.8341 11.6233 2.56577 10.3983 2.51244 9.29417C2.4591 8.19 2.61827 7.16667 2.7866 6.42917C2.88244 6.00833 2.9941 5.58667 3.14827 5.18333C3.20265 5.04116 3.29493 4.9166 3.4151 4.82316C3.53528 4.72973 3.67791 4.67099 3.8291 4.65334Z" fill="white"/>
</g>
<defs>
<clipPath id="clip0_48_12133">
<rect width="20" height="20" fill="white" transform="translate(0 0.5)"/>
</clipPath>
</defs>
</svg>
