<svg width="24" height="24" viewBox="0 0 24 24" fill="none" xmlns="http://www.w3.org/2000/svg">
    <path d="M21.5434 7.10387C21.5578 7.31504 21.5578 7.52725 21.5578 7.74034C21.5578 14.2472 16.6042 21.7506 7.54753 21.7506V21.7467C4.87191 21.7503 2.25183 20.9838 0 19.5388C0.389016 19.5853 0.780375 19.609 1.17216 19.6098C3.38981 19.6121 5.54372 18.8682 7.28738 17.4978C5.18072 17.4583 3.33211 16.0842 2.68706 14.0783C3.42492 14.2204 4.18552 14.1915 4.91044 13.9938C2.61291 13.5297 0.960656 11.5109 0.960047 9.16698C0.960047 9.14584 0.960047 9.12475 0.960047 9.10459C1.6448 9.48629 2.4113 9.6977 3.19495 9.7209C1.03102 8.27589 0.363469 5.39762 1.67039 3.14772C4.1707 6.22389 7.85944 8.09387 11.8185 8.29239C11.4217 6.58239 11.9642 4.79031 13.243 3.58768C15.2259 1.7229 18.3451 1.81862 20.2099 3.80153C21.3126 3.58408 22.37 3.17987 23.3366 2.60631C22.969 3.74659 22.1997 4.71447 21.1718 5.32984C22.148 5.21448 23.1013 4.95334 24 4.55514C23.3389 5.54378 22.507 6.40684 21.5434 7.10387Z" fill="#1D9BF0" />
</svg>
    