<svg width="20" height="21" viewBox="0 0 20 21" fill="none" xmlns="http://www.w3.org/2000/svg">
<path fill-rule="evenodd" clip-rule="evenodd" d="M5.82485 4.5752C8.60449 4.35774 11.3969 4.35774 14.1765 4.5752L16.0432 4.72187C16.5488 4.76128 17.0266 4.96879 17.4005 5.31132C17.7745 5.65385 18.023 6.11169 18.1065 6.61187C18.5373 9.18687 18.5373 11.8144 18.1065 14.3885C18.023 14.8886 17.7746 15.3463 17.4009 15.6888C17.0271 16.0314 16.5494 16.2389 16.044 16.2785L14.1773 16.4244C11.3974 16.6419 8.60476 16.6419 5.82485 16.4244L3.95818 16.2785C3.45261 16.2391 2.97477 16.0316 2.60083 15.6891C2.22689 15.3466 1.97836 14.8887 1.89485 14.3885C1.46474 11.8142 1.46474 9.18625 1.89485 6.61187C1.97832 6.11182 2.22673 5.65408 2.60051 5.31156C2.97428 4.96905 3.45192 4.76146 3.95735 4.72187L5.82401 4.57604L5.82485 4.5752ZM8.33401 12.5585V8.44187C8.33408 8.39769 8.34586 8.35432 8.36814 8.31617C8.39042 8.27802 8.42241 8.24645 8.46086 8.22469C8.4993 8.20293 8.54283 8.19174 8.58701 8.19227C8.63119 8.1928 8.67443 8.20502 8.71235 8.2277L12.1432 10.286C12.1801 10.3083 12.2107 10.3397 12.2319 10.3772C12.2531 10.4147 12.2642 10.4571 12.2642 10.5002C12.2642 10.5433 12.2531 10.5857 12.2319 10.6232C12.2107 10.6607 12.1801 10.6921 12.1432 10.7144L8.71235 12.7727C8.67443 12.7954 8.63119 12.8076 8.58701 12.8081C8.54283 12.8087 8.4993 12.7975 8.46086 12.7757C8.42241 12.754 8.39042 12.7224 8.36814 12.6842C8.34586 12.6461 8.33408 12.6027 8.33401 12.5585Z" fill="white"/>
</svg>
