<svg width="24" height="24" viewBox="0 0 24 24" fill="none" xmlns="http://www.w3.org/2000/svg">
    <g clip-path="url(#clip0_763_4768)">
        <path d="M23.4985 6.18579C23.2225 5.14647 22.4093 4.32799 21.3766 4.05016C19.505 3.54541 12 3.54541 12 3.54541C12 3.54541 4.49498 3.54541 2.62336 4.05016C1.59075 4.32794 0.777516 5.14647 0.501516 6.18579C0 8.0696 0 12 0 12C0 12 0 15.9303 0.501516 17.8142C0.777516 18.8535 1.59075 19.672 2.62336 19.9498C4.49498 20.4545 12 20.4545 12 20.4545C12 20.4545 19.505 20.4545 21.3766 19.9498C22.4093 19.672 23.2225 18.8535 23.4985 17.8142C24 15.9303 24 12 24 12C24 12 24 8.0696 23.4985 6.18579Z" fill="#FF0000" />
        <path d="M9.5459 15.5685L15.8186 12.0001L9.5459 8.43152V15.5685Z" fill="white" />
    </g>
    <defs>
        <clipPath id="clip0_763_4768">
            <rect width="24" height="24" fill="white" />
        </clipPath>
    </defs>
</svg>
    